<svg version="1.1" preserveAspectRatio="none" xmlns="http://www.w3.org/2000/svg" width="500" height="500" viewBox="0 0 500 500"><rect width="100%" height="100%" fill="#242424" fill-opacity="1"/><svg viewBox="120.6953 88.0268 1204.7951 366.3191" width="333" height="101.24896781203708" x="83.5px" y="199.3755px" xmlns="http://www.w3.org/2000/svg" xmlns:xlink="http://www.w3.org/1999/xlink" preserveAspectRatio="none"><defs></defs><style>.aa3HaWBpKa50filter-floo {flood-color:#F55139;flood-opacity:0.5;}.aa7IyiasrVt0filter-floo {flood-color:#F1F1F1;flood-opacity:0.91;}.aqBABiEgxo0filter-floo {flood-color:#58DD94;flood-opacity:0.5;}.background {fill:#242424;fill-opacity:1;}.icon1 {fill:#58DD94;fill-opacity:1;}.icon3 {fill:#FFB5FD;fill-opacity:1;}.icon3-str {stroke:#FFB5FD;stroke-opacity:1;}</style><defs>
      <filter
        x="120.6953"
        y="109.83"
        width="1172.9719"
        height="344.5159"
        id="a3HaWBpKa5"
        filterUnits="userSpaceOnUse"
        primitiveUnits="userSpaceOnUse"
        color-interpolation-filters="sRGB">
        
    <feGaussianBlur in="SourceGraphic" stdDeviation="8"/>
    <feOffset dx="-10.901630175571183" dy="10.901630175571183" result="AVCdLAelvuH"/>
    <feFlood flood-color="#F55139" flood-opacity="0.5" in="AVCdLAelvuH" />
    <feComposite  in2="AVCdLAelvuH" operator="in" result="JCXhdtnlaFm"/><feMerge result="ND8Em5rqzk6"><feMergeNode in="JCXhdtnlaFm" /><feMergeNode in="SourceGraphic" /></feMerge><feGaussianBlur  result="a78DYbzCLQJD" stdDeviation="10" />
      </filter>
      <filter
        x="152.4985"
        y="88.0268"
        width="1172.9919"
        height="344.5159"
        id="qBABiEgxo"
        filterUnits="userSpaceOnUse"
        primitiveUnits="userSpaceOnUse"
        color-interpolation-filters="sRGB">
        
    <feGaussianBlur in="SourceGraphic" stdDeviation="10"/>
    <feOffset dx="10.901630175571183" dy="-10.901630175571183" result="AXUjoxqUHNL"/>
    <feFlood flood-color="#58DD94" flood-opacity="0.5" in="AXUjoxqUHNL" />
    <feComposite  in2="AXUjoxqUHNL" operator="in" result="B0nu3Q6bjde"/><feMerge result="lTqlQfMRWuE"><feMergeNode in="B0nu3Q6bjde" /><feMergeNode in="SourceGraphic" /></feMerge><feGaussianBlur  result="ja9MdbYKWmn" stdDeviation="8" />
      </filter>
      <filter
        x="170.963"
        y="131.9284"
        width="1106.9684"
        height="278.5159"
        id="a7IyiasrVt"
        filterUnits="userSpaceOnUse"
        primitiveUnits="userSpaceOnUse"
        color-interpolation-filters="sRGB">
        
    <feGaussianBlur in="SourceGraphic" stdDeviation="7"/>
    <feOffset dx="-3.6338767251903943" dy="0" result="N2pRUkdI-GW"/>
    <feFlood flood-color="#F1F1F1" flood-opacity="0.91" in="N2pRUkdI-GW" />
    <feComposite  in2="N2pRUkdI-GW" operator="in" result="GaNFogzM6JB"/><feMerge result="xSekSQuJ6j-"><feMergeNode in="GaNFogzM6JB" /><feMergeNode in="SourceGraphic" /></feMerge>
      </filter></defs><g filter="url(#a3HaWBpKa5)"><g opacity="1" transform="rotate(-4 185.5969 226.6022)">
<svg width="1056.1576" height="163.2397" x="185.5969" y="226.6022" version="1.1" preserveAspectRatio="none" viewBox="0.99 -28.32 185.29999999999998 28.64">
  <g transform="matrix(1 0 0 1 0 0)" class="icon3"><path id="id-tqp-tJeVl10" d="M1.40 0Q1.20 0 1.08-0.14Q0.96-0.28 1-0.48L1-0.48L4.32-27.52Q4.36-27.72 4.50-27.86Q4.64-28 4.84-28L4.84-28L9.36-28Q9.80-28 9.80-27.52L9.80-27.52L6.48-0.48Q6.44-0.28 6.28-0.14Q6.12 0 5.92 0L5.92 0L1.40 0Z M18.48 0.32Q15.24 0.32 13.38-1.46Q11.52-3.24 11.52-6.32L11.52-6.32Q11.52-6.72 11.60-7.60L11.60-7.60L13.16-20.40Q13.60-24 16-26.16Q18.40-28.32 21.96-28.32L21.96-28.32Q25.20-28.32 27.08-26.54Q28.96-24.76 28.96-21.68L28.96-21.68Q28.96-21.28 28.88-20.40L28.88-20.40L27.32-7.60Q26.88-4 24.46-1.84Q22.04 0.32 18.48 0.32L18.48 0.32ZM19.04-4.52Q20.16-4.52 20.90-5.30Q21.64-6.08 21.80-7.36L21.80-7.36L23.44-20.64Q23.48-20.80 23.48-21.12L23.48-21.12Q23.48-22.20 22.92-22.84Q22.36-23.48 21.40-23.48L21.40-23.48Q20.32-23.48 19.58-22.70Q18.84-21.92 18.68-20.64L18.68-20.64L17.04-7.36Q17-7.20 17-6.88L17-6.88Q17-5.80 17.56-5.16Q18.12-4.52 19.04-4.52L19.04-4.52Z M48.80-28Q49-28 49.12-27.86Q49.24-27.72 49.20-27.52L49.20-27.52L48.72-23.64Q48.68-23.44 48.54-23.30Q48.40-23.16 48.20-23.16L48.20-23.16L43.32-23.16Q43.24-23.16 43.18-23.10Q43.12-23.04 43.12-22.96L43.12-22.96L40.36-0.48Q40.32-0.28 40.18-0.14Q40.04 0 39.84 0L39.84 0L35.28 0Q35.08 0 34.96-0.14Q34.84-0.28 34.88-0.48L34.88-0.48L37.64-22.96Q37.72-23.16 37.48-23.16L37.48-23.16L32.84-23.16Q32.40-23.16 32.40-23.64L32.40-23.64L32.88-27.52Q32.92-27.72 33.06-27.86Q33.20-28 33.40-28L33.40-28L48.80-28Z M56.20 0.32Q53.04 0.32 51.20-1.46Q49.36-3.24 49.36-6.28L49.36-6.28Q49.36-6.68 49.44-7.56L49.44-7.56L51.04-20.52Q51.44-24.08 53.82-26.20Q56.20-28.32 59.72-28.32L59.72-28.32Q62.92-28.32 64.76-26.54Q66.60-24.76 66.60-21.72L66.60-21.72Q66.60-21.32 66.52-20.52L66.52-20.52L66.44-20.08Q66.40-19.88 66.26-19.74Q66.12-19.60 65.92-19.60L65.92-19.60L61.36-19.40Q60.92-19.40 60.96-19.84L60.96-19.84L61.08-20.88Q61.12-21.04 61.12-21.36L61.12-21.36Q61.12-22.32 60.58-22.90Q60.04-23.48 59.12-23.48L59.12-23.48Q58.12-23.48 57.40-22.76Q56.68-22.04 56.52-20.88L56.52-20.88L54.84-7.08Q54.80-6.92 54.80-6.64L54.80-6.64Q54.80-5.68 55.34-5.10Q55.88-4.52 56.76-4.52L56.76-4.52Q57.80-4.52 58.52-5.22Q59.24-5.92 59.40-7.08L59.40-7.08L59.52-8.16Q59.56-8.36 59.70-8.50Q59.84-8.64 60.04-8.64L60.04-8.64L64.56-8.44Q65.04-8.44 64.96-8L64.96-8L64.92-7.56Q64.48-3.96 62.08-1.82Q59.68 0.32 56.20 0.32L56.20 0.32Z M75.52 0.32Q72.28 0.32 70.42-1.46Q68.56-3.24 68.56-6.32L68.56-6.32Q68.56-6.72 68.64-7.60L68.64-7.60L70.20-20.40Q70.64-24 73.04-26.16Q75.44-28.32 79.00-28.32L79.00-28.32Q82.24-28.32 84.12-26.54Q86.00-24.76 86.00-21.68L86.00-21.68Q86.00-21.28 85.92-20.40L85.92-20.40L84.36-7.60Q83.92-4 81.50-1.84Q79.08 0.32 75.52 0.32L75.52 0.32ZM76.08-4.52Q77.20-4.52 77.94-5.30Q78.68-6.08 78.84-7.36L78.84-7.36L80.48-20.64Q80.52-20.80 80.52-21.12L80.52-21.12Q80.52-22.20 79.96-22.84Q79.40-23.48 78.44-23.48L78.44-23.48Q77.36-23.48 76.62-22.70Q75.88-21.92 75.72-20.64L75.72-20.64L74.08-7.36Q74.04-7.20 74.04-6.88L74.04-6.88Q74.04-5.80 74.60-5.16Q75.16-4.52 76.08-4.52L76.08-4.52Z M88.16 0Q87.96 0 87.84-0.14Q87.72-0.28 87.76-0.48L87.76-0.48L91.08-27.52Q91.12-27.72 91.26-27.86Q91.40-28 91.60-28L91.60-28L96.48-28Q96.84-28 96.92-27.60L96.92-27.60L100.12-12.64Q100.12-12.52 100.22-12.54Q100.32-12.56 100.36-12.68L100.36-12.68L102.16-27.52Q102.20-27.72 102.34-27.86Q102.48-28 102.68-28L102.68-28L107.16-28Q107.36-28 107.48-27.86Q107.60-27.72 107.56-27.52L107.56-27.52L104.24-0.48Q104.20-0.28 104.06-0.14Q103.92 0 103.72 0L103.72 0L98.80 0Q98.40 0 98.32-0.40L98.32-0.40L95.16-15.40Q95.16-15.52 95.06-15.52Q94.96-15.52 94.92-15.40L94.92-15.40L93.16-0.48Q93.12-0.28 92.96-0.14Q92.80 0 92.60 0L92.60 0L88.16 0Z M109.32 0Q109.12 0 109.00-0.14Q108.88-0.28 108.92-0.48L108.92-0.48L112.24-27.52Q112.28-27.72 112.42-27.86Q112.56-28 112.76-28L112.76-28L117.64-28Q118.00-28 118.08-27.60L118.08-27.60L121.28-12.64Q121.28-12.52 121.38-12.54Q121.48-12.56 121.52-12.68L121.52-12.68L123.32-27.52Q123.36-27.72 123.50-27.86Q123.64-28 123.84-28L123.84-28L128.32-28Q128.52-28 128.64-27.86Q128.76-27.72 128.72-27.52L128.72-27.52L125.40-0.48Q125.36-0.28 125.22-0.14Q125.08 0 124.88 0L124.88 0L119.96 0Q119.56 0 119.48-0.40L119.48-0.40L116.32-15.40Q116.32-15.52 116.22-15.52Q116.12-15.52 116.08-15.40L116.08-15.40L114.32-0.48Q114.28-0.28 114.12-0.14Q113.96 0 113.76 0L113.76 0L109.32 0Z M147.12-23.64Q147.08-23.44 146.94-23.30Q146.80-23.16 146.60-23.16L146.60-23.16L138.48-23.16Q138.28-23.16 138.28-22.96L138.28-22.96L137.48-16.64Q137.48-16.44 137.64-16.44L137.64-16.44L142.32-16.44Q142.52-16.44 142.64-16.30Q142.76-16.16 142.72-15.96L142.72-15.96L142.24-12.08Q142.20-11.88 142.06-11.74Q141.92-11.60 141.72-11.60L141.72-11.60L137.08-11.60Q136.84-11.60 136.84-11.40L136.84-11.40L136.08-5.04Q136-4.84 136.24-4.84L136.24-4.84L144.32-4.84Q144.52-4.84 144.66-4.70Q144.80-4.56 144.76-4.36L144.76-4.36L144.28-0.48Q144.24-0.28 144.10-0.14Q143.96 0 143.76 0L143.76 0L130.44 0Q130.24 0 130.12-0.14Q130-0.28 130.04-0.48L130.04-0.48L133.36-27.52Q133.40-27.72 133.54-27.86Q133.68-28 133.88-28L133.88-28L147.20-28Q147.40-28 147.52-27.86Q147.64-27.72 147.60-27.52L147.60-27.52L147.12-23.64Z M155.48 0.32Q152.32 0.32 150.48-1.46Q148.64-3.24 148.64-6.28L148.64-6.28Q148.64-6.68 148.72-7.56L148.72-7.56L150.32-20.52Q150.72-24.08 153.10-26.20Q155.48-28.32 159.00-28.32L159.00-28.32Q162.20-28.32 164.04-26.54Q165.88-24.76 165.88-21.72L165.88-21.72Q165.88-21.32 165.80-20.52L165.80-20.52L165.72-20.08Q165.68-19.88 165.54-19.74Q165.40-19.60 165.20-19.60L165.20-19.60L160.64-19.40Q160.20-19.40 160.24-19.84L160.24-19.84L160.36-20.88Q160.40-21.04 160.40-21.36L160.40-21.36Q160.40-22.32 159.86-22.90Q159.32-23.48 158.40-23.48L158.40-23.48Q157.40-23.48 156.68-22.76Q155.96-22.04 155.80-20.88L155.80-20.88L154.12-7.08Q154.08-6.92 154.08-6.64L154.08-6.64Q154.08-5.68 154.62-5.10Q155.16-4.52 156.04-4.52L156.04-4.52Q157.08-4.52 157.80-5.22Q158.52-5.92 158.68-7.08L158.68-7.08L158.80-8.16Q158.84-8.36 158.98-8.50Q159.12-8.64 159.32-8.64L159.32-8.64L163.84-8.44Q164.32-8.44 164.24-8L164.24-8L164.20-7.56Q163.76-3.96 161.36-1.82Q158.96 0.32 155.48 0.32L155.48 0.32Z M185.88-28Q186.08-28 186.20-27.86Q186.32-27.72 186.28-27.52L186.28-27.52L185.80-23.64Q185.76-23.44 185.62-23.30Q185.48-23.16 185.28-23.16L185.28-23.16L180.40-23.16Q180.32-23.16 180.26-23.10Q180.20-23.04 180.20-22.96L180.20-22.96L177.44-0.48Q177.40-0.28 177.26-0.14Q177.12 0 176.92 0L176.92 0L172.36 0Q172.16 0 172.04-0.14Q171.92-0.28 171.96-0.48L171.96-0.48L174.72-22.96Q174.80-23.16 174.56-23.16L174.56-23.16L169.92-23.16Q169.48-23.16 169.48-23.64L169.48-23.64L169.96-27.52Q170.00-27.72 170.14-27.86Q170.28-28 170.48-28L170.48-28L185.88-28Z"/></g>
</svg>
</g></g><g filter="url(#qBABiEgxo)"><g opacity="1" transform="rotate(-4 195.5969 226.6036)">
<svg width="1056.1778" height="163.2383" x="195.5969" y="226.6036" version="1.1" preserveAspectRatio="none" viewBox="0.99 -28.32 185.29999999999998 28.64">
  <g transform="matrix(1 0 0 1 0 0)" class="icon1"><path id="id-rBdy8_vsl10" d="M1.40 0Q1.20 0 1.08-0.14Q0.96-0.28 1-0.48L1-0.48L4.32-27.52Q4.36-27.72 4.50-27.86Q4.64-28 4.84-28L4.84-28L9.36-28Q9.80-28 9.80-27.52L9.80-27.52L6.48-0.48Q6.44-0.28 6.28-0.14Q6.12 0 5.92 0L5.92 0L1.40 0Z M18.48 0.32Q15.24 0.32 13.38-1.46Q11.52-3.24 11.52-6.32L11.52-6.32Q11.52-6.72 11.60-7.60L11.60-7.60L13.16-20.40Q13.60-24 16-26.16Q18.40-28.32 21.96-28.32L21.96-28.32Q25.20-28.32 27.08-26.54Q28.96-24.76 28.96-21.68L28.96-21.68Q28.96-21.28 28.88-20.40L28.88-20.40L27.32-7.60Q26.88-4 24.46-1.84Q22.04 0.32 18.48 0.32L18.48 0.32ZM19.04-4.52Q20.16-4.52 20.90-5.30Q21.64-6.08 21.80-7.36L21.80-7.36L23.44-20.64Q23.48-20.80 23.48-21.12L23.48-21.12Q23.48-22.20 22.92-22.84Q22.36-23.48 21.40-23.48L21.40-23.48Q20.32-23.48 19.58-22.70Q18.84-21.92 18.68-20.64L18.68-20.64L17.04-7.36Q17-7.20 17-6.88L17-6.88Q17-5.80 17.56-5.16Q18.12-4.52 19.04-4.52L19.04-4.52Z M48.80-28Q49-28 49.12-27.86Q49.24-27.72 49.20-27.52L49.20-27.52L48.72-23.64Q48.68-23.44 48.54-23.30Q48.40-23.16 48.20-23.16L48.20-23.16L43.32-23.16Q43.24-23.16 43.18-23.10Q43.12-23.04 43.12-22.96L43.12-22.96L40.36-0.48Q40.32-0.28 40.18-0.14Q40.04 0 39.84 0L39.84 0L35.28 0Q35.08 0 34.96-0.14Q34.84-0.28 34.88-0.48L34.88-0.48L37.64-22.96Q37.72-23.16 37.48-23.16L37.48-23.16L32.84-23.16Q32.40-23.16 32.40-23.64L32.40-23.64L32.88-27.52Q32.92-27.72 33.06-27.86Q33.20-28 33.40-28L33.40-28L48.80-28Z M56.20 0.32Q53.04 0.32 51.20-1.46Q49.36-3.24 49.36-6.28L49.36-6.28Q49.36-6.68 49.44-7.56L49.44-7.56L51.04-20.52Q51.44-24.08 53.82-26.20Q56.20-28.32 59.72-28.32L59.72-28.32Q62.92-28.32 64.76-26.54Q66.60-24.76 66.60-21.72L66.60-21.72Q66.60-21.32 66.52-20.52L66.52-20.52L66.44-20.08Q66.40-19.88 66.26-19.74Q66.12-19.60 65.92-19.60L65.92-19.60L61.36-19.40Q60.92-19.40 60.96-19.84L60.96-19.84L61.08-20.88Q61.12-21.04 61.12-21.36L61.12-21.36Q61.12-22.32 60.58-22.90Q60.04-23.48 59.12-23.48L59.12-23.48Q58.12-23.48 57.40-22.76Q56.68-22.04 56.52-20.88L56.52-20.88L54.84-7.08Q54.80-6.92 54.80-6.64L54.80-6.64Q54.80-5.68 55.34-5.10Q55.88-4.52 56.76-4.52L56.76-4.52Q57.80-4.52 58.52-5.22Q59.24-5.92 59.40-7.08L59.40-7.08L59.52-8.16Q59.56-8.36 59.70-8.50Q59.84-8.64 60.04-8.64L60.04-8.64L64.56-8.44Q65.04-8.44 64.96-8L64.96-8L64.92-7.56Q64.48-3.96 62.08-1.82Q59.68 0.32 56.20 0.32L56.20 0.32Z M75.52 0.32Q72.28 0.32 70.42-1.46Q68.56-3.24 68.56-6.32L68.56-6.32Q68.56-6.72 68.64-7.60L68.64-7.60L70.20-20.40Q70.64-24 73.04-26.16Q75.44-28.32 79.00-28.32L79.00-28.32Q82.24-28.32 84.12-26.54Q86.00-24.76 86.00-21.68L86.00-21.68Q86.00-21.28 85.92-20.40L85.92-20.40L84.36-7.60Q83.92-4 81.50-1.84Q79.08 0.32 75.52 0.32L75.52 0.32ZM76.08-4.52Q77.20-4.52 77.94-5.30Q78.68-6.08 78.84-7.36L78.84-7.36L80.48-20.64Q80.52-20.80 80.52-21.12L80.52-21.12Q80.52-22.20 79.96-22.84Q79.40-23.48 78.44-23.48L78.44-23.48Q77.36-23.48 76.62-22.70Q75.88-21.92 75.72-20.64L75.72-20.64L74.08-7.36Q74.04-7.20 74.04-6.88L74.04-6.88Q74.04-5.80 74.60-5.16Q75.16-4.52 76.08-4.52L76.08-4.52Z M88.16 0Q87.96 0 87.84-0.14Q87.72-0.28 87.76-0.48L87.76-0.48L91.08-27.52Q91.12-27.72 91.26-27.86Q91.40-28 91.60-28L91.60-28L96.48-28Q96.84-28 96.92-27.60L96.92-27.60L100.12-12.64Q100.12-12.52 100.22-12.54Q100.32-12.56 100.36-12.68L100.36-12.68L102.16-27.52Q102.20-27.72 102.34-27.86Q102.48-28 102.68-28L102.68-28L107.16-28Q107.36-28 107.48-27.86Q107.60-27.72 107.56-27.52L107.56-27.52L104.24-0.48Q104.20-0.28 104.06-0.14Q103.92 0 103.72 0L103.72 0L98.80 0Q98.40 0 98.32-0.40L98.32-0.40L95.16-15.40Q95.16-15.52 95.06-15.52Q94.96-15.52 94.92-15.40L94.92-15.40L93.16-0.48Q93.12-0.28 92.96-0.14Q92.80 0 92.60 0L92.60 0L88.16 0Z M109.32 0Q109.12 0 109.00-0.14Q108.88-0.28 108.92-0.48L108.92-0.48L112.24-27.52Q112.28-27.72 112.42-27.86Q112.56-28 112.76-28L112.76-28L117.64-28Q118.00-28 118.08-27.60L118.08-27.60L121.28-12.64Q121.28-12.52 121.38-12.54Q121.48-12.56 121.52-12.68L121.52-12.68L123.32-27.52Q123.36-27.72 123.50-27.86Q123.64-28 123.84-28L123.84-28L128.32-28Q128.52-28 128.64-27.86Q128.76-27.72 128.72-27.52L128.72-27.52L125.40-0.48Q125.36-0.28 125.22-0.14Q125.08 0 124.88 0L124.88 0L119.96 0Q119.56 0 119.48-0.40L119.48-0.40L116.32-15.40Q116.32-15.52 116.22-15.52Q116.12-15.52 116.08-15.40L116.08-15.40L114.32-0.48Q114.28-0.28 114.12-0.14Q113.96 0 113.76 0L113.76 0L109.32 0Z M147.12-23.64Q147.08-23.44 146.94-23.30Q146.80-23.16 146.60-23.16L146.60-23.16L138.48-23.16Q138.28-23.16 138.28-22.96L138.28-22.96L137.48-16.64Q137.48-16.44 137.64-16.44L137.64-16.44L142.32-16.44Q142.52-16.44 142.64-16.30Q142.76-16.16 142.72-15.96L142.72-15.96L142.24-12.08Q142.20-11.88 142.06-11.74Q141.92-11.60 141.72-11.60L141.72-11.60L137.08-11.60Q136.84-11.60 136.84-11.40L136.84-11.40L136.08-5.04Q136-4.84 136.24-4.84L136.24-4.84L144.32-4.84Q144.52-4.84 144.66-4.70Q144.80-4.56 144.76-4.36L144.76-4.36L144.28-0.48Q144.24-0.28 144.10-0.14Q143.96 0 143.76 0L143.76 0L130.44 0Q130.24 0 130.12-0.14Q130-0.28 130.04-0.48L130.04-0.48L133.36-27.52Q133.40-27.72 133.54-27.86Q133.68-28 133.88-28L133.88-28L147.20-28Q147.40-28 147.52-27.86Q147.64-27.72 147.60-27.52L147.60-27.52L147.12-23.64Z M155.48 0.32Q152.32 0.32 150.48-1.46Q148.64-3.24 148.64-6.28L148.64-6.28Q148.64-6.68 148.72-7.56L148.72-7.56L150.32-20.52Q150.72-24.08 153.10-26.20Q155.48-28.32 159.00-28.32L159.00-28.32Q162.20-28.32 164.04-26.54Q165.88-24.76 165.88-21.72L165.88-21.72Q165.88-21.32 165.80-20.52L165.80-20.52L165.72-20.08Q165.68-19.88 165.54-19.74Q165.40-19.60 165.20-19.60L165.20-19.60L160.64-19.40Q160.20-19.40 160.24-19.84L160.24-19.84L160.36-20.88Q160.40-21.04 160.40-21.36L160.40-21.36Q160.40-22.32 159.86-22.90Q159.32-23.48 158.40-23.48L158.40-23.48Q157.40-23.48 156.68-22.76Q155.96-22.04 155.80-20.88L155.80-20.88L154.12-7.08Q154.08-6.92 154.08-6.64L154.08-6.64Q154.08-5.68 154.62-5.10Q155.16-4.52 156.04-4.52L156.04-4.52Q157.08-4.52 157.80-5.22Q158.52-5.92 158.68-7.08L158.68-7.08L158.80-8.16Q158.84-8.36 158.98-8.50Q159.12-8.64 159.32-8.64L159.32-8.64L163.84-8.44Q164.32-8.44 164.24-8L164.24-8L164.20-7.56Q163.76-3.96 161.36-1.82Q158.96 0.32 155.48 0.32L155.48 0.32Z M185.88-28Q186.08-28 186.20-27.86Q186.32-27.72 186.28-27.52L186.28-27.52L185.80-23.64Q185.76-23.44 185.62-23.30Q185.48-23.16 185.28-23.16L185.28-23.16L180.40-23.16Q180.32-23.16 180.26-23.10Q180.20-23.04 180.20-22.96L180.20-22.96L177.44-0.48Q177.40-0.28 177.26-0.14Q177.12 0 176.92 0L176.92 0L172.36 0Q172.16 0 172.04-0.14Q171.92-0.28 171.96-0.48L171.96-0.48L174.72-22.96Q174.80-23.16 174.56-23.16L174.56-23.16L169.92-23.16Q169.48-23.16 169.48-23.64L169.48-23.64L169.96-27.52Q170.00-27.72 170.14-27.86Q170.28-28 170.48-28L170.48-28L185.88-28Z"/></g>
</svg>
</g></g><g filter="url(#a7IyiasrVt)"><g opacity="1" transform="rotate(-4 195.5969 226.602)">
<svg width="1056.1541" height="163.2399" x="195.5969" y="226.602" version="1.1" preserveAspectRatio="none" viewBox="0.99 -28.32 185.29999999999998 28.64">
  <g transform="matrix(1 0 0 1 0 0)" class="background"><path id="id-D6z1nYkh10" d="M1.40 0Q1.20 0 1.08-0.14Q0.96-0.28 1-0.48L1-0.48L4.32-27.52Q4.36-27.72 4.50-27.86Q4.64-28 4.84-28L4.84-28L9.36-28Q9.80-28 9.80-27.52L9.80-27.52L6.48-0.48Q6.44-0.28 6.28-0.14Q6.12 0 5.92 0L5.92 0L1.40 0Z M18.48 0.32Q15.24 0.32 13.38-1.46Q11.52-3.24 11.52-6.32L11.52-6.32Q11.52-6.72 11.60-7.60L11.60-7.60L13.16-20.40Q13.60-24 16-26.16Q18.40-28.32 21.96-28.32L21.96-28.32Q25.20-28.32 27.08-26.54Q28.96-24.76 28.96-21.68L28.96-21.68Q28.96-21.28 28.88-20.40L28.88-20.40L27.32-7.60Q26.88-4 24.46-1.84Q22.04 0.32 18.48 0.32L18.48 0.32ZM19.04-4.52Q20.16-4.52 20.90-5.30Q21.64-6.08 21.80-7.36L21.80-7.36L23.44-20.64Q23.48-20.80 23.48-21.12L23.48-21.12Q23.48-22.20 22.92-22.84Q22.36-23.48 21.40-23.48L21.40-23.48Q20.32-23.48 19.58-22.70Q18.84-21.92 18.68-20.64L18.68-20.64L17.04-7.36Q17-7.20 17-6.88L17-6.88Q17-5.80 17.56-5.16Q18.12-4.52 19.04-4.52L19.04-4.52Z M48.80-28Q49-28 49.12-27.86Q49.24-27.72 49.20-27.52L49.20-27.52L48.72-23.64Q48.68-23.44 48.54-23.30Q48.40-23.16 48.20-23.16L48.20-23.16L43.32-23.16Q43.24-23.16 43.18-23.10Q43.12-23.04 43.12-22.96L43.12-22.96L40.36-0.48Q40.32-0.28 40.18-0.14Q40.04 0 39.84 0L39.84 0L35.28 0Q35.08 0 34.96-0.14Q34.84-0.28 34.88-0.48L34.88-0.48L37.64-22.96Q37.72-23.16 37.48-23.16L37.48-23.16L32.84-23.16Q32.40-23.16 32.40-23.64L32.40-23.64L32.88-27.52Q32.92-27.72 33.06-27.86Q33.20-28 33.40-28L33.40-28L48.80-28Z M56.20 0.32Q53.04 0.32 51.20-1.46Q49.36-3.24 49.36-6.28L49.36-6.28Q49.36-6.68 49.44-7.56L49.44-7.56L51.04-20.52Q51.44-24.08 53.82-26.20Q56.20-28.32 59.72-28.32L59.72-28.32Q62.92-28.32 64.76-26.54Q66.60-24.76 66.60-21.72L66.60-21.72Q66.60-21.32 66.52-20.52L66.52-20.52L66.44-20.08Q66.40-19.88 66.26-19.74Q66.12-19.60 65.92-19.60L65.92-19.60L61.36-19.40Q60.92-19.40 60.96-19.84L60.96-19.84L61.08-20.88Q61.12-21.04 61.12-21.36L61.12-21.36Q61.12-22.32 60.58-22.90Q60.04-23.48 59.12-23.48L59.12-23.48Q58.12-23.48 57.40-22.76Q56.68-22.04 56.52-20.88L56.52-20.88L54.84-7.08Q54.80-6.92 54.80-6.64L54.80-6.64Q54.80-5.68 55.34-5.10Q55.88-4.52 56.76-4.52L56.76-4.52Q57.80-4.52 58.52-5.22Q59.24-5.92 59.40-7.08L59.40-7.08L59.52-8.16Q59.56-8.36 59.70-8.50Q59.84-8.64 60.04-8.64L60.04-8.64L64.56-8.44Q65.04-8.44 64.96-8L64.96-8L64.92-7.56Q64.48-3.96 62.08-1.82Q59.68 0.32 56.20 0.32L56.20 0.32Z M75.52 0.32Q72.28 0.32 70.42-1.46Q68.56-3.24 68.56-6.32L68.56-6.32Q68.56-6.72 68.64-7.60L68.64-7.60L70.20-20.40Q70.64-24 73.04-26.16Q75.44-28.32 79.00-28.32L79.00-28.32Q82.24-28.32 84.12-26.54Q86.00-24.76 86.00-21.68L86.00-21.68Q86.00-21.28 85.92-20.40L85.92-20.40L84.36-7.60Q83.92-4 81.50-1.84Q79.08 0.32 75.52 0.32L75.52 0.32ZM76.08-4.52Q77.20-4.52 77.94-5.30Q78.68-6.08 78.84-7.36L78.84-7.36L80.48-20.64Q80.52-20.80 80.52-21.12L80.52-21.12Q80.52-22.20 79.96-22.84Q79.40-23.48 78.44-23.48L78.44-23.48Q77.36-23.48 76.62-22.70Q75.88-21.92 75.72-20.64L75.72-20.64L74.08-7.36Q74.04-7.20 74.04-6.88L74.04-6.88Q74.04-5.80 74.60-5.16Q75.16-4.52 76.08-4.52L76.08-4.52Z M88.16 0Q87.96 0 87.84-0.14Q87.72-0.28 87.76-0.48L87.76-0.48L91.08-27.52Q91.12-27.72 91.26-27.86Q91.40-28 91.60-28L91.60-28L96.48-28Q96.84-28 96.92-27.60L96.92-27.60L100.12-12.64Q100.12-12.52 100.22-12.54Q100.32-12.56 100.36-12.68L100.36-12.68L102.16-27.52Q102.20-27.72 102.34-27.86Q102.48-28 102.68-28L102.68-28L107.16-28Q107.36-28 107.48-27.86Q107.60-27.72 107.56-27.52L107.56-27.52L104.24-0.48Q104.20-0.28 104.06-0.14Q103.92 0 103.72 0L103.72 0L98.80 0Q98.40 0 98.32-0.40L98.32-0.40L95.16-15.40Q95.16-15.52 95.06-15.52Q94.96-15.52 94.92-15.40L94.92-15.40L93.16-0.48Q93.12-0.28 92.96-0.14Q92.80 0 92.60 0L92.60 0L88.16 0Z M109.32 0Q109.12 0 109.00-0.14Q108.88-0.28 108.92-0.48L108.92-0.48L112.24-27.52Q112.28-27.72 112.42-27.86Q112.56-28 112.76-28L112.76-28L117.64-28Q118.00-28 118.08-27.60L118.08-27.60L121.28-12.64Q121.28-12.52 121.38-12.54Q121.48-12.56 121.52-12.68L121.52-12.68L123.32-27.52Q123.36-27.72 123.50-27.86Q123.64-28 123.84-28L123.84-28L128.32-28Q128.52-28 128.64-27.86Q128.76-27.72 128.72-27.52L128.72-27.52L125.40-0.48Q125.36-0.28 125.22-0.14Q125.08 0 124.88 0L124.88 0L119.96 0Q119.56 0 119.48-0.40L119.48-0.40L116.32-15.40Q116.32-15.52 116.22-15.52Q116.12-15.52 116.08-15.40L116.08-15.40L114.32-0.48Q114.28-0.28 114.12-0.14Q113.96 0 113.76 0L113.76 0L109.32 0Z M147.12-23.64Q147.08-23.44 146.94-23.30Q146.80-23.16 146.60-23.16L146.60-23.16L138.48-23.16Q138.28-23.16 138.28-22.96L138.28-22.96L137.48-16.64Q137.48-16.44 137.64-16.44L137.64-16.44L142.32-16.44Q142.52-16.44 142.64-16.30Q142.76-16.16 142.72-15.96L142.72-15.96L142.24-12.08Q142.20-11.88 142.06-11.74Q141.92-11.60 141.72-11.60L141.72-11.60L137.08-11.60Q136.84-11.60 136.84-11.40L136.84-11.40L136.08-5.04Q136-4.84 136.24-4.84L136.24-4.84L144.32-4.84Q144.52-4.84 144.66-4.70Q144.80-4.56 144.76-4.36L144.76-4.36L144.28-0.48Q144.24-0.28 144.10-0.14Q143.96 0 143.76 0L143.76 0L130.44 0Q130.24 0 130.12-0.14Q130-0.28 130.04-0.48L130.04-0.48L133.36-27.52Q133.40-27.72 133.54-27.86Q133.68-28 133.88-28L133.88-28L147.20-28Q147.40-28 147.52-27.86Q147.64-27.72 147.60-27.52L147.60-27.52L147.12-23.64Z M155.48 0.32Q152.32 0.32 150.48-1.46Q148.64-3.24 148.64-6.28L148.64-6.28Q148.64-6.68 148.72-7.56L148.72-7.56L150.32-20.52Q150.72-24.08 153.10-26.20Q155.48-28.32 159.00-28.32L159.00-28.32Q162.20-28.32 164.04-26.54Q165.88-24.76 165.88-21.72L165.88-21.72Q165.88-21.32 165.80-20.52L165.80-20.52L165.72-20.08Q165.68-19.88 165.54-19.74Q165.40-19.60 165.20-19.60L165.20-19.60L160.64-19.40Q160.20-19.40 160.24-19.84L160.24-19.84L160.36-20.88Q160.40-21.04 160.40-21.36L160.40-21.36Q160.40-22.32 159.86-22.90Q159.32-23.48 158.40-23.48L158.40-23.48Q157.40-23.48 156.68-22.76Q155.96-22.04 155.80-20.88L155.80-20.88L154.12-7.08Q154.08-6.92 154.08-6.64L154.08-6.64Q154.08-5.68 154.62-5.10Q155.16-4.52 156.04-4.52L156.04-4.52Q157.08-4.52 157.80-5.22Q158.52-5.92 158.68-7.08L158.68-7.08L158.80-8.16Q158.84-8.36 158.98-8.50Q159.12-8.64 159.32-8.64L159.32-8.64L163.84-8.44Q164.32-8.44 164.24-8L164.24-8L164.20-7.56Q163.76-3.96 161.36-1.82Q158.96 0.32 155.48 0.32L155.48 0.32Z M185.88-28Q186.08-28 186.20-27.86Q186.32-27.72 186.28-27.52L186.28-27.52L185.80-23.64Q185.76-23.44 185.62-23.30Q185.48-23.16 185.28-23.16L185.28-23.16L180.40-23.16Q180.32-23.16 180.26-23.10Q180.20-23.04 180.20-22.96L180.20-22.96L177.44-0.48Q177.40-0.28 177.26-0.14Q177.12 0 176.92 0L176.92 0L172.36 0Q172.16 0 172.04-0.14Q171.92-0.28 171.96-0.48L171.96-0.48L174.72-22.96Q174.80-23.16 174.56-23.16L174.56-23.16L169.92-23.16Q169.48-23.16 169.48-23.64L169.48-23.64L169.96-27.52Q170.00-27.72 170.14-27.86Q170.28-28 170.48-28L170.48-28L185.88-28Z"/></g>
</svg>
</g></g></svg></svg>