<svg version="1.1" preserveAspectRatio="none" xmlns="http://www.w3.org/2000/svg" width="500" height="500" viewBox="0 0 500 500"><rect width="100%" height="100%" fill="#FFFFFF" fill-opacity="1"/><svg viewBox="43.0762 84.0906 380.1688 197.7778" width="333" height="173.2388544246661" x="83.5px" y="163.3806px" xmlns="http://www.w3.org/2000/svg" xmlns:xlink="http://www.w3.org/1999/xlink" preserveAspectRatio="none"><defs></defs><style>.companyName {fill:#1C1C1C;fill-opacity:1;}.icon1 {fill:#1C1C1C;fill-opacity:1;}.icon2 {fill:#BAAE57;fill-opacity:1;}.icon3 {fill:#E192BB;fill-opacity:1;}.icon3-str {stroke:#E192BB;stroke-opacity:1;}</style><g opacity="1" transform="rotate(0 43.0762 241.8684)">
<svg width="380.1688" height="40" x="43.0762" y="241.8684" version="1.1" preserveAspectRatio="none" viewBox="0.8 -27.24 264.6 27.839999999999996">
  <g transform="matrix(1 0 0 1 0 0)" class="companyName"><path id="id-D6z1nYkh13" d="M21.96-15.60L21.16-15.60Q21.16-19.16 19.98-20.38Q18.80-21.60 15.56-21.60L15.56-21.60L14.36-21.60L14.36-0.80L17.16-0.80L17.16 0L5.56 0L5.56-0.80L8.36-0.80L8.36-21.60L7.16-21.60Q3.96-21.60 2.78-20.38Q1.60-19.16 1.60-15.60L1.60-15.60L0.80-15.60L0.80-22.40L21.96-22.40L21.96-15.60Z M42.04-8L42.04-8L29.96-8Q30.36-0.96 35.44-0.96L35.44-0.96Q36.80-0.96 38.54-1.60Q40.28-2.24 41.08-3.40L41.08-3.40L41.64-3Q40.76-1.52 38.64-0.56Q36.52 0.40 34.42 0.40Q32.32 0.40 30.64-0.02Q28.96-0.44 27.36-1.44Q25.76-2.44 24.86-4.44Q23.96-6.44 23.96-9.28L23.96-9.28Q23.96-14.12 26.64-16.46Q29.32-18.80 33.14-18.80Q36.96-18.80 39.50-16.24Q42.04-13.68 42.04-8ZM29.92-9.24L29.92-8.80L36.44-8.80Q36.44-12.48 35.66-15.24Q34.88-18 33.16-18Q31.44-18 30.68-15.34Q29.92-12.68 29.92-9.24L29.92-9.24Z M44.56-9.20L44.56-9.20Q44.56-13.92 47.32-16.36Q50.08-18.80 54.34-18.80Q58.60-18.80 60.68-16.66Q62.76-14.52 62.16-12.24L62.16-12.24Q61.84-11 60.82-10.42Q59.80-9.84 58.60-10.12L58.60-10.12Q56.08-10.72 56.08-13.04L56.08-13.04Q56.08-13.64 56.22-14.86Q56.36-16.08 56.32-16.64Q56.28-17.20 56.08-17.52L56.08-17.52Q55.68-18.20 54.20-18.04L54.20-18.04Q50.60-17.48 50.60-9.22Q50.60-0.96 56.48-0.96L56.48-0.96Q57.84-0.96 59.24-1.68Q60.64-2.40 61.32-3.40L61.32-3.40L61.88-3Q60.96-1.48 59.12-0.56Q57.28 0.36 55 0.36L55 0.36Q44.56 0.36 44.56-9.20Z M86.08-11.12L86.08-0.80L88.08-0.80L88.08 0L78.08 0L78.08-0.80L80.08-0.80L80.08-12Q80.08-14.84 79.24-16.04Q78.40-17.24 76.72-17.24L76.72-17.24Q74.44-17.24 73.08-14.84L73.08-14.84L73.08-0.80L75.08-0.80L75.08 0L65.08 0L65.08-0.80L67.08-0.80L67.08-26L65.08-26L65.08-26.80L73.08-26.80L73.08-16.32Q73.84-17.40 75.44-18.12Q77.04-18.84 78.96-18.84L78.96-18.84Q86.08-18.84 86.08-11.12L86.08-11.12Z M92.48 0L92.48 0L91.68 0L91.68-9.32L92.48-9.32Q92.48-5.56 95.18-2.92Q97.88-0.28 101.76-0.28L101.76-0.28Q103.36-0.28 104.34-1.22Q105.32-2.16 105.32-3.72L105.32-3.72Q105.32-5.48 103.04-6.72L103.04-6.72Q101.80-7.36 98.76-8.74Q95.72-10.12 94.48-11.08L94.48-11.08Q92-13 92.30-16.16Q92.60-19.32 94.68-21.06Q96.76-22.80 99.38-22.80Q102-22.80 104.10-22.10Q106.20-21.40 106.48-21.40L106.48-21.40Q107.28-21.40 107.28-22.80L107.28-22.80L108.08-22.80L108.08-15.48L107.28-15.48Q107.28-18.36 105.16-20.18Q103.04-22 99.72-22L99.72-22Q98.24-22 97.40-21.14Q96.56-20.28 96.56-19.24Q96.56-18.20 96.84-17.64Q97.12-17.08 97.82-16.62Q98.52-16.16 99.04-15.88Q99.56-15.60 100.70-15.12Q101.84-14.64 102.28-14.44L102.28-14.44Q104.48-13.44 104.88-13.26Q105.28-13.08 106.04-12.68Q106.80-12.28 107.18-11.96Q107.56-11.64 108.16-11.16Q108.76-10.68 109.04-10.18Q109.32-9.68 109.60-9.04L109.60-9.04Q110.16-7.76 110-6.04L110-6.04Q109.68-2.80 107.58-1.10Q105.48 0.60 101.92 0.60L101.92 0.60Q98.72 0.60 95.56-1.04L95.56-1.04Q94.48-1.60 93.96-1.60L93.96-1.60Q92.48-1.60 92.48 0Z M119.80-2.42Q120.68-0.40 122.84-0.40Q125-0.40 125.92-2.44Q126.84-4.48 126.84-9.18Q126.84-13.88 125.92-15.94Q125-18 122.84-18Q120.68-18 119.80-15.94Q118.92-13.88 118.92-9.16Q118.92-4.44 119.80-2.42ZM122.76 0.40Q118.96 0.40 115.88-2.08Q112.80-4.56 112.80-9.12L112.80-9.12Q112.80-11.56 113.70-13.48Q114.60-15.40 116.10-16.52Q117.60-17.64 119.32-18.22Q121.04-18.80 122.84-18.80Q124.64-18.80 126.38-18.22Q128.12-17.64 129.62-16.52Q131.12-15.40 132.04-13.48Q132.96-11.56 132.96-9.16Q132.96-6.76 132.04-4.88Q131.12-3 129.60-1.88L129.60-1.88Q126.56 0.40 122.76 0.40Z M143.76-26.80L143.76-0.80L145.76-0.80L145.76 0L135.76 0L135.76-0.80L137.76-0.80L137.76-26L135.76-26L135.76-26.80L143.76-26.80Z M170.36 0L162.36 0L162.36-2.12Q161.60-1.04 159.98-0.30Q158.36 0.44 156.48 0.44L156.48 0.44Q149.36 0.44 149.36-7.28L149.36-7.28L149.36-17.60L147.36-17.60L147.36-18.40L155.36-18.40L155.36-6.40Q155.36-3.56 156.20-2.36Q157.04-1.16 158.72-1.16L158.72-1.16Q160.96-1.16 162.36-3.56L162.36-3.56L162.36-17.60L160.36-17.60L160.36-18.40L168.36-18.40L168.36-0.80L170.36-0.80L170.36 0Z M185.16-17.60L180.52-17.60L180.52-7.84Q180.52-4.40 180.80-3.66Q181.08-2.92 181.40-2.40L181.40-2.40Q182-1.36 183.50-1.36Q185-1.36 185.60-1.76L185.60-1.76L185.60-0.96Q183.68 0.40 181.40 0.40L181.40 0.40Q178.04 0.40 176.28-1.20Q174.52-2.80 174.52-6.92L174.52-6.92L174.52-17.60L171.56-17.60L171.56-18.40L174.52-18.40Q176.44-18.72 177.92-20.26Q179.40-21.80 179.96-24.52L179.96-24.52L180.52-24.52L180.52-18.40L185.16-18.40L185.16-17.60Z M195.60-18.40L195.60-0.80L197.60-0.80L197.60 0L187.60 0L187.60-0.80L189.60-0.80L189.60-17.60L188-17.60L188-18.40L195.60-18.40ZM195.96-23.70Q195.96-22.24 194.94-21.22Q193.92-20.20 192.46-20.20Q191-20.20 189.96-21.22Q188.92-22.24 188.92-23.70Q188.92-25.16 189.96-26.20Q191-27.24 192.46-27.24Q193.92-27.24 194.94-26.20Q195.96-25.16 195.96-23.70Z M207-2.42Q207.88-0.40 210.04-0.40Q212.20-0.40 213.12-2.44Q214.04-4.48 214.04-9.18Q214.04-13.88 213.12-15.94Q212.20-18 210.04-18Q207.88-18 207-15.94Q206.12-13.88 206.12-9.16Q206.12-4.44 207-2.42ZM209.96 0.40Q206.16 0.40 203.08-2.08Q200-4.56 200-9.12L200-9.12Q200-11.56 200.90-13.48Q201.80-15.40 203.30-16.52Q204.80-17.64 206.52-18.22Q208.24-18.80 210.04-18.80Q211.84-18.80 213.58-18.22Q215.32-17.64 216.82-16.52Q218.32-15.40 219.24-13.48Q220.16-11.56 220.16-9.16Q220.16-6.76 219.24-4.88Q218.32-3 216.80-1.88L216.80-1.88Q213.76 0.40 209.96 0.40Z M243.96-11.12L243.96-0.80L245.96-0.80L245.96 0L235.96 0L235.96-0.80L237.96-0.80L237.96-12Q237.96-14.84 237.12-16.04Q236.28-17.24 234.60-17.24L234.60-17.24Q232.32-17.24 230.96-14.84L230.96-14.84L230.96-0.80L232.96-0.80L232.96 0L222.96 0L222.96-0.80L224.96-0.80L224.96-17.60L222.96-17.60L222.96-18.40L230.96-18.40L230.96-16.32Q231.72-17.36 233.34-18.10Q234.96-18.84 236.84-18.84L236.84-18.84Q243.96-18.84 243.96-11.12L243.96-11.12Z M257.56-0.32L257.56-0.32Q261.72-0.32 261.72-2.60L261.72-2.60Q261.72-3.88 260.28-4.70Q258.84-5.52 256.80-6.04Q254.76-6.56 252.78-7.24Q250.80-7.92 249.50-9.40Q248.20-10.88 248.44-13.28Q248.68-15.68 250.90-17.24Q253.12-18.80 256.38-18.80Q259.64-18.80 261.64-17.76Q263.64-16.72 263.88-14.96L263.88-14.96Q264.04-13.88 263.54-12.96Q263.04-12.04 261.90-12Q260.76-11.96 260.02-12.60Q259.28-13.24 259.32-14.08Q259.36-14.92 259.96-15.58Q260.56-16.24 260.56-16.64L260.56-16.64Q260.56-17.32 259.26-17.66Q257.96-18 256.26-18Q254.56-18 253.48-17.24Q252.40-16.48 252.40-15.36Q252.40-14.24 253.74-13.44Q255.08-12.64 257-12.14Q258.92-11.64 260.82-11.02Q262.72-10.40 264.06-9.04Q265.40-7.68 265.40-5.60L265.40-5.60Q265.40-2.84 263.44-1.18Q261.48 0.48 257.52 0.48Q253.56 0.48 251.10-0.72Q248.64-1.92 248.40-3.80L248.40-3.80Q248.24-4.88 248.76-5.80Q249.28-6.72 250.40-6.76Q251.52-6.80 252.26-6.16Q253.00-5.52 252.96-4.68Q252.92-3.84 252.32-3.18Q251.72-2.52 251.72-2.12L251.72-2.12Q251.72-1.32 253.58-0.82Q255.44-0.32 257.56-0.32Z"/></g>
</svg>
</g><g opacity="1" transform="rotate(0 176.1352 84.0906)">
<svg width="114.0508" height="131.7778" x="176.1352" y="84.0906" version="1.1" preserveAspectRatio="none" viewBox="11.904987335205078 6.5 76.19003295898438 88.03240966796875">
  <g transform="matrix(1 0 0 1 0 0)" class="icon1"><polygon points="76.5646667,21.8386002 65.037529,28.4960899 76.5657806,35.152462 76.5657806,48.4797363 88.0950089,41.8233643   88.0950089,28.4960899 "></polygon><polygon points="11.9049873,28.4960899 23.4332409,35.1535797 23.4332409,48.4819717 34.9626122,41.824482 34.9626122,28.4960899   23.4319839,21.8408337 "></polygon><polygon points="38.4701424,13.156373 49.9995117,19.8138638 49.9995117,33.1411362 61.5277634,26.4847641 61.5277634,13.156373   49.998394,6.5 "></polygon><polygon points="38.4701424,43.9028511 49.9995117,50.5603409 49.9995117,63.8876152 61.5277634,57.2301254 61.5277634,43.9028511   49.998394,37.246479 "></polygon><polygon points="38.4701424,74.5487595 49.9995117,81.2051392 49.9995117,94.5324097 61.5277634,87.8760376 61.5277634,74.5487595   49.998394,67.8912735 "></polygon><polygon points="65.037529,59.2090454 76.5657806,65.866539 76.5657806,79.192688 88.0950089,72.535202 88.0950089,59.2090454   76.5646667,52.5515556 "></polygon><polygon points="11.9049873,59.2090454 23.4332409,65.866539 23.4332409,79.1938095 34.9626122,72.5363159 34.9626122,59.2090454   23.4319839,52.5526733 "></polygon></g>
</svg>
</g></svg></svg>