<svg version="1.1" preserveAspectRatio="none" xmlns="http://www.w3.org/2000/svg" width="500" height="500" viewBox="0 0 500 500"><rect width="100%" height="100%" fill="#1C1C1C" fill-opacity="1"/><svg viewBox="123.2901 250.4862 391.3401 200.7138" width="333" height="170.7918391189658" x="83.5px" y="164.6041px" xmlns="http://www.w3.org/2000/svg" xmlns:xlink="http://www.w3.org/1999/xlink" preserveAspectRatio="none"><defs></defs><style>.companyName {fill:#EDEDED;fill-opacity:1;}.icon1 {fill:#EDEDED;fill-opacity:1;}.icon2 {fill:#F35F40;fill-opacity:1;}.icon3 {fill:#B2B2B1;fill-opacity:1;}.icon3-str {stroke:#B2B2B1;stroke-opacity:1;}</style><g opacity="1" transform="rotate(0 221.1252 250.4862)">
<svg width="195.67" height="100.7138" x="221.1252" y="250.4862" version="1.1" preserveAspectRatio="none" viewBox="1.125 22.41699981689453 87.75 45.16600036621094">
  <g transform="matrix(1 0 0 1 0 0)" class="icon1"><path d="M67.791,32.192L59.36,46.345L45.105,22.417L30.746,46.521l-8.537-14.329L1.125,67.583h17.073h25.095h3.414h25.305h16.863  L67.791,32.192z M4.196,65.837l18.012-30.235l7.521,12.624L19.238,65.837H4.196z M21.27,65.837l9.476-15.906l9.476,15.906H21.27z   M42.253,65.837L31.761,48.226l13.344-22.398L58.344,48.05L47.747,65.837H42.253z M49.779,65.837l9.581-16.082l9.581,16.082H49.779z   M70.972,65.837L60.375,48.05l7.416-12.448l18.012,30.235H70.972z"></path></g>
</svg>
</g><g opacity="1" transform="rotate(0 123.2901 391.2)">
<svg width="391.3401" height="60" x="123.2901" y="391.2" version="1.1" preserveAspectRatio="none" viewBox="0.52 -34.68 228.27999999999997 35">
  <g transform="matrix(1 0 0 1 0 0)" class="companyName"><path id="id-D6z1nYkh11" d="M12.60 0L4.20 0L0.52-34.36L7.24-34.36L9.16-12.68L11.08-34.36L17.48-34.36L19.32-12.68L21.16-34.36L27.96-34.36L24.20 0L15.96 0L14.24-16.56L12.60 0Z M47 0L32.80 0L32.80-34.36L46.56-34.36L46.56-27.72L39.80-27.72L39.80-21.04L46.28-21.04L46.28-14.56L39.80-14.56L39.80-6.68L47-6.68L47 0Z M52.08 0L52.08-34.36L61.40-34.36Q65.16-34.36 66.86-32.52Q68.56-30.68 68.56-26.52L68.56-26.52L68.56-25Q68.56-20.08 65.04-19.12L65.04-19.12Q67.20-18.56 68.08-16.52Q68.96-14.48 68.96-11.12L68.96-11.12Q68.96-5.64 67.32-2.82Q65.68 0 61.40 0L61.40 0L52.08 0ZM58.80-21.44L60.20-21.44Q61.08-21.44 61.40-22.10Q61.72-22.76 61.72-23.96L61.72-23.96L61.72-27.40Q61.72-29.08 60.24-29.08L60.24-29.08L58.80-29.08L58.80-21.44ZM59.48-6.04Q62.16-6.04 62.16-8.60L62.16-8.60L62.16-12.88Q62.16-14.44 61.70-15.24Q61.24-16.04 60.08-16.04L60.08-16.04L58.80-16.04L58.80-6.08L59.48-6.04Z M82.04 0.32Q78.28 0.32 76.02-2.04Q73.76-4.40 73.76-8.52L73.76-8.52L73.76-24.36Q73.76-29.48 75.80-32.08Q77.84-34.68 82.20-34.68L82.20-34.68Q86-34.68 88.32-32.60Q90.64-30.52 90.64-26.60L90.64-26.60L90.64-20.68L83.80-20.68L83.80-25.76Q83.80-27.24 83.44-27.80Q83.08-28.36 82.20-28.36L82.20-28.36Q81.28-28.36 80.94-27.72Q80.60-27.08 80.60-25.84L80.60-25.84L80.60-8.60Q80.60-7.24 81-6.62Q81.40-6 82.20-6L82.20-6Q83.80-6 83.80-8.60L83.80-8.60L83.80-14.80L90.72-14.80L90.72-8.32Q90.72 0.32 82.04 0.32L82.04 0.32Z M95.80 0L95.80-34.36L106.36-34.36Q108.88-34.36 110.26-33.22Q111.64-32.08 112.12-30.02Q112.60-27.96 112.60-24.76L112.60-24.76Q112.60-21.84 111.84-20.20Q111.08-18.56 109.20-17.92L109.20-17.92Q110.76-17.60 111.46-16.36Q112.16-15.12 112.16-13L112.16-13L112.08 0L105.36 0L105.36-13.44Q105.36-14.88 104.80-15.28Q104.24-15.68 102.76-15.68L102.76-15.68L102.76 0L95.80 0ZM102.80-21.64L104.44-21.64Q105.88-21.64 105.88-24.76L105.88-24.76Q105.88-26.12 105.76-26.80Q105.64-27.48 105.32-27.74Q105.00-28 104.40-28L104.40-28L102.80-28L102.80-21.64Z M131.88 0L117.68 0L117.68-34.36L131.44-34.36L131.44-27.72L124.68-27.72L124.68-21.04L131.16-21.04L131.16-14.56L124.68-14.56L124.68-6.68L131.88-6.68L131.88 0Z M142.72 0L136.04 0L139.36-34.36L151-34.36L154.28 0L147.76 0L147.28-5.56L143.12-5.56L142.72 0ZM144.92-28.52L143.64-11.04L146.76-11.04L145.24-28.52L144.92-28.52Z M169 0L162.12 0L162.12-27.76L158.04-27.76L158.04-34.36L173.08-34.36L173.08-27.76L169-27.76L169 0Z M184.12 0L177.48 0L177.48-34.36L184.12-34.36L184.12 0Z M197.88 0.32Q193.72 0.32 191.56-2.22Q189.40-4.76 189.40-9.36L189.40-9.36L189.40-25.72Q189.40-30.16 191.56-32.42Q193.72-34.68 197.88-34.68L197.88-34.68Q202.04-34.68 204.20-32.42Q206.36-30.16 206.36-25.72L206.36-25.72L206.36-9.36Q206.36-4.72 204.20-2.20Q202.04 0.32 197.88 0.32L197.88 0.32ZM197.88-6Q198.80-6 199.12-6.80Q199.44-7.60 199.44-9.04L199.44-9.04L199.44-25.84Q199.44-26.96 199.14-27.66Q198.84-28.36 197.92-28.36L197.92-28.36Q196.20-28.36 196.20-25.76L196.20-25.76L196.20-9Q196.20-7.52 196.56-6.76Q196.92-6 197.88-6L197.88-6Z M218.64 0L211.92 0L211.92-34.36L219.00-34.36L222.16-17.92L222.16-34.36L228.80-34.36L228.80 0L222.08 0L218.64-17.20L218.64 0Z"/></g>
</svg>
</g></svg></svg>