<svg version="1.1" preserveAspectRatio="none" xmlns="http://www.w3.org/2000/svg" width="500" height="500" viewBox="0 0 500 500"><rect width="100%" height="100%" fill="#EFEFEF" fill-opacity="1"/><svg viewBox="97.127 241.0533 386.5968 50" width="333" height="43.06812679256528" x="83.5px" y="228.4659px" xmlns="http://www.w3.org/2000/svg" xmlns:xlink="http://www.w3.org/1999/xlink" preserveAspectRatio="none"><defs></defs><style>.companyName {fill:#0C0C0C;fill-opacity:1;}.icon3-str {stroke:#929292;stroke-opacity:1;}</style><g opacity="1" transform="rotate(0 97.127 241.0533)">
<svg width="386.5968" height="50" x="97.127" y="241.0533" version="1.1" preserveAspectRatio="none" viewBox="0.4 -27.6 218.04 28.200000000000003">
  <g transform="matrix(1 0 0 1 0 0)" class="companyName"><path id="id-D6z1nYkh6" d="M36.72-3.88L9.36-3.88L9.36-9.88L36.72-9.88L36.72-3.88ZM11.40 0L0.40 0L17.56-25.60L28.68-25.60L46 0L35 0L20.16-22.92L26.12-22.92L11.40 0Z M49.80 0L49.80-25.60L59.80-25.60L59.80 0L49.80 0Z M66-25.60L76-25.60L76-7.60L99.32-7.60L99.32 0L66 0L66-25.60Z M116.44 0.56L116.44 0.56Q112.12 0.56 108.76-0.66Q105.40-1.88 103.46-4.20Q101.52-6.52 101.52-9.80L101.52-9.80Q101.52-13.24 103.46-15.56Q105.40-17.88 108.76-19.04Q112.12-20.20 116.44-20.20L116.44-20.20Q121.24-20.20 124.74-18.90Q128.24-17.60 130.14-15.26Q132.04-12.92 132.04-9.80L132.04-9.80Q132.04-7.48 130.96-5.58Q129.88-3.68 127.84-2.30Q125.80-0.92 122.92-0.18Q120.04 0.56 116.44 0.56ZM120.04-5.52L120.04-5.52Q123.08-5.52 125.62-5.90Q128.16-6.28 129.70-7.20Q131.24-8.12 131.24-9.80L131.24-9.80Q131.24-11.52 129.70-12.44Q128.16-13.36 125.62-13.72Q123.08-14.08 120.04-14.08L120.04-14.08Q115.96-14.08 113.72-13.02Q111.48-11.96 111.48-9.80L111.48-9.80Q111.48-8.40 112.48-7.44Q113.48-6.48 115.40-6Q117.32-5.52 120.04-5.52ZM131.24-7.60L131.24-19.60L140.84-19.60L140.84 0L131.80 0Q131.80 0 131.66-0.92Q131.52-1.84 131.38-3.56Q131.24-5.28 131.24-7.60L131.24-7.60Z M169.84 0.56L169.84 0.56Q166.24 0.56 163.36-0.18Q160.48-0.92 158.44-2.30Q156.40-3.68 155.32-5.58Q154.24-7.48 154.24-9.80L154.24-9.80Q154.24-12.12 155.32-14.04Q156.40-15.96 158.44-17.34Q160.48-18.72 163.36-19.46Q166.24-20.20 169.84-20.20L169.84-20.20Q174.16-20.20 177.54-19.04Q180.92-17.88 182.84-15.56Q184.76-13.24 184.76-9.80L184.76-9.80Q184.76-6.52 182.84-4.20Q180.92-1.88 177.54-0.66Q174.16 0.56 169.84 0.56ZM166.24-5.52L166.24-5.52Q168.96-5.52 170.88-6Q172.80-6.48 173.80-7.44Q174.80-8.40 174.80-9.80L174.80-9.80Q174.80-11.96 172.56-13.02Q170.32-14.08 166.24-14.08L166.24-14.08Q163.20-14.08 160.66-13.72Q158.12-13.36 156.58-12.44Q155.04-11.52 155.04-9.80L155.04-9.80Q155.04-8.12 156.58-7.20Q158.12-6.28 160.66-5.90Q163.20-5.52 166.24-5.52ZM145.44-27.60L155.04-27.60L155.04-7.60Q155.04-5.04 154.86-2.98Q154.68-0.92 154.48 0L154.48 0L145.44 0L145.44-27.60Z M187.76-7.04L187.76-7.04L196.60-7.04Q197.16-6 198.74-5.60Q200.32-5.20 203.28-5.20L203.28-5.20Q205.56-5.20 206.66-5.44Q207.76-5.68 208.10-6.08Q208.44-6.48 208.44-6.92L208.44-6.92Q208.44-7.60 207.70-7.86Q206.96-8.12 205.20-8.18Q203.44-8.24 200.36-8.24L200.36-8.24Q197.44-8.24 195.14-8.50Q192.84-8.76 191.24-9.34Q189.64-9.92 188.80-10.96Q187.96-12 187.96-13.56L187.96-13.56Q187.96-15.48 189.20-16.78Q190.44-18.08 192.56-18.82Q194.68-19.56 197.46-19.88Q200.24-20.20 203.28-20.20L203.28-20.20Q208.32-20.20 211.52-19.18Q214.72-18.16 216.24-16.44Q217.76-14.72 217.72-12.56L217.72-12.56L209.12-12.56Q208.68-13.60 207.46-14Q206.24-14.40 203.28-14.40L203.28-14.40Q200.48-14.40 199.22-13.98Q197.96-13.56 197.96-12.64L197.96-12.64Q197.96-12.04 198.58-11.74Q199.20-11.44 200.94-11.32Q202.68-11.20 206.04-11.20L206.04-11.20Q208.36-11.20 210.58-11.04Q212.80-10.88 214.58-10.36Q216.36-9.84 217.40-8.76Q218.44-7.68 218.44-5.80L218.44-5.80Q218.44-3.52 216.58-2.10Q214.72-0.68 211.32-0.04Q207.92 0.60 203.28 0.60L203.28 0.60Q199.24 0.60 196.46 0.08Q193.68-0.44 191.92-1.30Q190.16-2.16 189.22-3.18Q188.28-4.20 187.98-5.22Q187.68-6.24 187.76-7.04Z"/></g>
</svg>
</g></svg></svg>