<svg version="1.1" preserveAspectRatio="none" xmlns="http://www.w3.org/2000/svg" width="500" height="500" viewBox="0 0 500 500"><rect width="100%" height="100%" fill="#F5E7E0" fill-opacity="1"/><svg viewBox="33.2374 52.0511 350.2436 171.5287" width="333" height="163.08379967542587" x="83.5px" y="168.4581px" xmlns="http://www.w3.org/2000/svg" xmlns:xlink="http://www.w3.org/1999/xlink" preserveAspectRatio="none"><defs></defs><style>.companyName {fill:#C66358;fill-opacity:1;}.icon1 {fill:#C66358;fill-opacity:1;}.icon2 {fill:#E3BBA7;fill-opacity:1;}.icon3 {fill:#985A55;fill-opacity:1;}.icon3-str {stroke:#985A55;stroke-opacity:1;}</style><g opacity="1" transform="rotate(0 155.8227 52.0511)">
<svg width="105.0731" height="105.5287" x="155.8227" y="52.0511" version="1.1" preserveAspectRatio="none" viewBox="5.299999713897705 4.971353530883789 89.5154800415039 89.90364837646484">
  <g transform="matrix(1 0 0 1 0 0)" class="icon1"><g><path d="M6.9,93.7c-0.8-2.4-1.5-4.6-0.9-7c0.2-0.8,0.1-1.7,0.1-2.6c-0.2-3-0.5-6.1-0.8-9.1c0-0.1,0-0.1,0-0.2   c0.1-4.9,0.1-9.9,0.2-14.8c0.2-5.9,0.4-11.8,0.6-17.7c0.1-5.5,0.2-11.1,0.3-16.6c0.1-3.4,0.1-6.8,0.2-10.3c0.1-2.2,0.3-4.4,0.4-6.5   C7.1,5.6,9.5,4.8,12.3,5c1.1,0.1,2.3,0.5,3.4,0.5c4.5,0.3,9,0.8,13.5,0.6C34.8,5.8,40.4,6.9,46,7c7.8,0.1,15.7,0.7,23.5,1.2   c3.4,0.2,6.8,0.7,10.2,0.8C82.6,9.1,85.5,9,88.4,9c3,0,5.3,1.6,5.9,4.1c0.2,0.7,0.1,1.4,0,2.1c-0.2,2.3-0.5,4.6-0.1,6.9   c0.3,1.7,0.3,3.5,0.3,5.2c-0.1,4.5-0.3,9-0.4,13.5c0,0.9,0.2,1.9,0.3,2.8c0.1,1,0.2,2,0.2,3c-0.1,5.4-0.4,10.8-0.5,16.1   c-0.1,3.9,0,7.7-0.2,11.6c-0.3,5,0.2,9.9,0.8,14.8c0.1,0.5,0.2,1,0,1.5c-0.3,1.2-0.8,2.3-1.3,3.7c-1.2,0.9-2.9,0.5-4.6,0.4   c-2.4-0.1-4.8-0.4-7.2-0.4c-3.7-0.1-7.4-0.2-11.1-0.3c-2.8,0-5.5,0-8.3-0.1c-7-0.1-14-0.2-20.9-0.3c-4.4,0-8.7,0-13.1,0.1   c-5.5,0.1-11.1,0.2-16.6,0.3C10.1,94.1,8.5,93.9,6.9,93.7z M86.9,16.4c-1.2,0-2.6,0.1-3.9,0c-9.4-0.7-18.8-1.4-28.3-2.1   c-0.7,0-1.3,0-2,0c-1.2,0-2.5-0.1-3.7-0.2c-5.7-0.4-11.4-1-17.2-1.2c-5.2-0.3-10.5-0.2-15.7-0.3c-1,0-2,0.2-3.2,0.3   c0,2.6-0.1,4.9-0.1,7.2c0,2.5,0.3,5.1,0.3,7.6c0,2.5-0.2,5.1-0.2,7.6c0,3.4,0.3,6.8,0.4,10.2c0.2,6.2-0.9,12.5-0.4,18.7   c0.2,2.3-0.3,4.6-0.4,6.9c-0.2,4.6,0.6,9.1,0.1,13.7c0,0.3,0.1,0.5,0.3,1c1.4,0,2.7,0,4.1,0c4.6-0.2,9.3-0.7,13.9-0.5   c9.1,0.3,18.2,0.9,27.2,1.6c4.7,0.4,9.4,0.3,14.2,0c1.6-0.1,3.2-0.1,4.8,0c3,0.1,5.9,0.4,8.9,0.5c0.3,0,0.7-0.1,1.1-0.2   c0-0.7,0-1.4,0-2c-0.2-7.9-0.6-15.7-0.7-23.6c-0.1-4.2,0.2-8.4,0.2-12.7c0.1-5.2,0.1-10.5,0.2-15.7c0-2.1,0.4-4.2,0.2-6.3   c-0.3-3.3-0.8-6.6,0.1-10C87.2,16.9,87,16.8,86.9,16.4z"></path><path d="M47.3,76.3c-5.7,0.1-11.3,0.2-17,0.4c-1.2,0-2.5,0-3.7-0.1c-1.5-0.1-1.8-0.4-1.9-1.9c-0.1-2.5-0.2-5.1-0.2-7.6   c0-3.9,0.1-7.9,0.2-11.8c0-4.4,0.1-8.7,0-13.1c0-3.6-0.2-7.3-0.3-10.9c0-0.1,0-0.3,0-0.4c0.2-1,0.1-2.5,0.7-3.1   c1.1-1.1,2.6-1.9,4.3-1.9c0.7,0,1.5-0.1,2.2,0.1c5.9,1.1,11.9,0.6,17.8,0.5c4.6-0.1,9.3-0.1,13.9,0.1c2.7,0.1,5.3,0.5,8,0.8   c0.4,0,0.7,0.1,1.1,0c2.1-0.1,2.8,0.4,3.2,2.2c0.2,1,0.6,1.9,0.8,2.9c0.1,0.5,0.1,1.1,0.1,1.7c-0.2,2.3-0.6,4.6,0.2,6.9   C77,41.6,77,42.3,77,43c0,2.3,0.1,4.7,0.1,7c0,1.5-0.1,3-0.3,4.6c-0.5,5.6-1,11.3-1.6,16.9c-0.3,3.1-1.4,3.7-3.9,4.1   c-3.7,0.5-7.5,0.9-11.3,0.8C55.7,76.3,51.5,76.3,47.3,76.3C47.3,76.3,47.3,76.3,47.3,76.3z M30.5,69.4c2.7,0,5.1,0,7.4,0   c3.1,0,6.2,0.1,9.4,0.2c4.3,0,8.6,0.1,12.9,0.1c2.5,0,4.9,0,7.5,0c0.1-0.9,0.2-1.5,0.2-2.1c0.1-4.7,0.1-9.3,0.3-14   c0.3-6,0.9-12.1,1.3-18.1c0.1-0.8,0-1.5,0-2.5c-1.8-0.1-3.3-0.2-4.8-0.2c-4.2,0.1-8.4,0.5-12.6,0c-2.7-0.3-5.4-0.3-8.1-0.5   C41,32.2,38,32,35,31.7c-1.5-0.1-3-0.5-4.5,0.1c-0.1,0.6-0.2,1-0.2,1.5c0.1,4.1-0.1,8.1,0.5,12.2c0.8,5.9,0.6,11.9,0.1,17.9   C30.7,65.4,30.6,67.4,30.5,69.4z"></path><path d="M60.1,60.3c-5.5,0.1-10.7,0.1-16,0.3c-1.3,0-2.2-0.6-3-1.4c-0.3-0.3-0.3-0.9-0.3-1.4c0-2.5-0.2-5,0.1-7.4   c0.3-3.1,0.3-6.2,1.5-9.2c0.4-1,1-1.7,2.3-1.7c2.8-0.1,5.7-0.2,8.5-0.3c2.1-0.1,4.1,0.3,6,0.9c0.5,0.2,1.1,0.7,1.4,1.2   c0.3,0.8,0.5,1.7,0.5,2.5c0.1,3.8,0.2,7.7,0.1,11.5C60.9,56.9,60.4,58.4,60.1,60.3z M46.2,55.2c3.1-0.1,5.9-0.2,9.1-0.4   c0.1-3.2,0.3-6.5,0.4-10.1c-3.2,0-6.1,0-9.1,0C45.6,48.1,46.3,51.5,46.2,55.2z"></path></g></g>
</svg>
</g><g opacity="1" transform="rotate(0 33.2374 183.5798)">
<svg width="350.2436" height="40" x="33.2374" y="183.5798" version="1.1" preserveAspectRatio="none" viewBox="1.6 -27.24 315.92 36.08">
  <g transform="matrix(1 0 0 1 0 0)" class="companyName"><path id="id-D6z1nYkh16" d="M9.60-21.60L9.60-12.24L10.84-12.24Q15.68-12.24 15.68-16.84L15.68-16.84Q15.68-21.60 10.84-21.60L10.84-21.60L9.60-21.60ZM9.60-11.44L9.60-0.80L11.84-0.80Q14.24-0.80 15.64-2.04Q17.04-3.28 17.04-5.64L17.04-5.64Q17.04-8.96 15.40-10.20Q13.76-11.44 10.88-11.44L10.88-11.44L9.60-11.44ZM14.24 0L1.60 0L1.60-0.80L3.60-0.80L3.60-21.60L1.60-21.60L1.60-22.40L11.68-22.40Q16.64-22.40 18.98-20.88Q21.32-19.36 21.32-16.72L21.32-16.72Q21.32-14.60 19.94-13.26Q18.56-11.92 16.24-11.92L16.24-11.92L16.24-11.68Q19.12-11.68 21.08-10.14Q23.04-8.60 23.04-5.76Q23.04-2.92 20.76-1.46Q18.48 0 14.24 0L14.24 0Z M33.44-18.40L33.44-0.80L35.44-0.80L35.44 0L25.44 0L25.44-0.80L27.44-0.80L27.44-17.60L25.84-17.60L25.84-18.40L33.44-18.40ZM33.80-23.70Q33.80-22.24 32.78-21.22Q31.76-20.20 30.30-20.20Q28.84-20.20 27.80-21.22Q26.76-22.24 26.76-23.70Q26.76-25.16 27.80-26.20Q28.84-27.24 30.30-27.24Q31.76-27.24 32.78-26.20Q33.80-25.16 33.80-23.70Z M43.04-3.72L43.04-3.72Q43.04-2.60 44.48-2.44L44.48-2.44L51.36-2.44Q54.92-2.44 56.32-0.92Q57.72 0.60 57.30 2.84Q56.88 5.08 54.56 6.96Q52.24 8.84 48.16 8.84L48.16 8.84Q40.68 8.84 38.56 6.64L38.56 6.64Q37.76 5.76 37.88 4.58Q38 3.40 38.76 2.66Q39.52 1.92 40.48 1.64L40.48 1.64Q39.20 0.56 39.20-1.04Q39.20-2.64 40.18-3.90Q41.16-5.16 42.44-5.92L42.44-5.92Q37.84-7.60 37.84-11.96L37.84-11.96Q37.84-15.20 40.82-16.98Q43.80-18.76 47.56-18.76L47.56-18.76Q49.36-18.76 51.16-18.20L51.16-18.20Q50.24-19.44 50.24-21.16Q50.24-22.88 51.42-24.02Q52.60-25.16 54.38-25.16Q56.16-25.16 57.06-24.22Q57.96-23.28 57.96-22.12Q57.96-20.96 57.26-20.16Q56.56-19.36 55.42-19.36Q54.28-19.36 53.60-20.12Q52.92-20.88 52.92-21.66Q52.92-22.44 53.22-23.02Q53.52-23.60 53.52-23.68L53.52-23.68Q53.40-24.32 52.72-24.04Q52.04-23.76 51.54-22.90Q51.04-22.04 51.04-20.92L51.04-20.92Q51.04-18.72 53-17.40L53-17.40Q56.44-15.48 56.44-12.08Q56.44-8.68 53.60-6.94Q50.76-5.20 46.88-5.20L46.88-5.20Q45-5.20 43.56-5.60L43.56-5.60Q43.04-4.72 43.04-3.72ZM50.44-12.06Q50.44-15.48 49.64-16.72Q48.84-17.96 47.26-17.96Q45.68-17.96 44.96-16.70Q44.24-15.44 44.24-12.08Q44.24-8.72 45-7.36Q45.76-6 47.30-6Q48.84-6 49.64-7.32Q50.44-8.64 50.44-12.06ZM51.12 2.76L51.12 2.76L44.40 2.76Q42.48 2.76 41.16 2.08L41.16 2.08Q40.60 4.96 42.62 6.50Q44.64 8.04 48.16 8.04Q51.68 8.04 54 6.28L54 6.28Q55.08 5.48 55.20 4.68Q55.32 3.88 54.28 3.32Q53.24 2.76 51.12 2.76Z M70.36 0L70.36 0L60.36 0L60.36-0.80L62.36-0.80L62.36-21.60L60.36-21.60L60.36-22.40L70.36-22.40Q73.32-22.40 75.70-21.42Q78.08-20.44 79.56-18.84L79.56-18.84Q82.56-15.52 82.56-11.32L82.56-11.32Q82.56-5.64 79.56-2.82Q76.56 0 70.36 0ZM68.36-21.60L68.36-0.80Q72.68-0.80 74.60-3.14Q76.52-5.48 76.52-10.78Q76.52-16.08 74.44-18.84Q72.36-21.60 68.36-21.60L68.36-21.60Z M104.36-0.80Q103.96-0.40 102.84-0.10Q101.72 0.20 100.24 0.20L100.24 0.20Q96.96 0.20 96.12-1.76L96.12-1.76Q94.12 0.32 90.00 0.32L90.00 0.32Q87.80 0.32 86.38-0.70Q84.96-1.72 84.96-3.72L84.96-3.72Q84.96-6.40 87.04-7.86Q89.12-9.32 94.32-9.92L94.32-9.92L95.92-10.12L95.92-12.08Q95.92-15.56 95.40-16.76Q94.88-17.96 93.34-17.96Q91.80-17.96 91.36-17.54Q90.92-17.12 91.04-16.58Q91.16-16.04 91.44-15.16Q91.72-14.28 91.72-13.76L91.72-13.76Q91.72-12.52 90.86-11.66Q90.00-10.80 88.78-10.80Q87.56-10.80 86.68-11.66Q85.80-12.52 85.80-13.76L85.80-13.76Q85.80-15.80 87.90-17.26Q90.00-18.72 94.18-18.72Q98.36-18.72 100.14-17.08Q101.92-15.44 101.92-11.28L101.92-11.28L101.92-4.08Q101.92-1.96 102.44-1.42Q102.96-0.88 104.36-1.20L104.36-1.20L104.36-0.80ZM90.52-4.52Q90.72-3 91.64-2.18Q92.56-1.36 93.78-1.36Q95.00-1.36 95.92-2.56L95.92-2.56L95.92-9.36L94.48-9.16Q92.64-8.92 91.50-7.76Q90.36-6.60 90.52-4.52L90.52-4.52Z M118.76-17.60L114.12-17.60L114.12-7.84Q114.12-4.40 114.40-3.66Q114.68-2.92 115.00-2.40L115.00-2.40Q115.60-1.36 117.10-1.36Q118.60-1.36 119.20-1.76L119.20-1.76L119.20-0.96Q117.28 0.40 115.00 0.40L115.00 0.40Q111.64 0.40 109.88-1.20Q108.12-2.80 108.12-6.92L108.12-6.92L108.12-17.60L105.16-17.60L105.16-18.40L108.12-18.40Q110.04-18.72 111.52-20.26Q113.00-21.80 113.56-24.52L113.56-24.52L114.12-24.52L114.12-18.40L118.76-18.40L118.76-17.60Z M140.60-0.80Q140.20-0.40 139.08-0.10Q137.96 0.20 136.48 0.20L136.48 0.20Q133.20 0.20 132.36-1.76L132.36-1.76Q130.36 0.32 126.24 0.32L126.24 0.32Q124.04 0.32 122.62-0.70Q121.20-1.72 121.20-3.72L121.20-3.72Q121.20-6.40 123.28-7.86Q125.36-9.32 130.56-9.92L130.56-9.92L132.16-10.12L132.16-12.08Q132.16-15.56 131.64-16.76Q131.12-17.96 129.58-17.96Q128.04-17.96 127.60-17.54Q127.16-17.12 127.28-16.58Q127.40-16.04 127.68-15.16Q127.96-14.28 127.96-13.76L127.96-13.76Q127.96-12.52 127.10-11.66Q126.24-10.80 125.02-10.80Q123.80-10.80 122.92-11.66Q122.04-12.52 122.04-13.76L122.04-13.76Q122.04-15.80 124.14-17.26Q126.24-18.72 130.42-18.72Q134.60-18.72 136.38-17.08Q138.16-15.44 138.16-11.28L138.16-11.28L138.16-4.08Q138.16-1.96 138.68-1.42Q139.20-0.88 140.60-1.20L140.60-1.20L140.60-0.80ZM126.76-4.52Q126.96-3 127.88-2.18Q128.80-1.36 130.02-1.36Q131.24-1.36 132.16-2.56L132.16-2.56L132.16-9.36L130.72-9.16Q128.88-8.92 127.74-7.76Q126.60-6.60 126.76-4.52L126.76-4.52Z M144.60 0L144.60 0L143.80 0L143.80-9.32L144.60-9.32Q144.60-5.56 147.30-2.92Q150-0.28 153.88-0.28L153.88-0.28Q155.48-0.28 156.46-1.22Q157.44-2.16 157.44-3.72L157.44-3.72Q157.44-5.48 155.16-6.72L155.16-6.72Q153.92-7.36 150.88-8.74Q147.84-10.12 146.60-11.08L146.60-11.08Q144.12-13 144.42-16.16Q144.72-19.32 146.80-21.06Q148.88-22.80 151.50-22.80Q154.12-22.80 156.22-22.10Q158.32-21.40 158.60-21.40L158.60-21.40Q159.40-21.40 159.40-22.80L159.40-22.80L160.20-22.80L160.20-15.48L159.40-15.48Q159.40-18.36 157.28-20.18Q155.16-22 151.84-22L151.84-22Q150.36-22 149.52-21.14Q148.68-20.28 148.68-19.24Q148.68-18.20 148.96-17.64Q149.24-17.08 149.94-16.62Q150.64-16.16 151.16-15.88Q151.68-15.60 152.82-15.12Q153.96-14.64 154.40-14.44L154.40-14.44Q156.60-13.44 157-13.26Q157.40-13.08 158.16-12.68Q158.92-12.28 159.30-11.96Q159.68-11.64 160.28-11.16Q160.88-10.68 161.16-10.18Q161.44-9.68 161.72-9.04L161.72-9.04Q162.28-7.76 162.12-6.04L162.12-6.04Q161.80-2.80 159.70-1.10Q157.60 0.60 154.04 0.60L154.04 0.60Q150.84 0.60 147.68-1.04L147.68-1.04Q146.60-1.60 146.08-1.60L146.08-1.60Q144.60-1.60 144.60 0Z M171.92-2.42Q172.80-0.40 174.96-0.40Q177.12-0.40 178.04-2.44Q178.96-4.48 178.96-9.18Q178.96-13.88 178.04-15.94Q177.12-18 174.96-18Q172.80-18 171.92-15.94Q171.04-13.88 171.04-9.16Q171.04-4.44 171.92-2.42ZM174.88 0.40Q171.08 0.40 168-2.08Q164.92-4.56 164.92-9.12L164.92-9.12Q164.92-11.56 165.82-13.48Q166.72-15.40 168.22-16.52Q169.72-17.64 171.44-18.22Q173.16-18.80 174.96-18.80Q176.76-18.80 178.50-18.22Q180.24-17.64 181.74-16.52Q183.24-15.40 184.16-13.48Q185.08-11.56 185.08-9.16Q185.08-6.76 184.16-4.88Q183.24-3 181.72-1.88L181.72-1.88Q178.68 0.40 174.88 0.40Z M195.88-26.80L195.88-0.80L197.88-0.80L197.88 0L187.88 0L187.88-0.80L189.88-0.80L189.88-26L187.88-26L187.88-26.80L195.88-26.80Z M222.48 0L214.48 0L214.48-2.12Q213.72-1.04 212.10-0.30Q210.48 0.44 208.60 0.44L208.60 0.44Q201.48 0.44 201.48-7.28L201.48-7.28L201.48-17.60L199.48-17.60L199.48-18.40L207.48-18.40L207.48-6.40Q207.48-3.56 208.32-2.36Q209.16-1.16 210.84-1.16L210.84-1.16Q213.08-1.16 214.48-3.56L214.48-3.56L214.48-17.60L212.48-17.60L212.48-18.40L220.48-18.40L220.48-0.80L222.48-0.80L222.48 0Z M237.28-17.60L232.64-17.60L232.64-7.84Q232.64-4.40 232.92-3.66Q233.20-2.92 233.52-2.40L233.52-2.40Q234.12-1.36 235.62-1.36Q237.12-1.36 237.72-1.76L237.72-1.76L237.72-0.96Q235.80 0.40 233.52 0.40L233.52 0.40Q230.16 0.40 228.40-1.20Q226.64-2.80 226.64-6.92L226.64-6.92L226.64-17.60L223.68-17.60L223.68-18.40L226.64-18.40Q228.56-18.72 230.04-20.26Q231.52-21.80 232.08-24.52L232.08-24.52L232.64-24.52L232.64-18.40L237.28-18.40L237.28-17.60Z M247.72-18.40L247.72-0.80L249.72-0.80L249.72 0L239.72 0L239.72-0.80L241.72-0.80L241.72-17.60L240.12-17.60L240.12-18.40L247.72-18.40ZM248.08-23.70Q248.08-22.24 247.06-21.22Q246.04-20.20 244.58-20.20Q243.12-20.20 242.08-21.22Q241.04-22.24 241.04-23.70Q241.04-25.16 242.08-26.20Q243.12-27.24 244.58-27.24Q246.04-27.24 247.06-26.20Q248.08-25.16 248.08-23.70Z M259.12-2.42Q260-0.40 262.16-0.40Q264.32-0.40 265.24-2.44Q266.16-4.48 266.16-9.18Q266.16-13.88 265.24-15.94Q264.32-18 262.16-18Q260-18 259.12-15.94Q258.24-13.88 258.24-9.16Q258.24-4.44 259.12-2.42ZM262.08 0.40Q258.28 0.40 255.20-2.08Q252.12-4.56 252.12-9.12L252.12-9.12Q252.12-11.56 253.02-13.48Q253.92-15.40 255.42-16.52Q256.92-17.64 258.64-18.22Q260.36-18.80 262.16-18.80Q263.96-18.80 265.70-18.22Q267.44-17.64 268.94-16.52Q270.44-15.40 271.36-13.48Q272.28-11.56 272.28-9.16Q272.28-6.76 271.36-4.88Q270.44-3 268.92-1.88L268.92-1.88Q265.88 0.40 262.08 0.40Z M296.08-11.12L296.08-0.80L298.08-0.80L298.08 0L288.08 0L288.08-0.80L290.08-0.80L290.08-12Q290.08-14.84 289.24-16.04Q288.40-17.24 286.72-17.24L286.72-17.24Q284.44-17.24 283.08-14.84L283.08-14.84L283.08-0.80L285.08-0.80L285.08 0L275.08 0L275.08-0.80L277.08-0.80L277.08-17.60L275.08-17.60L275.08-18.40L283.08-18.40L283.08-16.32Q283.84-17.36 285.46-18.10Q287.08-18.84 288.96-18.84L288.96-18.84Q296.08-18.84 296.08-11.12L296.08-11.12Z M309.68-0.32L309.68-0.32Q313.84-0.32 313.84-2.60L313.84-2.60Q313.84-3.88 312.40-4.70Q310.96-5.52 308.92-6.04Q306.88-6.56 304.90-7.24Q302.92-7.92 301.62-9.40Q300.32-10.88 300.56-13.28Q300.80-15.68 303.02-17.24Q305.24-18.80 308.50-18.80Q311.76-18.80 313.76-17.76Q315.76-16.72 316-14.96L316-14.96Q316.16-13.88 315.66-12.96Q315.16-12.04 314.02-12Q312.88-11.96 312.14-12.60Q311.40-13.24 311.44-14.08Q311.48-14.92 312.08-15.58Q312.68-16.24 312.68-16.64L312.68-16.64Q312.68-17.32 311.38-17.66Q310.08-18 308.38-18Q306.68-18 305.60-17.24Q304.52-16.48 304.52-15.36Q304.52-14.24 305.86-13.44Q307.20-12.64 309.12-12.14Q311.04-11.64 312.94-11.02Q314.84-10.40 316.18-9.04Q317.52-7.68 317.52-5.60L317.52-5.60Q317.52-2.84 315.56-1.18Q313.60 0.48 309.64 0.48Q305.68 0.48 303.22-0.72Q300.76-1.92 300.52-3.80L300.52-3.80Q300.36-4.88 300.88-5.80Q301.40-6.72 302.52-6.76Q303.64-6.80 304.38-6.16Q305.12-5.52 305.08-4.68Q305.04-3.84 304.44-3.18Q303.84-2.52 303.84-2.12L303.84-2.12Q303.84-1.32 305.70-0.82Q307.56-0.32 309.68-0.32Z"/></g>
</svg>
</g></svg></svg>