<svg version="1.1" preserveAspectRatio="none" xmlns="http://www.w3.org/2000/svg" width="500" height="500" viewBox="0 0 500 500"><rect width="100%" height="100%" fill="#121B31" fill-opacity="1"/><svg viewBox="111.0007 129.7588 386.9298 59" width="333" height="50.77665250905979" x="83.5px" y="224.6117px" xmlns="http://www.w3.org/2000/svg" xmlns:xlink="http://www.w3.org/1999/xlink" preserveAspectRatio="none"><defs></defs><style>.companyName {fill:#F7F7F7;fill-opacity:1;}.icon3 {fill:#D0E156;fill-opacity:1;}.icon3-str {stroke:#D0E156;stroke-opacity:1;}.shapeStroke-str {stroke:#F7F7F7;stroke-opacity:1;}</style><g opacity="1" transform="rotate(0 111.0007 129.7588)">
<svg width="386.9298" height="38" x="111.0007" y="129.7588" version="1.1" preserveAspectRatio="none" viewBox="4.16 -26.8 276.96 27.2">
  <g transform="matrix(1 0 0 1 0 0)" class="companyName"><path id="id-D6z1nYkh11" d="M6.16-26.40L6.16 0L4.16 0L4.16-26.40L6.16-26.40Z M34.76-26.40L34.76 0L32.28 0L18.28-20.72L16.32-24.24L16.28-24.24L16.40-20.92L16.40 0L14.48 0L14.48-26.40L17-26.40L30.96-5.72L32.96-2.16L32.88-5.48L32.88-26.40L34.76-26.40Z M63.36-26.40L63.36 0L60.88 0L46.88-20.72L44.92-24.24L44.88-24.24L45-20.92L45 0L43.08 0L43.08-26.40L45.60-26.40L59.56-5.72L61.56-2.16L61.48-5.48L61.48-26.40L63.36-26.40Z M82.16-26.80Q85.88-26.80 88.62-25.14Q91.36-23.48 92.84-20.42Q94.32-17.36 94.32-13.20L94.32-13.20Q94.32-9.04 92.84-5.98Q91.36-2.92 88.62-1.26Q85.88 0.40 82.16 0.40L82.16 0.40Q78.44 0.40 75.70-1.26Q72.96-2.92 71.48-5.98Q70.00-9.04 70.00-13.20L70.00-13.20Q70.00-17.36 71.48-20.42Q72.96-23.48 75.70-25.14Q78.44-26.80 82.16-26.80L82.16-26.80ZM82.16-24.96Q79.08-24.96 76.82-23.54Q74.56-22.12 73.34-19.46Q72.12-16.80 72.12-13.20L72.12-13.20Q72.12-9.60 73.34-6.94Q74.56-4.28 76.82-2.86Q79.08-1.44 82.16-1.44L82.16-1.44Q85.24-1.44 87.52-2.86Q89.80-4.28 91.02-6.94Q92.24-9.60 92.24-13.20L92.24-13.20Q92.24-16.80 91.02-19.46Q89.80-22.12 87.52-23.54Q85.24-24.96 82.16-24.96L82.16-24.96Z M119.80-26.40L109.64 0L107.28 0L97.08-26.40L99.24-26.40L107.04-5.96L108.44-1.88L109.84-5.96L117.68-26.40L119.80-26.40Z M140.72 0L137.40-8.28L124.76-8.28L121.48 0L119.36 0L129.92-26.40L132.28-26.40L142.84 0L140.72 0ZM125.52-10.12L136.68-10.12L132.08-21.64L131.12-24.44L131.08-24.44L130.12-21.72L125.52-10.12Z M161.96-26.40L161.96-24.56L152.32-24.56L152.32 0L150.32 0L150.32-24.56L140.68-24.56L140.68-26.40L161.96-26.40Z M169-1.84L185.68-1.84L185.68 0L167 0L167-26.40L185.04-26.40L185.04-24.56L169-24.56L169-14.36L181.68-14.36L181.68-12.48L169-12.48L169-1.84Z M211.76-26.40L211.76 0L209.28 0L195.28-20.72L193.32-24.24L193.28-24.24L193.40-20.92L193.40 0L191.48 0L191.48-26.40L194-26.40L207.96-5.72L209.96-2.16L209.88-5.48L209.88-26.40L211.76-26.40Z M230.56-26.80Q234.28-26.80 237.02-25.14Q239.76-23.48 241.24-20.42Q242.72-17.36 242.72-13.20L242.72-13.20Q242.72-9.04 241.24-5.98Q239.76-2.92 237.02-1.26Q234.28 0.40 230.56 0.40L230.56 0.40Q226.84 0.40 224.10-1.26Q221.36-2.92 219.88-5.98Q218.40-9.04 218.40-13.20L218.40-13.20Q218.40-17.36 219.88-20.42Q221.36-23.48 224.10-25.14Q226.84-26.80 230.56-26.80L230.56-26.80ZM230.56-24.96Q227.48-24.96 225.22-23.54Q222.96-22.12 221.74-19.46Q220.52-16.80 220.52-13.20L220.52-13.20Q220.52-9.60 221.74-6.94Q222.96-4.28 225.22-2.86Q227.48-1.44 230.56-1.44L230.56-1.44Q233.64-1.44 235.92-2.86Q238.20-4.28 239.42-6.94Q240.64-9.60 240.64-13.20L240.64-13.20Q240.64-16.80 239.42-19.46Q238.20-22.12 235.92-23.54Q233.64-24.96 230.56-24.96L230.56-24.96Z M262.08-18.52L256.76 0L254.28 0L246.04-26.40L248.20-26.40L255.52-1.64L262.44-26.40L264.76-26.40L271.68-1.60L279.08-26.40L281.12-26.40L272.88 0L270.40 0L265.08-18.52L263.60-24.24L263.56-24.24L262.08-18.52Z"/></g>
</svg>
</g><g opacity="1" transform="rotate(0 111.0007 185.7588)">
<svg width="386.9298" height="3" x="111.0007" y="185.7588" version="1.1" preserveAspectRatio="none" viewBox="0 0 386.9298 3">
  <defs><rect x="0" y="0" width="386.9298" height="3" rx="0px" ry="0px" id="id-tBXipXk0b1743508134898"></rect></defs><use class="icon3 shapeStroke-str" style="stroke-width:0;" xlink:href="#id-tBXipXk0b1743508134898"></use>
</svg>
</g></svg></svg>