<svg version="1.1" preserveAspectRatio="none" xmlns="http://www.w3.org/2000/svg" width="500" height="500" viewBox="0 0 500 500"><rect width="100%" height="100%" fill="#212D94" fill-opacity="1"/><svg viewBox="28.9243 192.4989 494.8942 180" width="333" height="121.1167962768608" x="83.5px" y="189.4416px" xmlns="http://www.w3.org/2000/svg" xmlns:xlink="http://www.w3.org/1999/xlink" preserveAspectRatio="none"><defs></defs><style>.a60p5ZquTEfillColor {fill:#F1F1F1;fill-opacity:0;}.ahs7pIl34ofillColor {fill:#0A0A0A;fill-opacity:0.1;}.background {fill:#212D94;fill-opacity:1;}.companyName {fill:#F1F1F1;fill-opacity:1;}.icon3-str {stroke:#0A0A0A;stroke-opacity:1;}.shapeStroke-str {stroke:#0A0A0A;stroke-opacity:1;}.text-str {stroke:#F1F1F1;stroke-opacity:1;}</style><g opacity="1" transform="rotate(0 28.9243 192.4989)">
<svg width="247.4471" height="180" x="28.9243" y="192.4989" version="1.1" preserveAspectRatio="none" viewBox="0 0 247.4471 180">
  <defs><rect x="11.25" y="11.25" width="224.9471" height="157.5" rx="0px" ry="0px" id="id-60p5ZquTE1743508037897"></rect></defs><use class="a60p5ZquTEfillColor text-str" style="stroke-width:22.5;" xlink:href="#id-60p5ZquTE1743508037897"></use>
</svg>
</g><g opacity="1" transform="rotate(0 276.3714 192.4989)">
<svg width="247.4471" height="180" x="276.3714" y="192.4989" version="1.1" preserveAspectRatio="none" viewBox="0 0 247.4471 180">
  <defs><rect x="11.25" y="11.25" width="224.9471" height="157.5" rx="0px" ry="0px" id="id-hs7pIl34o1743508037898"></rect></defs><use class="ahs7pIl34ofillColor icon3-str" style="stroke-width:22.5;" xlink:href="#id-hs7pIl34o1743508037898"></use>
</svg>
</g><g opacity="1" transform="rotate(0 38.9243 202.4989)">
<svg width="474.8942" height="160" x="38.9243" y="202.4989" version="1.1" preserveAspectRatio="none" viewBox="0 0 474.8942 160">
  <defs><rect x="0" y="0" width="474.8942" height="160" rx="0px" ry="0px" id="id-BO9lbzKc31743508037898"></rect></defs><use class="background shapeStroke-str" style="stroke-width:0;" xlink:href="#id-BO9lbzKc31743508037898"></use>
</svg>
</g><g opacity="1" transform="rotate(0 78.9243 252.4989)">
<svg width="394.8942" height="60" x="78.9243" y="252.4989" version="1.1" preserveAspectRatio="none" viewBox="4 -31.2 208.23999999999998 31.64">
  <g transform="matrix(1 0 0 1 0 0)" class="companyName"><path id="id-D6z1nYkh9" d="M33.32-30.16L33.40-30.16L33.40 0L28.76 0L28.76-16.84L18.56-2.36L18.48-2.36L8.52-16.16L8.52 0L4 0L4-30.16L4.04-30.16L18.56-9.60L33.32-30.16Z M50.64-3.40Q52.52-3.40 54.44-4.72L54.44-4.72L56.48-1.40Q55.12-0.56 53.56-0.06Q52 0.44 50.56 0.44L50.56 0.44Q47.64 0.44 45.50-0.72Q43.36-1.88 42.22-3.92Q41.08-5.96 41.08-8.60L41.08-8.60Q41.08-11.08 42.36-13.16Q43.64-15.24 45.84-16.46Q48.04-17.68 50.64-17.68L50.64-17.68Q54.08-17.68 56.36-15.66Q58.64-13.64 59.40-9.96L59.40-9.96L46.36-5.56Q47.04-4.52 48.16-3.96Q49.28-3.40 50.64-3.40L50.64-3.40ZM50.28-14.16Q48.16-14.16 46.82-12.68Q45.48-11.20 45.48-8.84L45.48-8.84Q45.48-8.40 45.52-8.16L45.52-8.16L54.40-11.32Q53.88-12.56 52.88-13.36Q51.88-14.16 50.28-14.16L50.28-14.16Z M79.40-31.20L83.84-31.20L83.84 0L79.36 0L79.36-2.28Q76.56 0.44 72.72 0.44L72.72 0.44Q70.36 0.44 68.46-0.68Q66.56-1.80 65.48-3.88Q64.40-5.96 64.40-8.72L64.40-8.72Q64.40-11.48 65.54-13.52Q66.68-15.56 68.70-16.62Q70.72-17.68 73.28-17.68L73.28-17.68Q75.12-17.68 76.76-16.98Q78.40-16.28 79.40-15.08L79.40-15.08L79.40-31.20ZM74.16-3.36Q76.08-3.36 77.44-4.32Q78.80-5.28 79.36-7L79.36-7L79.36-10.60Q78.88-12.16 77.46-13.16Q76.04-14.16 74.16-14.16L74.16-14.16Q72.76-14.16 71.56-13.46Q70.36-12.76 69.64-11.54Q68.92-10.32 68.92-8.80L68.92-8.80Q68.92-7.28 69.64-6.04Q70.36-4.80 71.56-4.08Q72.76-3.36 74.16-3.36L74.16-3.36Z M92-16.92L96.48-16.92L96.48 0L92 0L92-16.92ZM91.80-22.96Q91.80-23.96 92.60-24.66Q93.40-25.36 94.40-25.36L94.40-25.36Q95.36-25.36 96.14-24.66Q96.92-23.96 96.92-22.96L96.92-22.96Q96.92-21.96 96.14-21.28Q95.36-20.60 94.40-20.60L94.40-20.60Q93.40-20.60 92.60-21.28Q91.80-21.96 91.80-22.96L91.80-22.96Z M118.24-16.92L122.36-16.92L122.36 0L117.88 0L117.88-2.44Q116.96-1.36 115.40-0.46Q113.84 0.44 111.76 0.44L111.76 0.44Q109.32 0.44 107.40-0.58Q105.48-1.60 104.36-3.60Q103.24-5.60 103.24-8.44L103.24-8.44Q103.24-11.20 104.40-13.30Q105.56-15.40 107.50-16.54Q109.44-17.68 111.76-17.68L111.76-17.68Q115.88-17.68 117.92-14.64L117.92-14.64L118.24-16.92ZM113-3.24Q114.84-3.24 116.10-4.18Q117.36-5.12 117.88-6.84L117.88-6.84L117.88-10.52Q117.40-12.08 116.02-13.04Q114.64-14 112.84-14L112.84-14Q110.72-14 109.24-12.50Q107.76-11 107.76-8.68L107.76-8.68Q107.76-7.16 108.48-5.92Q109.20-4.68 110.40-3.96Q111.60-3.24 113-3.24L113-3.24Z M129.40-29.12L148.88-29.12L148.88-24.64L141.36-24.64L141.36 0L136.72 0L136.72-24.64L129.40-24.64L129.40-29.12Z M159.88-3.40Q161.76-3.40 163.68-4.72L163.68-4.72L165.72-1.40Q164.36-0.56 162.80-0.06Q161.24 0.44 159.80 0.44L159.80 0.44Q156.88 0.44 154.74-0.72Q152.60-1.88 151.46-3.92Q150.32-5.96 150.32-8.60L150.32-8.60Q150.32-11.08 151.60-13.16Q152.88-15.24 155.08-16.46Q157.28-17.68 159.88-17.68L159.88-17.68Q163.32-17.68 165.60-15.66Q167.88-13.64 168.64-9.96L168.64-9.96L155.60-5.56Q156.28-4.52 157.40-3.96Q158.52-3.40 159.88-3.40L159.88-3.40ZM159.52-14.16Q157.40-14.16 156.06-12.68Q154.72-11.20 154.72-8.84L154.72-8.84Q154.72-8.40 154.76-8.16L154.76-8.16L163.64-11.32Q163.12-12.56 162.12-13.36Q161.12-14.16 159.52-14.16L159.52-14.16Z M189.04-1.56Q187.92-0.64 186.30-0.10Q184.68 0.44 183.04 0.44L183.04 0.44Q180.24 0.44 178.10-0.64Q175.96-1.72 174.80-3.74Q173.64-5.76 173.64-8.48L173.64-8.48Q173.64-11.16 174.88-13.18Q176.12-15.20 178.18-16.28Q180.24-17.36 182.60-17.36L182.60-17.36Q186.60-17.36 189.20-15.20L189.20-15.20L186.96-12.28Q186.20-12.88 185.18-13.30Q184.16-13.72 183-13.72L183-13.72Q180.96-13.72 179.54-12.22Q178.12-10.72 178.12-8.48L178.12-8.48Q178.12-6.24 179.62-4.74Q181.12-3.24 183.44-3.24L183.44-3.24Q185.44-3.24 186.80-4.36L186.80-4.36L189.04-1.56Z M206.68-17.64Q209.04-17.64 210.62-16.22Q212.20-14.80 212.24-12.56L212.24-12.56L212.24 0L207.76 0L207.76-10.96Q207.68-12.28 206.98-13.04Q206.28-13.80 204.88-13.84L204.88-13.84Q202.80-13.84 201.46-12.04Q200.12-10.24 200.12-7.52L200.12-7.52L200.12 0L195.64 0L195.64-31.20L200.04-31.20L200.04-14.04Q201-15.68 202.70-16.66Q204.40-17.64 206.68-17.64L206.68-17.64Z"/></g>
</svg>
</g></svg></svg>