<svg version="1.1" preserveAspectRatio="none" xmlns="http://www.w3.org/2000/svg" width="500" height="500" viewBox="0 0 500 500"><rect width="100%" height="100%" fill="#141414" fill-opacity="1"/><svg viewBox="67.8955 203.2 384.5046 42" width="333" height="36.37407718919358" x="83.5px" y="231.813px" xmlns="http://www.w3.org/2000/svg" xmlns:xlink="http://www.w3.org/1999/xlink" preserveAspectRatio="none"><defs></defs><style>.background {fill:#141414;fill-opacity:1;}.companyName {fill:#E9E41D;fill-opacity:1;}.icon3-str {stroke:#E9E41D;stroke-opacity:1;}.shapeStroke-str {stroke:#E5E5E5;stroke-opacity:1;}</style><g opacity="1" transform="rotate(0 67.8955 203.2)">
<svg width="384.5046" height="42" x="67.8955" y="203.2" version="1.1" preserveAspectRatio="none" viewBox="0 0 384.5046 42">
  <defs><rect x="0" y="0" width="384.5046" height="42" rx="0%" ry="0%" id="id-UPl23ini1743508115949"></rect></defs><use class="companyName shapeStroke-str" style="stroke-width:0;" xlink:href="#id-UPl23ini1743508115949"></use>
</svg>
</g><g opacity="1" transform="rotate(0 69.8955 205.2)">
<svg width="380.5046" height="38" x="69.8955" y="205.2" version="1.1" preserveAspectRatio="none" viewBox="2.76 -29.4 300.40000000000003 30">
  <g transform="matrix(1 0 0 1 0 0)" class="background"><path id="id-D6z1nYkh11" d="M14.80-21.60L11.80-21.60L11.80-16.48L14.80-16.48Q15.84-16.48 16.20-17.02Q16.56-17.56 16.56-18.36L16.56-18.36L16.56-19.72Q16.56-20.52 16.20-21.06Q15.84-21.60 14.80-21.60L14.80-21.60ZM10.36 0L10.36 0L4.20 0Q3.44 0 3.10-0.34Q2.76-0.68 2.76-1.44L2.76-1.44L2.76-27.36Q2.76-28.12 3.10-28.46Q3.44-28.80 4.20-28.80L4.20-28.80L17.52-28.80Q22-28.80 23.70-26.94Q25.40-25.08 25.40-22.12L25.40-22.12L25.40-20.28Q25.40-18.60 24.90-17.42Q24.40-16.24 23.16-15.72L23.16-15.72Q25.32-15.48 26.66-13.96Q28-12.44 28-9.92L28-9.92L28-1.44Q28-0.68 27.66-0.34Q27.32 0 26.56 0L26.56 0L20.36 0Q19.60 0 19.26-0.34Q18.92-0.68 18.92-1.44L18.92-1.44L18.92-7.56Q18.92-8.44 18.58-8.86Q18.24-9.28 17.40-9.28L17.40-9.28L11.80-9.28L11.80-1.44Q11.80-0.68 11.46-0.34Q11.12 0 10.36 0Z M56.68-21.20L56.68-7.56Q56.68-5.72 56.14-4.22Q55.60-2.72 54.22-1.66Q52.84-0.60 50.42 0Q48 0.60 44.28 0.60L44.28 0.60Q40.56 0.60 38.12 0Q35.68-0.60 34.30-1.66Q32.92-2.72 32.38-4.22Q31.84-5.72 31.84-7.56L31.84-7.56L31.84-21.20Q31.84-23.04 32.38-24.54Q32.92-26.04 34.30-27.12Q35.68-28.20 38.12-28.80Q40.56-29.40 44.28-29.40L44.28-29.40Q48-29.40 50.42-28.80Q52.84-28.20 54.22-27.12Q55.60-26.04 56.14-24.54Q56.68-23.04 56.68-21.20L56.68-21.20ZM40.92-19.76L40.92-9Q40.92-8.20 41.52-7.66Q42.12-7.12 44.28-7.12L44.28-7.12Q46.44-7.12 47.04-7.66Q47.64-8.20 47.64-9L47.64-9L47.64-19.76Q47.64-20.52 47.04-21.06Q46.44-21.60 44.28-21.60L44.28-21.60Q42.12-21.60 41.52-21.06Q40.92-20.52 40.92-19.76L40.92-19.76Z M78.56 0L78.56 0L63.20 0Q62.44 0 62.10-0.34Q61.76-0.68 61.76-1.44L61.76-1.44L61.76-27.36Q61.76-28.12 62.10-28.46Q62.44-28.80 63.20-28.80L63.20-28.80L75.96-28.80Q79.88-28.80 81.76-27.30Q83.64-25.80 83.64-22.68L83.64-22.68L83.64-20.76Q83.64-19.08 83.06-18.02Q82.48-16.96 81.28-16.44L81.28-16.44Q83.84-16.20 85.08-14.68Q86.32-13.16 86.32-10.24L86.32-10.24L86.32-6.56Q86.32-3.20 84.42-1.60Q82.52 0 78.56 0ZM74.16-22L70.76-22L70.76-17.68L74.16-17.68Q74.92-17.68 75.30-18.08Q75.68-18.48 75.68-19.28L75.68-19.28L75.68-20.40Q75.68-21.20 75.30-21.60Q74.92-22 74.16-22L74.16-22ZM75.96-11.52L70.76-11.52L70.76-6.80L75.96-6.80Q76.72-6.80 77.10-7.20Q77.48-7.60 77.48-8.40L77.48-8.40L77.48-9.96Q77.48-10.76 77.10-11.14Q76.72-11.52 75.96-11.52L75.96-11.52Z M115.16-21.20L115.16-7.56Q115.16-5.72 114.62-4.22Q114.08-2.72 112.70-1.66Q111.32-0.60 108.90 0Q106.48 0.60 102.76 0.60L102.76 0.60Q99.04 0.60 96.60 0Q94.16-0.60 92.78-1.66Q91.40-2.72 90.86-4.22Q90.32-5.72 90.32-7.56L90.32-7.56L90.32-21.20Q90.32-23.04 90.86-24.54Q91.40-26.04 92.78-27.12Q94.16-28.20 96.60-28.80Q99.04-29.40 102.76-29.40L102.76-29.40Q106.48-29.40 108.90-28.80Q111.32-28.20 112.70-27.12Q114.08-26.04 114.62-24.54Q115.16-23.04 115.16-21.20L115.16-21.20ZM99.40-19.76L99.40-9Q99.40-8.20 100-7.66Q100.60-7.12 102.76-7.12L102.76-7.12Q104.92-7.12 105.52-7.66Q106.12-8.20 106.12-9L106.12-9L106.12-19.76Q106.12-20.52 105.52-21.06Q104.92-21.60 102.76-21.60L102.76-21.60Q100.60-21.60 100-21.06Q99.40-20.52 99.40-19.76L99.40-19.76Z M133.64 0L133.64 0L127.16 0Q126.40 0 126.06-0.34Q125.72-0.68 125.72-1.44L125.72-1.44L125.72-21.08L119.84-21.08Q119.08-21.08 118.74-21.42Q118.40-21.76 118.40-22.52L118.40-22.52L118.40-27.36Q118.40-28.12 118.74-28.46Q119.08-28.80 119.84-28.80L119.84-28.80L140.96-28.80Q141.72-28.80 142.06-28.46Q142.40-28.12 142.40-27.36L142.40-27.36L142.40-22.52Q142.40-21.76 142.06-21.42Q141.72-21.08 140.96-21.08L140.96-21.08L135.08-21.08L135.08-1.44Q135.08-0.68 134.74-0.34Q134.40 0 133.64 0Z M164.12 0L147.08 0Q146.32 0 145.98-0.34Q145.64-0.68 145.64-1.44L145.64-1.44L145.64-6.20Q145.64-6.96 145.98-7.30Q146.32-7.64 147.08-7.64L147.08-7.64L151.04-7.64L151.04-21.08L147.08-21.08Q146.32-21.08 145.98-21.42Q145.64-21.76 145.64-22.52L145.64-22.52L145.64-27.36Q145.64-28.12 145.98-28.46Q146.32-28.80 147.08-28.80L147.08-28.80L164.12-28.80Q164.88-28.80 165.22-28.46Q165.56-28.12 165.56-27.36L165.56-27.36L165.56-22.52Q165.56-21.76 165.22-21.42Q164.88-21.08 164.12-21.08L164.12-21.08L160.24-21.08L160.24-7.64L164.12-7.64Q164.88-7.64 165.22-7.30Q165.56-6.96 165.56-6.20L165.56-6.20L165.56-1.44Q165.56-0.68 165.22-0.34Q164.88 0 164.12 0L164.12 0Z M189.64 0L189.64 0L179.88 0Q174.88 0 172.46-2Q170.04-4 170.04-8.16L170.04-8.16L170.04-20.60Q170.04-24.76 172.46-26.78Q174.88-28.80 179.88-28.80L179.88-28.80L189.64-28.80Q190.40-28.80 190.74-28.46Q191.08-28.12 191.08-27.36L191.08-27.36L191.08-22.52Q191.08-21.76 190.74-21.42Q190.40-21.08 189.64-21.08L189.64-21.08L181.60-21.08Q180.36-21.08 179.76-20.58Q179.16-20.08 179.16-19.08L179.16-19.08L179.16-9.56Q179.16-8.56 179.76-8.10Q180.36-7.64 181.60-7.64L181.60-7.64L189.64-7.64Q190.40-7.64 190.74-7.30Q191.08-6.96 191.08-6.20L191.08-6.20L191.08-1.44Q191.08-0.68 190.74-0.34Q190.40 0 189.64 0Z M208.96 0L208.96 0L196.32 0Q195.56 0 195.22-0.34Q194.88-0.68 194.88-1.44L194.88-1.44L194.88-6.12Q194.88-6.88 195.22-7.22Q195.56-7.56 196.32-7.56L196.32-7.56L207.08-7.56Q207.60-7.56 207.86-7.90Q208.12-8.24 208.12-8.72L208.12-8.72Q208.12-9.40 207.86-9.72Q207.60-10.04 207.08-10.08L207.08-10.08L201.08-10.92Q198.28-11.32 196.58-12.76Q194.88-14.20 194.88-17.56L194.88-17.56L194.88-21.76Q194.88-25.16 197.08-26.98Q199.28-28.80 203.16-28.80L203.16-28.80L214.36-28.80Q215.12-28.80 215.46-28.46Q215.80-28.12 215.80-27.36L215.80-27.36L215.80-22.60Q215.80-21.84 215.46-21.50Q215.12-21.16 214.36-21.16L214.36-21.16L205.04-21.16Q204.52-21.16 204.24-20.82Q203.96-20.48 203.96-19.96L203.96-19.96Q203.96-19.44 204.24-19.08Q204.52-18.72 205.04-18.68L205.04-18.68L211-17.88Q213.80-17.48 215.52-16.04Q217.24-14.60 217.24-11.24L217.24-11.24L217.24-7.04Q217.24-3.64 215.02-1.82Q212.80 0 208.96 0Z M243.40 0L243.40 0L223.04 0Q222.28 0 221.94-0.34Q221.60-0.68 221.60-1.44L221.60-1.44L221.60-27.36Q221.60-28.12 221.94-28.46Q222.28-28.80 223.04-28.80L223.04-28.80L229.24-28.80Q230-28.80 230.34-28.46Q230.68-28.12 230.68-27.36L230.68-27.36L230.68-7.56L236.16-7.56L236.16-14.04Q236.16-14.80 236.50-15.14Q236.84-15.48 237.60-15.48L237.60-15.48L243.40-15.48Q244.16-15.48 244.50-15.14Q244.84-14.80 244.84-14.04L244.84-14.04L244.84-1.44Q244.84-0.68 244.50-0.34Q244.16 0 243.40 0Z M259.84-20.40L259.84-20.40L257.96-14.32L264.24-14.32L262.36-20.40Q262.20-20.76 262.02-20.92Q261.84-21.08 261.60-21.08L261.60-21.08L260.60-21.08Q260.36-21.08 260.18-20.92Q260-20.76 259.84-20.40ZM257.56-7.04L257.56-1.44Q257.56-0.68 257.22-0.34Q256.88 0 256.12 0L256.12 0L250.24 0Q249.48 0 249.14-0.34Q248.80-0.68 248.80-1.44L248.80-1.44L248.80-12Q248.80-13.20 249.18-14.76Q249.56-16.32 250.36-18.40L250.36-18.40L253.84-27.48Q254.08-28.16 254.58-28.48Q255.08-28.80 255.88-28.80L255.88-28.80L266.64-28.80Q267.40-28.80 267.90-28.48Q268.40-28.16 268.64-27.48L268.64-27.48L272.12-18.40Q272.92-16.32 273.30-14.76Q273.68-13.20 273.68-12L273.68-12L273.68-1.44Q273.68-0.68 273.34-0.34Q273 0 272.24 0L272.24 0L266.20 0Q265.40 0 265.02-0.34Q264.64-0.68 264.64-1.44L264.64-1.44L264.64-7.04L257.56-7.04Z M295.40 0L295.40 0L280.04 0Q279.28 0 278.94-0.34Q278.60-0.68 278.60-1.44L278.60-1.44L278.60-27.36Q278.60-28.12 278.94-28.46Q279.28-28.80 280.04-28.80L280.04-28.80L292.80-28.80Q296.72-28.80 298.60-27.30Q300.48-25.80 300.48-22.68L300.48-22.68L300.48-20.76Q300.48-19.08 299.90-18.02Q299.32-16.96 298.12-16.44L298.12-16.44Q300.68-16.20 301.92-14.68Q303.16-13.16 303.16-10.24L303.16-10.24L303.16-6.56Q303.16-3.20 301.26-1.60Q299.36 0 295.40 0ZM291.00-22L287.60-22L287.60-17.68L291.00-17.68Q291.76-17.68 292.14-18.08Q292.52-18.48 292.52-19.28L292.52-19.28L292.52-20.40Q292.52-21.20 292.14-21.60Q291.76-22 291.00-22L291.00-22ZM292.80-11.52L287.60-11.52L287.60-6.80L292.80-6.80Q293.56-6.80 293.94-7.20Q294.32-7.60 294.32-8.40L294.32-8.40L294.32-9.96Q294.32-10.76 293.94-11.14Q293.56-11.52 292.80-11.52L292.80-11.52Z"/></g>
</svg>
</g></svg></svg>