<svg version="1.1" preserveAspectRatio="none" xmlns="http://www.w3.org/2000/svg" width="500" height="500" viewBox="0 0 500 500"><rect width="100%" height="100%" fill="#2254D3" fill-opacity="1"/><svg viewBox="450.5862 355.9861 393.8742 70" width="333" height="59.18133251682898" x="83.5px" y="220.4093px" xmlns="http://www.w3.org/2000/svg" xmlns:xlink="http://www.w3.org/1999/xlink" preserveAspectRatio="none"><defs></defs><style>.ashadowZiSR-kOYoZ-floo {flood-color:#E9E9E9;flood-opacity:1;}.companyName {fill:#E9E9E9;fill-opacity:1;}.icon3-str {stroke:#585858;stroke-opacity:1;}</style><defs>
      <filter
        x="450.5862"
        y="355.9861"
        width="393.8742"
        height="70"
        id="LwNMZKse4"
        filterUnits="userSpaceOnUse"
        primitiveUnits="userSpaceOnUse"
        color-interpolation-filters="sRGB">
        <feMerge><feMergeNode in="SourceGraphic" /></feMerge>
      </filter></defs><g opacity="1" transform="rotate(0 450.5862 355.9861)">
<svg width="393.8742" height="70" x="450.5862" y="355.9861" version="1.1" preserveAspectRatio="none" viewBox="0.68 -27 189.95999999999998 33.760000000000005">
  <g transform="matrix(1 0 0 1 0 0)" class="companyName"><path id="id-D6z1nYkh14" d="M9.28-7L12.44-25.88L17.84-25.88L12.48 0L6.04 0L0.68-25.88L6.12-25.88L9.28-7Z M25.86-21.96Q25-21.12 23.80-21.12Q22.60-21.12 21.72-21.98Q20.84-22.84 20.84-24.06Q20.84-25.28 21.72-26.14Q22.60-27 23.80-27Q25-27 25.86-26.14Q26.72-25.28 26.72-24.04Q26.72-22.80 25.86-21.96ZM26.48 0L21.12 0L21.12-19.52L26.48-19.52L26.48 0Z M38.56-19.92L38.56-19.92L39.60-19.92L39.60-14.72L36.96-14.72Q35.60-14.72 35.60-13.32L35.60-13.32L35.60 0L30.24 0L30.24-19.52L35.12-19.52L35.12-17.64Q36.28-19.92 38.56-19.92Z M49.12-3.08L49.12-3.08L50.72-3.08L50.72 0.40L46.96 0.40Q42 0.40 42-4.88L42-4.88L42-23.76L47.36-23.76L47.36-19.52L50.72-19.52L50.72-15.64L47.36-15.64L47.36-5Q47.36-3.88 47.80-3.48Q48.24-3.08 49.12-3.08Z M62.60-4.24L62.60-19.52L67.96-19.52L67.96 0L63.08 0L63.08-1Q61.84 0.40 59.32 0.40L59.32 0.40L58.48 0.40Q53.52 0.40 53.52-4.88L53.52-4.88L53.52-19.52L58.88-19.52L58.88-4.24Q58.88-3.92 59.10-3.68Q59.32-3.44 59.64-3.44L59.64-3.44L61.84-3.44Q62.16-3.44 62.38-3.68Q62.60-3.92 62.60-4.24L62.60-4.24Z M81.52-18.08L81.52-19.52L86.04-19.52L86.04 0L81.52 0L81.52-1.44Q80.28 0.40 77.40 0.40L77.40 0.40L76.56 0.40Q71.60 0.40 71.60-4.88L71.60-4.88L71.60-14.64Q71.60-19.92 76.56-19.92L76.56-19.92L77.40-19.92Q80.28-19.92 81.52-18.08L81.52-18.08ZM80.68-4.24L80.68-4.24L80.68-15.28Q80.68-15.60 80.46-15.84Q80.24-16.08 79.92-16.08L79.92-16.08L77.72-16.08Q77.40-16.08 77.18-15.84Q76.96-15.60 76.96-15.28L76.96-15.28L76.96-4.24Q76.96-3.92 77.18-3.68Q77.40-3.44 77.72-3.44L77.72-3.44L79.92-3.44Q80.24-3.44 80.46-3.68Q80.68-3.92 80.68-4.24Z M95.04-25.88L95.04 0L89.68 0L89.68-25.88L95.04-25.88Z M106.96-19.92L106.96-19.92L108-19.92L108-14.72L105.36-14.72Q104-14.72 104-13.32L104-13.32L104 0L98.64 0L98.64-19.52L103.52-19.52L103.52-17.64Q104.68-19.92 106.96-19.92Z M115.36-19.92L119.88-19.92Q124.84-19.92 124.84-14.64L124.84-14.64L124.84-8.32L115.76-8.32L115.76-4.24Q115.76-3.92 115.98-3.68Q116.20-3.44 116.52-3.44L116.52-3.44L118.72-3.44Q119.04-3.44 119.26-3.68Q119.48-3.92 119.48-4.24L119.48-4.24L119.48-6.40L124.84-6.40L124.84-4.88Q124.84 0.40 119.88 0.40L119.88 0.40L115.36 0.40Q110.40 0.40 110.40-4.88L110.40-4.88L110.40-14.64Q110.40-19.92 115.36-19.92L115.36-19.92ZM115.76-15.44L115.76-11.84L119.48-11.84L119.48-15.44Q119.48-15.76 119.26-16Q119.04-16.24 118.72-16.24L118.72-16.24L116.52-16.24Q116.20-16.24 115.98-16Q115.76-15.76 115.76-15.44L115.76-15.44Z M137.72-18.08L137.72-19.52L142.24-19.52L142.24 0L137.72 0L137.72-1.44Q136.48 0.40 133.60 0.40L133.60 0.40L132.76 0.40Q127.80 0.40 127.80-4.88L127.80-4.88L127.80-14.64Q127.80-19.92 132.76-19.92L132.76-19.92L133.60-19.92Q136.48-19.92 137.72-18.08L137.72-18.08ZM136.88-4.24L136.88-4.24L136.88-15.28Q136.88-15.60 136.66-15.84Q136.44-16.08 136.12-16.08L136.12-16.08L133.92-16.08Q133.60-16.08 133.38-15.84Q133.16-15.60 133.16-15.28L133.16-15.28L133.16-4.24Q133.16-3.92 133.38-3.68Q133.60-3.44 133.92-3.44L133.92-3.44L136.12-3.44Q136.44-3.44 136.66-3.68Q136.88-3.92 136.88-4.24Z M151.24-25.88L151.24 0L145.88 0L145.88-25.88L151.24-25.88Z M160.30-21.96Q159.44-21.12 158.24-21.12Q157.04-21.12 156.16-21.98Q155.28-22.84 155.28-24.06Q155.28-25.28 156.16-26.14Q157.04-27 158.24-27Q159.44-27 160.30-26.14Q161.16-25.28 161.16-24.04Q161.16-22.80 160.30-21.96ZM160.92 0L155.56 0L155.56-19.52L160.92-19.52L160.92 0Z M171.80-3.08L171.80-3.08L173.40-3.08L173.40 0.40L169.64 0.40Q164.68 0.40 164.68-4.88L164.68-4.88L164.68-23.76L170.04-23.76L170.04-19.52L173.40-19.52L173.40-15.64L170.04-15.64L170.04-5Q170.04-3.88 170.48-3.48Q170.92-3.08 171.80-3.08Z M185.28-5.52L185.28-19.52L190.64-19.52L190.64 1.48Q190.64 6.76 185.68 6.76L185.68 6.76L181.68 6.76Q176.72 6.76 176.72 1.48L176.72 1.48L176.72 0.84L181.92 0.84L181.92 2.12Q181.92 2.44 182.14 2.68Q182.36 2.92 182.68 2.92L182.68 2.92L184.52 2.92Q184.84 2.92 185.06 2.68Q185.28 2.44 185.28 2.12L185.28 2.12L185.28-1.84Q184.08-0.88 182.00-0.88L182.00-0.88L181.16-0.88Q176.20-0.88 176.20-6.16L176.20-6.16L176.20-19.52L181.56-19.52L181.56-5.52Q181.56-5.20 181.78-4.96Q182.00-4.72 182.32-4.72L182.32-4.72L184.52-4.72Q184.84-4.72 185.06-4.96Q185.28-5.20 185.28-5.52L185.28-5.52Z"/></g>
</svg>
</g></svg></svg>