<svg version="1.1" preserveAspectRatio="none" xmlns="http://www.w3.org/2000/svg" width="500" height="500" viewBox="0 0 500 500"><rect width="100%" height="100%" fill="#101010" fill-opacity="1"/><svg viewBox="18.6839 122.65 386.8395 140" width="333" height="120.51509734657398" x="83.5px" y="189.7425px" xmlns="http://www.w3.org/2000/svg" xmlns:xlink="http://www.w3.org/1999/xlink" preserveAspectRatio="none"><defs></defs><style>.companyName {fill:#FFFFFF;fill-opacity:1;}.icon3 {fill:#28AABC;fill-opacity:1;}.icon3-str {stroke:#28AABC;stroke-opacity:1;}.shape {fill:#D728CA;fill-opacity:1;}</style><g opacity="1" transform="rotate(0 172.316 126.65)">
<svg width="83.5754" height="64" x="172.316" y="126.65" version="1.1" preserveAspectRatio="none" viewBox="1 -25.76 33.64 25.76">
  <g transform="matrix(1 0 0 1 0 0)" class="icon3"><path id="id-IechDY4gX1" d="M7 0L1-25.76L8.36-25.76L11.28-12.12L14.12-21.88L14.12-25.76L20.28-25.76L24.20-12.08L27.28-25.76L34.64-25.76L28.68 0L21.88 0L18-13.32L13.80 0L7 0Z"/></g>
</svg>
</g><g opacity="1" transform="rotate(0 168.316 122.65)">
<svg width="83.5754" height="64" x="168.316" y="122.65" version="1.1" preserveAspectRatio="none" viewBox="1 -25.76 33.64 25.76">
  <g transform="matrix(1 0 0 1 0 0)" class="shape"><path id="id-p1tucruSh1" d="M7 0L1-25.76L8.36-25.76L11.28-12.12L14.12-21.88L14.12-25.76L20.28-25.76L24.20-12.08L27.28-25.76L34.64-25.76L28.68 0L21.88 0L18-13.32L13.80 0L7 0Z"/></g>
</svg>
</g><g opacity="1" transform="rotate(0 171.3094 124.65)">
<svg width="81.5885" height="64" x="171.3094" y="124.65" version="1.1" preserveAspectRatio="none" viewBox="1.24 -25.76 32.84 25.76">
  <g transform="matrix(1 0 0 1 0 0)" class="companyName"><path id="id-zm6CZq_Ug1" d="M7.24 0L1.24-25.76L7.56-25.76L10.96-10.24L14.48-22.12L14.48-25.76L19.76-25.76L24.20-10.20L27.76-25.76L34.08-25.76L28.12 0L22.16 0L17.84-14.88L13.20 0L7.24 0Z"/></g>
</svg>
</g><g opacity="1" transform="rotate(0 18.6839 228.65)">
<svg width="386.8395" height="34" x="18.6839" y="228.65" version="1.1" preserveAspectRatio="none" viewBox="0.52 -27.72 315.84000000000003 27.759999999999998">
  <g transform="matrix(1 0 0 1 0 0)" class="companyName"><path id="id-D6z1nYkh14" d="M32.52-25.72Q33.08-25.72 33.36-25.46Q33.64-25.20 33.64-24.80L33.64-24.80Q33.64-24.68 33.56-24.36L33.56-24.36L25.88-0.80Q25.64 0 24.88 0L24.88 0L24.68 0Q23.88 0 23.64-0.80L23.64-0.80L17.08-21.96L10.48-0.80Q10.32-0.40 10.10-0.20Q9.88 0 9.44 0L9.44 0L9.24 0Q8.52 0 8.28-0.80L8.28-0.80L0.60-24.36Q0.52-24.60 0.52-24.76L0.52-24.76Q0.52-25.12 0.76-25.40Q1-25.68 1.44-25.72L1.44-25.72L1.64-25.72Q2.40-25.72 2.56-25L2.56-25L9.44-4.04L15.88-24.96Q16.12-25.76 16.96-25.76L16.96-25.76L17.24-25.76Q18.04-25.76 18.28-24.96L18.28-24.96L24.76-3.96L31.60-25Q31.84-25.72 32.52-25.72L32.52-25.72Z M51.24-8.64L36.68-8.64L36.68-7.16Q36.68-4.32 37.82-3.20Q38.96-2.08 41.80-2.08L41.80-2.08L45.08-2.08Q47.64-2.08 48.78-2.74Q49.92-3.40 50.12-5L50.12-5Q50.32-6 51.20-6L51.20-6Q51.76-6 52.02-5.72Q52.28-5.44 52.20-4.92L52.20-4.92Q51.92-2.40 50.18-1.20Q48.44 0 45.08 0L45.08 0L41.80 0Q38.08 0 36.34-1.72Q34.60-3.44 34.60-7.16L34.60-7.16L34.60-11.68Q34.60-15.44 36.34-17.18Q38.08-18.92 41.80-18.88L41.80-18.88L45.08-18.88Q48.80-18.88 50.54-17.14Q52.28-15.40 52.28-11.68L52.28-11.68L52.28-9.68Q52.28-8.64 51.24-8.64L51.24-8.64ZM36.68-11.68L36.68-10.72L50.20-10.72L50.20-11.68Q50.20-14.56 49.08-15.68Q47.96-16.80 45.08-16.80L45.08-16.80L41.80-16.80Q38.92-16.84 37.80-15.72Q36.68-14.60 36.68-11.68L36.68-11.68Z M69.68-18.92Q73.44-18.92 75.16-17.18Q76.88-15.44 76.88-11.72L76.88-11.72L76.88-7.20Q76.88-3.48 75.16-1.74Q73.44 0 69.68 0L69.68 0L68.16 0Q63.12 0 61.28-2.76L61.28-2.76L61.28-1.04Q61.28 0 60.24 0L60.24 0Q59.20 0 59.20-1.04L59.20-1.04L59.20-26.68Q59.20-27.72 60.24-27.72L60.24-27.72Q61.28-27.72 61.28-26.68L61.28-26.68L61.28-16.12Q63.12-18.92 68.16-18.92L68.16-18.92L69.68-18.92ZM74.80-7.20L74.80-11.72Q74.80-14.56 73.68-15.70Q72.56-16.84 69.68-16.84L69.68-16.84L68.16-16.84Q64.96-16.84 63.12-15.82Q61.28-14.80 61.28-12.84L61.28-12.84L61.28-6.24L61.28-6.04Q61.28-4.12 63.12-3.10Q64.96-2.08 68.16-2.08L68.16-2.08L69.68-2.08Q72.56-2.08 73.68-3.22Q74.80-4.36 74.80-7.20L74.80-7.20Z M94.20-25.76Q97.60-25.76 99.36-24Q101.12-22.24 101.12-18.84L101.12-18.84L101.12-17.64Q101.12-14.24 99.38-12.48Q97.64-10.72 94.20-10.72L94.20-10.72L85.88-10.72L85.88-1.04Q85.88 0 84.84 0L84.84 0Q83.80 0 83.80-1.04L83.80-1.04L83.80-24.72Q83.80-25.76 84.84-25.76L84.84-25.76L94.20-25.76ZM99.04-17.64L99.04-18.84Q99.04-21.36 97.90-22.52Q96.76-23.68 94.20-23.68L94.20-23.68L85.88-23.68L85.88-12.80L94.20-12.80Q96.76-12.80 97.90-13.94Q99.04-15.08 99.04-17.64L99.04-17.64Z M121.52-8.64L106.96-8.64L106.96-7.16Q106.96-4.32 108.10-3.20Q109.24-2.08 112.08-2.08L112.08-2.08L115.36-2.08Q117.92-2.08 119.06-2.74Q120.20-3.40 120.40-5L120.40-5Q120.60-6 121.48-6L121.48-6Q122.04-6 122.30-5.72Q122.56-5.44 122.48-4.92L122.48-4.92Q122.20-2.40 120.46-1.20Q118.72 0 115.36 0L115.36 0L112.08 0Q108.36 0 106.62-1.72Q104.88-3.44 104.88-7.16L104.88-7.16L104.88-11.68Q104.88-15.44 106.62-17.18Q108.36-18.92 112.08-18.88L112.08-18.88L115.36-18.88Q119.08-18.88 120.82-17.14Q122.56-15.40 122.56-11.68L122.56-11.68L122.56-9.68Q122.56-8.64 121.52-8.64L121.52-8.64ZM106.96-11.68L106.96-10.72L120.48-10.72L120.48-11.68Q120.48-14.56 119.36-15.68Q118.24-16.80 115.36-16.80L115.36-16.80L112.08-16.80Q109.20-16.84 108.08-15.72Q106.96-14.60 106.96-11.68L106.96-11.68Z M139.28-18.88Q140.32-18.88 140.32-17.84L140.32-17.84Q140.32-16.80 139.28-16.80L139.28-16.80Q135.68-16.80 133.72-15.16Q131.76-13.52 131.60-10.48L131.60-10.48Q131.60-10.28 131.56-10.20L131.56-10.20L131.56-1.04Q131.56 0 130.52 0L130.52 0Q129.48 0 129.48-1.04L129.48-1.04L129.48-17.84Q129.48-18.88 130.52-18.88L130.52-18.88Q131.56-18.88 131.56-17.84L131.56-17.84L131.56-14.64Q132.60-16.68 134.58-17.78Q136.56-18.88 139.28-18.88L139.28-18.88Z M151.92-18.88Q152.96-18.88 152.96-17.84L152.96-17.84Q152.96-16.80 151.92-16.80L151.92-16.80L146.96-16.80L146.96-1.04Q146.96 0 145.92 0L145.92 0Q144.88 0 144.88-1.04L144.88-1.04L144.88-16.80L143.16-16.80Q142.12-16.80 142.12-17.84L142.12-17.84Q142.12-18.88 143.16-18.88L143.16-18.88L144.88-18.88L144.88-20.64Q144.88-24.32 146.58-26.02Q148.28-27.72 151.96-27.72L151.96-27.72Q152.96-27.72 152.96-26.68L152.96-26.68Q152.96-25.64 151.96-25.64L151.96-25.64Q149.16-25.64 148.06-24.54Q146.96-23.44 146.96-20.64L146.96-20.64L146.96-18.88L151.92-18.88Z M163.08 0Q159.32 0 157.60-1.72Q155.88-3.44 155.88-7.16L155.88-7.16L155.88-11.68Q155.88-15.48 157.60-17.20Q159.32-18.92 163.08-18.88L163.08-18.88L166.36-18.88Q170.12-18.88 171.84-17.16Q173.56-15.44 173.56-11.68L173.56-11.68L173.56-7.20Q173.56-3.44 171.84-1.72Q170.12 0 166.36 0L166.36 0L163.08 0ZM163.08-2.08L166.36-2.08Q169.20-2.08 170.34-3.22Q171.48-4.36 171.48-7.20L171.48-7.20L171.48-11.68Q171.48-14.52 170.34-15.66Q169.20-16.80 166.36-16.80L166.36-16.80L163.08-16.80Q160.24-16.84 159.10-15.70Q157.96-14.56 157.96-11.68L157.96-11.68L157.96-7.16Q157.96-4.32 159.10-3.20Q160.24-2.08 163.08-2.08L163.08-2.08Z M190.28-18.88Q191.32-18.88 191.32-17.84L191.32-17.84Q191.32-16.80 190.28-16.80L190.28-16.80Q186.68-16.80 184.72-15.16Q182.76-13.52 182.60-10.48L182.60-10.48Q182.60-10.28 182.56-10.20L182.56-10.20L182.56-1.04Q182.56 0 181.52 0L181.52 0Q180.48 0 180.48-1.04L180.48-1.04L180.48-17.84Q180.48-18.88 181.52-18.88L181.52-18.88Q182.56-18.88 182.56-17.84L182.56-17.84L182.56-14.64Q183.60-16.68 185.58-17.78Q187.56-18.88 190.28-18.88L190.28-18.88Z M216.68-18.92Q219.88-18.92 221.28-17.28Q222.68-15.64 222.68-11.88L222.68-11.88L222.68-1Q222.68 0.04 221.64 0.04L221.64 0.04Q220.60 0.04 220.60-1L220.60-1L220.60-11.88Q220.60-14.52 219.68-15.68Q218.76-16.84 216.68-16.84L216.68-16.84L215.04-16.84Q212.40-16.84 211.28-15.68Q210.16-14.52 210.16-11.88L210.16-11.88L210.16-1Q210.16 0.04 209.12 0.04L209.12 0.04Q208.08 0.04 208.08-1L208.08-1L208.08-11.88Q208.08-14.52 207.16-15.68Q206.24-16.84 204.16-16.84L204.16-16.84L202.48-16.84Q199.88-16.84 198.74-15.68Q197.60-14.52 197.60-11.88L197.60-11.88L197.60-1Q197.60 0.04 196.56 0.04L196.56 0.04Q195.52 0.04 195.52-1L195.52-1L195.52-17.84Q195.52-18.88 196.56-18.88L196.56-18.88Q197.60-18.88 197.60-17.84L197.60-17.84L197.60-16.28Q198.48-17.68 199.68-18.30Q200.88-18.92 202.76-18.92L202.76-18.92L204.16-18.92Q206.28-18.92 207.54-18.18Q208.80-17.44 209.56-15.76L209.56-15.76Q210.36-17.44 211.64-18.18Q212.92-18.92 215.04-18.92L215.04-18.92L216.68-18.92Z M238.16-18.88Q241.92-18.88 243.64-17.16Q245.36-15.44 245.36-11.68L245.36-11.68L245.36-1.04Q245.36 0 244.32 0L244.32 0Q243.28 0 243.28-1.04L243.28-1.04L243.28-3Q242.32-1.52 240.58-0.76Q238.84 0 236.40 0L236.40 0L234.16 0Q231.08 0 229.62-1.44Q228.16-2.88 228.16-6L228.16-6Q228.16-9.12 229.62-10.58Q231.08-12.04 234.16-12.04L234.16-12.04L243.28-12.04Q243.20-14.68 242.08-15.74Q240.96-16.80 238.16-16.80L238.16-16.80L235.84-16.80Q233.28-16.80 232.12-16.26Q230.96-15.72 230.68-14.40L230.68-14.40Q230.52-13.88 230.28-13.66Q230.04-13.44 229.60-13.44L229.60-13.44Q229.04-13.44 228.78-13.72Q228.52-14 228.56-14.52L228.56-14.52Q228.84-16.80 230.62-17.84Q232.40-18.88 235.84-18.88L235.84-18.88L238.16-18.88ZM243.20-6.08L243.28-6.40L243.28-9.96L234.16-9.96Q231.92-9.96 231.08-9.10Q230.24-8.24 230.24-6L230.24-6Q230.24-3.80 231.10-2.94Q231.96-2.08 234.16-2.08L234.16-2.08L236.40-2.08Q242.60-2.08 243.20-6.08L243.20-6.08Z M262.52-18.88Q266.28-18.88 268-17.14Q269.72-15.40 269.72-11.68L269.72-11.68L269.72-1.04Q269.72 0 268.68 0L268.68 0Q267.64 0 267.64-1.04L267.64-1.04L267.64-11.68Q267.64-14.56 266.52-15.68Q265.40-16.80 262.52-16.80L262.52-16.80L261.40-16.80Q258.24-16.80 256.48-15.80Q254.72-14.80 254.56-12.84L254.56-12.84Q254.56-12.64 254.52-12.56L254.52-12.56L254.52-1.04Q254.52 0 253.48 0L253.48 0Q252.44 0 252.44-1.04L252.44-1.04L252.44-17.84Q252.44-18.88 253.48-18.88L253.48-18.88Q254.52-18.88 254.52-17.84L254.52-17.84L254.52-15.92Q256.44-18.88 261.40-18.88L261.40-18.88L262.52-18.88Z M283.48 0Q279.76 0 278.02-1.74Q276.28-3.48 276.28-7.20L276.28-7.20L276.28-11.72Q276.28-15.48 278.02-17.20Q279.76-18.92 283.48-18.88L283.48-18.88L286.76-18.88Q289.72-18.88 291.26-17.88Q292.80-16.88 293.08-14.76L293.08-14.76Q293.16-14.28 292.88-13.98Q292.60-13.68 292.08-13.68L292.08-13.68Q291.20-13.68 291.00-14.64L291.00-14.64Q290.76-15.84 289.80-16.32Q288.84-16.80 286.76-16.80L286.76-16.80L283.48-16.80Q280.60-16.84 279.48-15.72Q278.36-14.60 278.36-11.72L278.36-11.72L278.36-7.20Q278.36-4.32 279.50-3.20Q280.64-2.08 283.48-2.08L283.48-2.08L286.76-2.08Q288.84-2.08 289.80-2.56Q290.76-3.04 291.00-4.24L291.00-4.24Q291.20-5.20 292.08-5.20L292.08-5.20Q292.60-5.20 292.88-4.90Q293.16-4.60 293.08-4.12L293.08-4.12Q292.80-2 291.26-1Q289.72 0 286.76 0L286.76 0L283.48 0Z M315.32-8.64L300.76-8.64L300.76-7.16Q300.76-4.32 301.90-3.20Q303.04-2.08 305.88-2.08L305.88-2.08L309.16-2.08Q311.72-2.08 312.86-2.74Q314-3.40 314.20-5L314.20-5Q314.40-6 315.28-6L315.28-6Q315.84-6 316.10-5.72Q316.36-5.44 316.28-4.92L316.28-4.92Q316-2.40 314.26-1.20Q312.52 0 309.16 0L309.16 0L305.88 0Q302.16 0 300.42-1.72Q298.68-3.44 298.68-7.16L298.68-7.16L298.68-11.68Q298.68-15.44 300.42-17.18Q302.16-18.92 305.88-18.88L305.88-18.88L309.16-18.88Q312.88-18.88 314.62-17.14Q316.36-15.40 316.36-11.68L316.36-11.68L316.36-9.68Q316.36-8.64 315.32-8.64L315.32-8.64ZM300.76-11.68L300.76-10.72L314.28-10.72L314.28-11.68Q314.28-14.56 313.16-15.68Q312.04-16.80 309.16-16.80L309.16-16.80L305.88-16.80Q303-16.84 301.88-15.72Q300.76-14.60 300.76-11.68L300.76-11.68Z"/></g>
</svg>
</g></svg></svg>