<svg version="1.1" preserveAspectRatio="none" xmlns="http://www.w3.org/2000/svg" width="500" height="500" viewBox="0 0 500 500"><rect width="100%" height="100%" fill="#FFFFFF" fill-opacity="1"/><svg viewBox="75.1954 191.197 344.1182 164.8595" width="333" height="159.53301365635411" x="83.5px" y="170.2335px" xmlns="http://www.w3.org/2000/svg" xmlns:xlink="http://www.w3.org/1999/xlink" preserveAspectRatio="none"><defs></defs><style>.aLgOaV3zRcolors-3 {fill:#9C8B58;fill-opacity:1;}.aLgOaV3zRcolors-4 {fill:#2C3E57;fill-opacity:1;}.aLgOaV3zRcolors-5 {fill:#C8B889;fill-opacity:1;}.aLgOaV3zRcolors-6 {fill:#9C8B58;fill-opacity:1;}.aLgOaV3zRcolors-7 {fill:#2C3E57;fill-opacity:1;}.companyName {fill:#1A1245;fill-opacity:1;}.icon1 {fill:#9C8B58;fill-opacity:1;}.icon2 {fill:#2C3E57;fill-opacity:1;}.icon3 {fill:#C8B889;fill-opacity:1;}.icon3-str {stroke:#C8B889;stroke-opacity:1;}</style><g opacity="1" transform="rotate(0 75.1954 296.0565)">
<svg width="344.1182" height="60" x="75.1954" y="296.0565" version="1.1" preserveAspectRatio="none" viewBox="2.3047 -29.3359 220.89849999999998 38.5156">
  <g transform="matrix(1 0 0 1 0 0)" class="companyName"><path id="id-D6z1nYkh11" d="M2.30-14.10L2.30-14.10Q2.30-21.05 5.51-24.98Q8.71-28.91 13.91-28.91L13.91-28.91Q17.11-28.91 19.26-27.17Q21.41-25.43 22.38-23.16L22.38-23.16L20.82-22.54Q18.55-27.30 13.87-27.30L13.87-27.30Q9.45-27.30 6.82-23.71Q4.18-20.12 4.18-14.10L4.18-14.10Q4.18-7.97 6.88-4.41Q9.57-0.86 13.87-0.86L13.87-0.86Q16.60-0.86 18.55-2.30Q20.51-3.75 21.52-5.94L21.52-5.94L23.16-5.39Q20.23 0.70 13.91 0.70L13.91 0.70Q8.71 0.70 5.51-3.24Q2.30-7.19 2.30-14.10Z M30.16 0L28.36 0L28.36-29.34L30.16-29.34L30.16 0Z M37.85-10.04L37.85-10.04Q37.85-5.94 39.79-3.36Q41.72-0.78 44.84-0.78L44.84-0.78Q47.93-0.78 49.88-3.38Q51.84-5.98 51.84-10.04L51.84-10.04Q51.84-14.18 49.84-16.70Q47.85-19.22 44.84-19.22L44.84-19.22Q41.84-19.22 39.84-16.72Q37.85-14.22 37.85-10.04ZM36.05-10.04L36.05-10.04Q36.05-14.69 38.40-17.70Q40.74-20.70 44.84-20.70L44.84-20.70Q48.87-20.70 51.25-17.70Q53.63-14.69 53.63-10.04L53.63-10.04Q53.63-7.97 53.09-6.09Q52.54-4.22 51.50-2.68Q50.47-1.13 48.75-0.21Q47.03 0.70 44.84 0.70L44.84 0.70Q40.59 0.70 38.32-2.46Q36.05-5.63 36.05-10.04Z M58.95-6.88L58.95-6.88L58.95-20.04L60.70-20.04L60.70-7.46Q60.70-0.78 65.82-0.78L65.82-0.78Q68.95-0.78 70.59-3.07Q72.23-5.35 72.23-8.52L72.23-8.52L72.23-20.04L73.95-20.04L73.95 0L72.27 0L72.27-3.95Q71.91-2.30 70.20-0.80Q68.48 0.70 65.43 0.70L65.43 0.70Q62.38 0.70 60.66-1.35Q58.95-3.40 58.95-6.88Z M79.53-10.04L79.53-10.04Q79.53-15 81.86-17.85Q84.18-20.70 87.85-20.70L87.85-20.70Q90.31-20.70 92.09-19.16Q93.87-17.62 94.53-15.43L94.53-15.43L94.53-29.34L96.29-29.34L96.29 0L94.57 0L94.57-4.41Q93.79-2.23 92.03-0.76Q90.27 0.70 87.81 0.70L87.81 0.70Q84.49 0.70 82.01-1.99Q79.53-4.69 79.53-10.04ZM81.33-10.04L81.33-10.04Q81.33-5.86 83.14-3.32Q84.96-0.78 88.01-0.78L88.01-0.78Q90.74-0.78 92.66-3.26Q94.57-5.74 94.57-10.04L94.57-10.04Q94.57-14.30 92.62-16.76Q90.66-19.22 87.97-19.22L87.97-19.22Q85-19.22 83.16-16.74Q81.33-14.26 81.33-10.04Z M102.03-4.69L102.03-4.69L103.75-5.35Q105-3.32 107.15-2.09Q109.30-0.86 112.03-0.86L112.03-0.86Q115.39-0.86 117.52-2.52Q119.65-4.18 119.65-7.11L119.65-7.11Q119.65-8.52 119.06-9.59Q118.48-10.66 117.17-11.46Q115.86-12.27 114.82-12.68Q113.79-13.09 111.88-13.75L111.88-13.75Q110.12-14.34 109.18-14.67Q108.24-15 106.82-15.74Q105.39-16.48 104.65-17.23Q103.91-17.97 103.34-19.16Q102.77-20.35 102.77-21.80L102.77-21.80Q102.77-25.08 105.21-26.99Q107.66-28.91 111.88-28.91L111.88-28.91Q114.88-28.91 117.19-27.52Q119.49-26.13 120.59-24.14L120.59-24.14L119.02-23.52Q116.56-27.30 111.76-27.30L111.76-27.30Q108.40-27.30 106.50-25.80Q104.61-24.30 104.61-21.80L104.61-21.80Q104.61-20.66 105.12-19.71Q105.63-18.75 106.29-18.13Q106.95-17.50 108.22-16.89Q109.49-16.29 110.37-15.96Q111.25-15.63 112.85-15.12L112.85-15.12Q114.49-14.57 115.47-14.20Q116.45-13.83 117.73-13.13Q119.02-12.42 119.75-11.66Q120.47-10.90 121.00-9.75Q121.52-8.59 121.52-7.19L121.52-7.19Q121.52-3.48 118.98-1.39Q116.45 0.70 111.95 0.70L111.95 0.70Q105.27 0.70 102.03-4.69Z M128.98-10.08L128.98-10.08Q128.98-5.94 130.80-3.36Q132.62-0.78 135.55-0.78L135.55-0.78Q138.44-0.78 140.33-3.26Q142.23-5.74 142.23-10.04L142.23-10.04Q142.23-14.06 140.47-16.64Q138.71-19.22 135.55-19.22L135.55-19.22Q132.73-19.22 130.86-16.62Q128.98-14.02 128.98-10.08ZM129.02 9.18L127.23 9.18L127.23-20.04L128.98-20.04L128.98-15.47Q129.80-17.85 131.58-19.28Q133.36-20.70 135.70-20.70L135.70-20.70Q139.41-20.70 141.70-17.79Q143.98-14.88 143.98-10.04L143.98-10.04Q143.98-4.88 141.58-2.09Q139.18 0.70 135.66 0.70L135.66 0.70Q133.20 0.70 131.52-0.74Q129.84-2.19 129.02-4.45L129.02-4.45L129.02 9.18Z M151.52 0L149.73 0L149.73-29.34L151.52-29.34L151.52-16.13L151.56-16.13Q152.27-17.93 154.14-19.32Q156.02-20.70 158.48-20.70L158.48-20.70Q161.56-20.70 163.22-18.75Q164.88-16.80 164.88-12.97L164.88-12.97L164.88 0L163.16 0L163.16-12.62Q163.16-19.22 158.16-19.22L158.16-19.22Q155.59-19.22 153.55-17.13Q151.52-15.04 151.52-12.19L151.52-12.19L151.52 0Z M170.23-10.16L170.23-10.16Q170.23-14.80 172.64-17.75Q175.04-20.70 179.02-20.70L179.02-20.70Q183.05-20.70 185.35-17.79Q187.66-14.88 187.66-10.66L187.66-10.66Q187.66-10.43 187.64-10.08Q187.62-9.73 187.62-9.49L187.62-9.49L172.03-9.49Q172.03-5.94 173.93-3.36Q175.82-0.78 179.14-0.78L179.14-0.78Q181.25-0.78 182.99-1.86Q184.73-2.93 185.63-4.57L185.63-4.57L187.15-4.02Q186.09-1.91 184.06-0.61Q182.03 0.70 179.14 0.70L179.14 0.70Q175.04 0.70 172.64-2.32Q170.23-5.35 170.23-10.16ZM172.07-10.86L172.07-10.86L185.86-10.86Q185.86-14.30 183.98-16.76Q182.11-19.22 179.02-19.22L179.02-19.22Q175.82-19.22 173.98-16.70Q172.15-14.18 172.07-10.86Z M194.88 0L193.13 0L193.13-20.04L194.80-20.04L194.80-16.56Q195.35-18.09 196.84-19.39Q198.32-20.70 200.78-20.70L200.78-20.70Q202.54-20.70 203.79-20.12L203.79-20.12L203.79-18.52Q202.38-19.14 200.78-19.14L200.78-19.14Q198.05-19.14 196.46-17.09Q194.88-15.04 194.88-11.84L194.88-11.84L194.88 0Z M205.78-10.16L205.78-10.16Q205.78-14.80 208.18-17.75Q210.59-20.70 214.57-20.70L214.57-20.70Q218.59-20.70 220.90-17.79Q223.20-14.88 223.20-10.66L223.20-10.66Q223.20-10.43 223.18-10.08Q223.16-9.73 223.16-9.49L223.16-9.49L207.58-9.49Q207.58-5.94 209.47-3.36Q211.37-0.78 214.69-0.78L214.69-0.78Q216.80-0.78 218.54-1.86Q220.27-2.93 221.17-4.57L221.17-4.57L222.70-4.02Q221.64-1.91 219.61-0.61Q217.58 0.70 214.69 0.70L214.69 0.70Q210.59 0.70 208.18-2.32Q205.78-5.35 205.78-10.16ZM207.62-10.86L207.62-10.86L221.41-10.86Q221.41-14.30 219.53-16.76Q217.66-19.22 214.57-19.22L214.57-19.22Q211.37-19.22 209.53-16.70Q207.70-14.18 207.62-10.86Z"/></g>
</svg>
</g><g opacity="1" transform="rotate(0 199.078 191.197)">
<svg width="96.3531" height="74.8595" x="199.078" y="191.197" version="1.1" preserveAspectRatio="none" viewBox="859.936767578125 7358.45361328125 58289.125 45286.53125">
  <g transform="matrix(1 0 0 1 0 0)" class="icon1"><defs></defs><g><path class="fil0" d="M51703 30246c183,24 364,37 543,41 1510,32 2929,-599 4022,-1494 1088,-891 1842,-2031 2032,-3029 8,-44 16,-88 22,-131 -546,-173 -1111,-222 -1671,-170 -1008,95 -2000,517 -2830,1138 -829,620 -1492,1435 -1844,2314 -174,435 -272,884 -274,1332zm-48335 -3542c-94,-129 -181,-261 -264,-398l-429 257c90,149 186,294 289,435l404 -294zm3092 2237c-150,-64 -300,-130 -448,-199l-213 452c154,72 309,141 466,207l195 -460zm-1716 -917c-132,-91 -261,-187 -386,-288l-315 388c134,109 273,212 415,310l285 -411zm20035 -6222c201,-90 437,1 527,202 90,201 -1,437 -202,527l-1222 546c-201,90 -437,-1 -527,-202 -90,-201 1,-437 202,-527l1222 -546zm564 1282c183,-123 431,-74 553,109 123,183 74,431 -109,553l-1448 974c-183,123 -431,74 -553,-109 -123,-183 -74,-431 109,-553l1448 -974zm763 1158c158,-154 410,-150 564,8 154,158 150,410 -8,564l-1223 1193c-158,154 -410,150 -564,-8 -154,-158 -150,-410 8,-564l1223 -1193zm1014 946c112,-190 357,-253 547,-141 190,112 253,357 141,547l-1016 1712c-112,190 -357,253 -547,141 -190,-112 -253,-357 -141,-547l1016 -1712zm1225 649c60,-212 280,-336 492,-277 212,60 336,280 277,492l-539 1916c-60,212 -280,336 -492,277 -212,-60 -336,-280 -277,-492l539 -1916zm329 -16194l-5 -53c-17,-181 -37,-404 -82,-614 -64,-295 -179,-557 -419,-505 -459,99 -779,102 -1037,-20 -271,-128 -437,-370 -579,-757 -47,-129 19,-273 148,-320 129,-47 273,19 320,148 96,260 190,415 323,478 146,69 372,58 721,-18 635,-137 893,341 1011,890 43,200 66,412 83,595 237,-62 481,-92 725,-92 50,0 96,1 136,3 40,-2 86,-3 136,-3 285,0 574,40 854,124 18,-190 40,-415 86,-627 118,-549 376,-1027 1011,-890 349,75 575,87 721,18 133,-63 228,-217 323,-478 47,-129 191,-196 320,-148 129,47 196,191 148,320 -142,387 -309,629 -579,757 -258,122 -578,118 -1037,20 -240,-52 -356,210 -419,505 -45,210 -66,433 -82,614 -3,35 -6,69 -9,100 241,121 470,278 678,472 565,528 969,1325 1027,2416 1,17 2,35 2,53l2374 -2684c5,-7 10,-13 16,-20 126,-158 307,-320 510,-462 243,-170 524,-318 778,-400 335,-109 655,-110 878,62 48,37 91,82 129,135 75,106 143,264 175,423 25,123 31,253 8,373 -32,165 -113,312 -263,417 -70,49 -152,85 -247,104 -26,5 -52,8 -78,8l0 2c-246,0 -446,-74 -646,-148 -217,-80 -434,-160 -665,37l-2489 2814c148,179 277,375 384,587 646,-223 1463,-597 2362,-1009 2120,-971 4676,-2142 6783,-2144 1261,-1 2417,687 3117,1652 342,471 577,1011 667,1574 91,572 31,1164 -222,1727 -448,996 -1493,1890 -3365,2389 -189,50 -830,399 -1042,515l-17 9c-146,80 -291,149 -435,209 22,233 2,465 -53,690 -104,427 -335,822 -637,1136 -304,316 -684,554 -1084,660 -280,75 -570,85 -853,16l-8 -2c-28,57 -59,111 -94,164 -194,291 -494,509 -836,632 -331,119 -705,152 -1058,77 -209,-44 -411,-125 -595,-248 -504,-335 -1470,-1414 -2372,-2637 -768,-1041 -1502,-2199 -1877,-3102 -48,-116 -84,-231 -110,-345 -99,-443 -15,-814 168,-1106 179,-287 451,-491 737,-609 14,-6 29,-12 43,-17 -294,-502 -775,-878 -1349,-1126 -556,-241 -1200,-361 -1848,-361 -648,0 -1292,120 -1848,361 -573,248 -1055,624 -1349,1126 15,6 29,11 43,17 285,119 557,322 737,609 183,293 267,664 168,1106 -26,114 -62,229 -110,345 -375,903 -1109,2061 -1877,3102 -902,1223 -1868,2302 -2372,2637 -184,122 -386,203 -595,248 -353,75 -727,43 -1058,-77 -342,-123 -643,-341 -836,-632 -35,-52 -66,-107 -94,-164l-8 2c-283,69 -574,58 -853,-16 -400,-107 -780,-344 -1084,-660 -301,-314 -532,-709 -637,-1136 -55,-224 -75,-456 -53,-690 -144,-60 -289,-129 -435,-209l-17 -9c-212,-115 -853,-464 -1042,-515 -1873,-498 -2918,-1392 -3365,-2389 -253,-563 -313,-1155 -222,-1727 90,-562 325,-1103 667,-1574 700,-965 1855,-1653 3117,-1652 2107,1 4663,1172 6783,2144 899,412 1716,786 2362,1009 106,-212 235,-407 384,-587l-2489 -2814c-231,-198 -448,-117 -665,-37 -200,74 -400,148 -646,148l0 -2c-26,0 -52,-3 -78,-8 -95,-19 -177,-55 -247,-104 -150,-105 -231,-252 -263,-417 -23,-120 -17,-250 8,-373 32,-159 100,-316 175,-423 38,-54 81,-99 129,-135 224,-171 543,-171 878,-62 254,82 535,230 778,400 203,142 384,304 510,462 6,6 11,13 16,20l2374 2684c1,-26 2,-51 3,-75 57,-1078 427,-1866 956,-2389 224,-222 476,-395 744,-522zm-13180 5114c2,138 -108,251 -245,253 -138,2 -251,-108 -253,-245 -9,-437 220,-882 578,-1221 344,-327 812,-562 1304,-600 138,-10 257,93 268,230 10,138 -93,257 -230,268 -373,29 -731,211 -997,464 -262,249 -430,560 -424,852zm7452 803c128,-52 273,10 325,138 52,128 -10,273 -138,325 -261,106 -496,214 -732,321 -901,412 -1815,829 -3223,864 -138,3 -252,-106 -255,-243 -3,-138 106,-252 243,-255 1306,-32 2173,-428 3028,-819 254,-116 507,-232 752,-331zm-1347 5356c15,37 34,73 56,106 96,145 254,256 439,323 196,71 416,90 624,46 114,-24 223,-67 320,-132 408,-271 1218,-1177 2023,-2247 -438,-282 -1838,734 -2855,1473 -219,159 -422,307 -607,432zm3932 -2551c362,-514 702,-1040 981,-1532 -846,-228 -1851,332 -2940,939 -1371,764 -2860,1594 -4520,1268 4,88 16,175 37,261 70,285 228,554 437,770 206,214 456,373 712,441 157,42 315,49 463,13 131,-32 540,-329 1036,-689 1222,-887 2890,-2098 3794,-1471zm1356 -2251c37,-80 72,-159 104,-235 32,-78 55,-148 69,-211 48,-214 13,-384 -68,-513 -84,-134 -220,-233 -365,-294 -53,-22 -103,-38 -149,-48 -781,-174 -1850,-664 -3062,-1220 -2049,-939 -4519,-2071 -6451,-2072 -993,-1 -1909,550 -2470,1324 -271,374 -457,796 -526,1230 -68,424 -23,862 163,1277 355,791 1232,1514 2840,1942 279,74 987,459 1221,587l17 9c1778,968 3458,31 4976,-815 1306,-728 2506,-1397 3702,-962zm8156 6406c-195,-103 -270,-344 -167,-539 103,-195 344,-270 539,-167l1188 624c195,103 270,344 167,539 -103,195 -344,270 -539,167l-1188 -624zm-659 1227c-183,-123 -232,-370 -109,-553 123,-183 370,-232 553,-109l1448 974c183,123 232,370 109,553 -123,183 -370,232 -553,109l-1448 -974zm-875 1067c-158,-154 -161,-406 -8,-564 154,-158 406,-161 564,-8l1223 1193c158,154 161,406 8,564 -154,158 -406,161 -564,8l-1223 -1193zm-1145 780c-112,-190 -49,-435 141,-547 190,-112 435,-49 547,141l1016 1712c112,190 49,435 -141,547 -190,112 -435,49 -547,-141l-1016 -1712zm-1306 459c-60,-212 64,-433 277,-492 212,-60 433,64 492,277l539 1916c60,212 -64,433 -277,492 -212,60 -433,-64 -492,-277l-539 -1916zm-1380 105c-3,-220 174,-401 394,-403 220,-3 401,174 403,394l25 1990c3,220 -174,401 -394,403 -220,3 -401,-174 -403,-394l-25 -1990zm2694 -13852c-95,-699 -374,-1213 -744,-1559 -417,-390 -953,-573 -1471,-573 -32,0 -71,1 -116,4 -15,1 -29,1 -44,0 -44,-2 -82,-3 -113,-3 -507,0 -1007,179 -1391,558 -351,347 -609,866 -696,1576 42,-19 83,-38 126,-57 662,-287 1415,-430 2163,-430 748,0 1501,143 2163,430 41,18 82,36 122,55zm12804 2460c-2,138 -115,247 -253,245 -138,-2 -247,-115 -245,-253 6,-292 -162,-604 -424,-852 -266,-253 -625,-435 -997,-464 -138,-10 -241,-130 -230,-268 10,-138 130,-241 268,-230 492,38 960,274 1304,600 358,340 587,785 578,1221zm-8137 1258c-128,-52 -189,-197 -138,-325 52,-128 197,-189 325,-138 244,99 498,215 752,331 855,391 1722,787 3028,819 138,3 246,117 243,255 -3,138 -117,246 -255,243 -1408,-34 -2322,-452 -3223,-864 -236,-108 -471,-215 -732,-321zm4081 3017c-1660,326 -3149,-504 -4520,-1268 -1089,-607 -2094,-1167 -2940,-939 279,492 620,1018 981,1532 904,-626 2572,584 3794,1471 496,360 905,657 1036,689 148,36 306,29 463,-13 256,-68 506,-227 712,-441 208,-217 367,-486 437,-770 21,-86 34,-173 37,-261zm-6009 -29c805,1071 1615,1976 2023,2247 97,64 206,108 320,132 208,44 428,25 624,-46 185,-67 343,-178 439,-323 22,-33 41,-69 56,-106 -184,-126 -388,-274 -607,-432 -1017,-738 -2417,-1754 -2855,-1473zm-1929 -3132c32,76 66,155 104,235 1196,-435 2396,234 3702,962 1518,846 3198,1782 4976,815l17 -9c234,-127 941,-512 1221,-587 1608,-428 2485,-1150 2840,-1942 186,-415 230,-852 163,-1277 -69,-434 -255,-856 -526,-1230 -561,-774 -1477,-1324 -2470,-1324 -1932,1 -4403,1133 -6451,2072 -1212,556 -2282,1046 -3062,1220 -46,10 -96,26 -149,48 -145,60 -281,159 -365,294 -80,129 -115,299 -68,513 14,63 37,133 69,211zm-25410 15205c-1719,36 -3320,-670 -4544,-1672 -1229,-1006 -2087,-2324 -2310,-3501 -34,-182 -54,-363 -58,-542 -3,-170 101,-318 250,-378l0 0c751,-301 1538,-394 2314,-321 1161,109 2294,589 3236,1294 943,705 1700,1639 2107,2654 170,425 274,804 311,1248 37,448 61,568 391,888 461,447 803,732 1301,1125 -299,-463 -528,-972 -678,-1506 -269,-957 -286,-1996 1,-3001 234,-818 669,-1613 1333,-2321l0 0c4,-4 7,-7 11,-11 157,-154 410,-152 564,5 1032,1047 1665,2373 2011,3760 419,1680 413,3451 187,4909 -2,27 -7,53 -14,80 -3,10 -6,20 -10,29 396,377 828,710 1282,998 1043,541 2113,1049 3189,1555 -673,-664 -1161,-1503 -1418,-2417 -269,-957 -286,-1996 1,-3001 234,-818 669,-1613 1333,-2321l0 0c4,-4 7,-7 11,-11 157,-154 410,-152 564,5 1032,1047 1665,2373 2011,3760 407,1631 413,3349 206,4782 690,627 1485,1161 2252,1645 2290,1245 4483,2703 6398,4686 1916,-1984 4109,-3441 6399,-4686 767,-484 1561,-1018 2251,-1645 -207,-1433 -200,-3151 206,-4782 345,-1386 978,-2713 2011,-3760 154,-157 407,-159 564,-5 4,4 7,7 11,11l0 0c664,709 1099,1504 1333,2321 287,1005 270,2044 1,3001 -257,914 -745,1754 -1418,2417 1076,-506 2145,-1014 3189,-1555 454,-288 886,-621 1282,-998 -4,-10 -7,-19 -10,-29 -8,-27 -12,-53 -14,-80 -226,-1458 -231,-3230 187,-4909 345,-1386 978,-2713 2011,-3760 154,-157 407,-159 564,-5 4,4 7,7 11,11l0 0c664,709 1099,1504 1333,2321 287,1005 270,2044 1,3001 -150,534 -379,1043 -678,1506 480,-380 822,-666 1269,-1095 401,-386 370,-408 426,-943 43,-415 149,-825 309,-1222 407,-1015 1164,-1949 2107,-2654 942,-705 2075,-1185 3236,-1294 775,-73 1562,20 2314,321l0 0c149,60 253,207 250,378 -4,179 -23,361 -58,542 -224,1176 -1082,2495 -2310,3501 -1224,1002 -2825,1708 -4544,1672 -647,-14 -653,-224 -1107,209 -1058,1010 -2207,1871 -3415,2640 218,3 436,19 653,48 986,130 1948,525 2758,1185 656,534 1211,1242 1599,2122 5,10 10,21 14,32 80,205 -21,437 -227,517 -1369,535 -2837,593 -4247,364 -1723,-281 -3360,-993 -4614,-1783 -13,-9 -26,-18 -39,-28 -45,-37 -80,-81 -104,-129 -187,78 -373,159 -556,242 -317,152 -636,303 -955,454 -117,57 -232,114 -347,171 -83,41 -167,83 -402,198 -28,14 -57,21 -85,24 -450,212 -901,424 -1352,639 188,6 377,21 564,46 986,130 1948,525 2758,1185 656,534 1211,1242 1599,2122 5,10 10,21 14,32 80,205 -21,437 -227,517 -1369,535 -2837,593 -4247,364 -1700,-277 -3318,-974 -4565,-1752 -693,271 -1363,595 -1993,904 -1112,783 -2174,1664 -3158,2687 1822,2045 3360,4624 4446,8030 66,210 -50,434 -259,500 -210,66 -434,-50 -500,-259 -1033,-3239 -2499,-5706 -4238,-7673 -1739,1966 -3205,4434 -4238,7673 -66,210 -290,326 -500,259 -210,-66 -326,-290 -259,-500 1086,-3406 2625,-5984 4447,-8030 -984,-1023 -2045,-1904 -3157,-2686 -631,-310 -1302,-634 -1995,-905 -1247,778 -2865,1475 -4565,1752 -1410,230 -2878,172 -4247,-364 -205,-80 -307,-312 -227,-517 4,-11 9,-22 14,-32 388,-880 944,-1588 1599,-2122 810,-661 1772,-1055 2758,-1185 188,-25 376,-40 564,-46 -450,-215 -901,-427 -1352,-639 -29,-3 -58,-11 -85,-24 -235,-115 -320,-157 -402,-198 -114,-56 -230,-113 -347,-171 -319,-151 -638,-302 -955,-454 -183,-83 -369,-164 -556,-242 -25,49 -59,93 -104,129 -13,10 -26,20 -39,28 -1254,790 -2891,1502 -4614,1783 -1410,230 -2878,172 -4247,-364 -205,-80 -307,-312 -227,-517 4,-11 9,-22 14,-32 388,-880 944,-1588 1599,-2122 810,-661 1772,-1055 2758,-1185 217,-29 435,-45 653,-48 -1211,-771 -2363,-1635 -3423,-2649 -442,-423 -465,-214 -1098,-201zm-16 -797c179,-4 360,-17 543,-41 -3,-448 -100,-897 -274,-1332 -352,-879 -1015,-1693 -1844,-2314 -830,-621 -1821,-1043 -2830,-1138 -560,-53 -1126,-3 -1671,170 6,43 13,87 22,131 190,998 944,2138 2032,3029 1093,895 2512,1526 4022,1494zm3858 7127c1428,-233 2796,-785 3908,-1424 -48,-48 -97,-94 -148,-139 -1609,-493 -3290,-557 -4831,628 -109,84 -265,64 -350,-45 -84,-109 -64,-265 45,-350 1248,-960 2554,-1186 3838,-1033 -736,-291 -1544,-385 -2335,-280 -843,111 -1665,449 -2358,1014 -466,380 -874,864 -1190,1452 1107,343 2281,362 3419,177zm7993 4053c1339,-218 2625,-717 3697,-1305 -1590,-459 -3248,-487 -4769,684 -109,84 -265,64 -350,-45 -84,-109 -64,-265 45,-350 1515,-1166 3117,-1264 4661,-916 -215,-144 -441,-267 -675,-369 -774,-338 -1637,-452 -2480,-341 -843,111 -1665,449 -2358,1014 -466,380 -874,864 -1190,1452 1107,343 2281,362 3419,177zm-6128 -8397c138,-1256 100,-2700 -244,-4076 -279,-1118 -759,-2189 -1511,-3071 -415,523 -698,1088 -864,1667 -246,860 -231,1748 -1,2567 230,819 676,1566 1292,2144 126,118 259,229 399,332 -144,-227 -278,-464 -400,-709 -630,-1266 -945,-2765 -783,-4471 13,-137 135,-238 271,-225 137,13 238,135 225,271 -153,1605 143,3013 734,4201 246,495 544,952 881,1369zm7158 3365c111,-1203 58,-2560 -266,-3857 -279,-1118 -759,-2189 -1511,-3071 -415,523 -698,1088 -864,1667 -246,860 -231,1748 -1,2567 230,819 676,1566 1292,2144 207,194 433,368 677,520 -742,-998 -1188,-2201 -1044,-3711 13,-137 135,-238 271,-225 137,13 238,135 225,271 -144,1517 386,2710 1220,3694zm36123 -9436c103,-141 198,-286 289,-435l-429 -257c-83,137 -170,269 -264,398l404 294zm-3301 2403c156,-66 312,-135 466,-207l-213 -452c-148,70 -298,136 -448,199l195 460zm1805 -966c142,-98 281,-202 415,-310l-315 -388c-125,101 -254,197 -386,288l285 411zm-9337 6616c1284,-153 2590,72 3838,1033 109,84 129,241 45,350 -84,109 -241,129 -350,45 -1540,-1186 -3222,-1121 -4831,-628 -50,45 -99,91 -148,139 1112,639 2480,1192 3908,1424 1138,185 2312,166 3419,-177 -317,-588 -724,-1072 -1190,-1452 -693,-565 -1515,-902 -2358,-1014 -791,-105 -1599,-11 -2335,280zm-8814 4483c1544,-348 3146,-250 4661,916 109,84 129,241 45,350 -84,109 -241,129 -350,45 -1521,-1171 -3179,-1142 -4769,-684 1072,588 2358,1087 3697,1305 1138,185 2312,166 3419,-177 -317,-588 -724,-1072 -1190,-1452 -693,-565 -1515,-902 -2358,-1014 -843,-112 -1706,3 -2480,341 -234,102 -460,225 -675,369zm9413 -6465c338,-417 635,-874 881,-1369 591,-1188 887,-2596 734,-4201 -13,-137 88,-259 225,-271 137,-13 259,88 271,225 162,1706 -153,3205 -783,4471 -122,245 -256,482 -400,709 140,-103 273,-214 399,-332 616,-577 1061,-1325 1292,-2144 230,-818 245,-1707 -1,-2567 -165,-579 -449,-1145 -864,-1667 -752,881 -1232,1953 -1511,3071 -343,1376 -382,2820 -244,4076zm-7158 3365c834,-983 1365,-2177 1220,-3694 -13,-137 88,-259 225,-271 137,-13 259,88 271,225 144,1510 -302,2713 -1044,3711 244,-152 470,-326 677,-520 616,-577 1061,-1325 1292,-2144 230,-818 245,-1707 -1,-2567 -165,-579 -449,-1145 -864,-1667 -752,881 -1232,1953 -1511,3071 -323,1297 -376,2654 -266,3857z"></path></g></g>
</svg>
</g></svg></svg>