<svg version="1.1" preserveAspectRatio="none" xmlns="http://www.w3.org/2000/svg" width="500" height="500" viewBox="0 0 500 500"><rect width="100%" height="100%" fill="#222222" fill-opacity="1"/><svg viewBox="-16.2498 104.8 450.9016 160" width="333" height="118.16325335727353" x="83.5px" y="190.9184px" xmlns="http://www.w3.org/2000/svg" xmlns:xlink="http://www.w3.org/1999/xlink" preserveAspectRatio="none"><defs></defs><style>.a7KDWqqaqfillColor {fill:#ebebeb;fill-opacity:0;}.aZzOTVRhffillColor {fill:#ebebeb;fill-opacity:0;}.companyName {fill:#F3F3F3;fill-opacity:1;}.icon3-str {stroke:#A6A6A6;stroke-opacity:1;}.shapeStroke-str {stroke:#F3F3F3;stroke-opacity:1;}</style><g opacity="1" transform="rotate(0 3.7502 124.8)">
<svg width="430.9016" height="140" x="3.7502" y="124.8" version="1.1" preserveAspectRatio="none" viewBox="0 0 430.9016 140">
  <defs><rect x="1.05" y="1.05" width="428.80159999999995" height="137.9" rx="0%" ry="0%" id="id-ZzOTVRhf1743508100367"></rect></defs><use class="aZzOTVRhffillColor shapeStroke-str" style="stroke-width:2.1;" xlink:href="#id-ZzOTVRhf1743508100367"></use>
</svg>
</g><g opacity="1" transform="rotate(0 -16.2498 104.8)">
<svg width="430.9016" height="140" x="-16.2498" y="104.8" version="1.1" preserveAspectRatio="none" viewBox="0 0 430.9016 140">
  <defs><rect x="1.05" y="1.05" width="428.80159999999995" height="137.9" rx="0px" ry="0px" id="id-7KDWqqaq1743508100367"></rect></defs><use class="a7KDWqqaqfillColor shapeStroke-str" style="stroke-width:2.1;" xlink:href="#id-7KDWqqaq1743508100367"></use>
</svg>
</g><g opacity="1" transform="rotate(0 43.7502 164.8)">
<svg width="330.9016" height="40" x="43.7502" y="164.8" version="1.1" preserveAspectRatio="none" viewBox="2 -28.48 239.52 28.96">
  <g transform="matrix(1 0 0 1 0 0)" class="companyName"><path id="id-D6z1nYkh10" d="M29.56-4.08L28.36-5.16Q24.28-1.32 18.68-1.32L18.68-1.32Q15.56-1.32 13.16-2.40Q10.76-3.48 9.16-5.28Q7.56-7.08 6.74-9.44Q5.92-11.80 5.92-14.36L5.92-14.36Q5.92-17.08 6.78-19.34Q7.64-21.60 9.20-23.24Q10.76-24.88 12.90-25.80Q15.04-26.72 17.56-26.72L17.56-26.72Q19.28-26.72 20.70-26.32Q22.12-25.92 23.22-25.28Q24.32-24.64 25.02-23.82Q25.72-23 26-22.16L26-22.16L28.96-22.16Q28.36-23.52 27.42-24.68Q26.48-25.84 25.08-26.68Q23.68-27.52 21.80-28Q19.92-28.48 17.52-28.48L17.52-28.48Q14.04-28.48 11.18-27.48Q8.32-26.48 6.28-24.62Q4.24-22.76 3.12-20.14Q2-17.52 2-14.28L2-14.28Q2-11.48 2.90-8.82Q3.80-6.16 5.68-4.10Q7.56-2.04 10.48-0.78Q13.40 0.48 17.44 0.48L17.44 0.48Q20 0.48 22.02 0Q24.04-0.48 25.54-1.18Q27.04-1.88 28.04-2.68Q29.04-3.48 29.56-4.08L29.56-4.08Z M53.08-9.96L53.08-9.96Q53.08-7.88 52.36-5.98Q51.64-4.08 50.30-2.64Q48.96-1.20 47.06-0.36Q45.16 0.48 42.80 0.48L42.80 0.48Q40.40 0.48 38.46-0.38Q36.52-1.24 35.18-2.68Q33.84-4.12 33.10-6.02Q32.36-7.92 32.36-9.96L32.36-9.96Q32.36-12.04 33.10-13.94Q33.84-15.84 35.18-17.28Q36.52-18.72 38.46-19.58Q40.40-20.44 42.80-20.44L42.80-20.44Q45.16-20.44 47.06-19.58Q48.96-18.72 50.30-17.28Q51.64-15.84 52.36-13.94Q53.08-12.04 53.08-9.96ZM49.28-9.96L49.28-9.96Q49.28-12.76 48.68-14.50Q48.08-16.24 47.12-17.20Q46.16-18.16 45-18.50Q43.84-18.84 42.76-18.84L42.76-18.84Q41.68-18.84 40.52-18.50Q39.36-18.16 38.38-17.20Q37.40-16.24 36.78-14.50Q36.16-12.76 36.16-9.96L36.16-9.96Q36.16-7.20 36.78-5.46Q37.40-3.72 38.38-2.76Q39.36-1.80 40.52-1.46Q41.68-1.12 42.76-1.12L42.76-1.12Q43.84-1.12 45-1.46Q46.16-1.80 47.12-2.76Q48.08-3.72 48.68-5.46Q49.28-7.20 49.28-9.96Z M76.04 0L76.04-28L72.64-28L72.64-16.72L72.48-16.72Q72.08-17.76 71.42-18.46Q70.76-19.16 69.92-19.60Q69.08-20.04 68.14-20.24Q67.20-20.44 66.24-20.44L66.24-20.44Q64.24-20.44 62.56-19.70Q60.88-18.96 59.66-17.60Q58.44-16.24 57.76-14.32Q57.08-12.40 57.08-10.04L57.08-10.04Q57.08-7.64 57.76-5.70Q58.44-3.76 59.66-2.38Q60.88-1 62.56-0.26Q64.24 0.48 66.24 0.48L66.24 0.48Q70.96 0.48 72.48-3.24L72.48-3.24L72.64-3.24L72.64 0L76.04 0ZM72.64-11.48L72.64-8Q72.64-6.68 72.20-5.50Q71.76-4.32 71.02-3.46Q70.28-2.60 69.26-2.10Q68.24-1.60 67.08-1.60L67.08-1.60Q65.80-1.60 64.68-2.06Q63.56-2.52 62.72-3.52Q61.88-4.52 61.38-6.12Q60.88-7.72 60.88-9.96L60.88-9.96Q60.88-12.24 61.38-13.84Q61.88-15.44 62.74-16.46Q63.60-17.48 64.72-17.94Q65.84-18.40 67.08-18.40L67.08-18.40Q68.20-18.40 69.20-17.94Q70.20-17.48 70.96-16.58Q71.72-15.68 72.18-14.40Q72.64-13.12 72.64-11.48L72.64-11.48Z M85-9.12L100.20-9.12L100.20-9.96Q100.20-12.64 99.44-14.60Q98.68-16.56 97.38-17.84Q96.08-19.12 94.36-19.76Q92.64-20.40 90.72-20.40L90.72-20.40Q88.68-20.40 86.96-19.70Q85.24-19 83.96-17.66Q82.68-16.32 81.96-14.42Q81.24-12.52 81.24-10.12L81.24-10.12Q81.24-8.12 81.86-6.22Q82.48-4.32 83.74-2.82Q85-1.32 86.94-0.42Q88.88 0.48 91.52 0.48L91.52 0.48Q94.08 0.48 96.24-0.42Q98.40-1.32 100-3L100-3L98.72-4.28Q97.88-3.56 97.14-2.96Q96.40-2.36 95.64-1.96Q94.88-1.56 94.06-1.34Q93.24-1.12 92.24-1.12L92.24-1.12Q91.12-1.12 89.86-1.46Q88.60-1.80 87.52-2.68Q86.44-3.56 85.72-5.12Q85-6.68 85-9.12L85-9.12ZM96.72-10.72L85-10.72Q85-12.32 85.34-13.82Q85.68-15.32 86.38-16.48Q87.08-17.64 88.16-18.34Q89.24-19.04 90.72-19.04L90.72-19.04Q93.56-19.04 95.14-16.82Q96.72-14.60 96.72-10.72L96.72-10.72Z M122.56-3.96L109.72-28L107.00-28L107.00 0L108.76 0L108.76-22.84L108.92-22.84L121.28 0.48L122.00 0.48L134.64-22.68L134.80-22.68L134.80 0L138.44 0L138.44-28L135.68-28L122.72-3.96L122.56-3.96Z M153.80-20.44L153.80-20.44Q156.72-20.44 158.32-19.62Q159.92-18.80 160.66-17.48Q161.40-16.16 161.52-14.44Q161.64-12.72 161.64-10.92L161.64-10.92L161.64 0L158.40 0L158.40-1.96Q157.24-0.84 155.44-0.18Q153.64 0.48 151.84 0.48L151.84 0.48Q150.12 0.48 148.80-0.12Q147.48-0.72 146.60-1.68Q145.72-2.64 145.28-3.84Q144.84-5.04 144.84-6.28L144.84-6.28Q144.84-7.56 145.32-8.84Q145.80-10.12 146.76-11.14Q147.72-12.16 149.12-12.80Q150.52-13.44 152.32-13.44L152.32-13.44Q154.12-13.44 155.74-12.74Q157.36-12.04 158.40-10.76L158.40-10.76L158.40-12.48Q158.40-15.76 157.42-17.36Q156.44-18.96 153.84-18.96L153.84-18.96Q152.72-18.96 151.88-18.68Q151.04-18.40 150.38-17.90Q149.72-17.40 149.16-16.66Q148.60-15.92 148.04-15L148.04-15L145.96-17.08Q146.52-17.68 147.14-18.28Q147.76-18.88 148.66-19.36Q149.56-19.84 150.80-20.14Q152.04-20.44 153.80-20.44ZM158.40-4.84L158.40-7.92Q158.20-8.40 157.82-9.04Q157.44-9.68 156.84-10.28Q156.24-10.88 155.40-11.30Q154.56-11.72 153.40-11.72L153.40-11.72Q152.24-11.72 151.28-11.26Q150.32-10.80 149.66-10.06Q149.00-9.32 148.64-8.32Q148.28-7.32 148.28-6.24L148.28-6.24Q148.28-4.96 148.74-4.02Q149.20-3.08 149.92-2.42Q150.64-1.76 151.52-1.44Q152.40-1.12 153.20-1.12L153.20-1.12Q153.96-1.12 154.74-1.40Q155.52-1.68 156.22-2.18Q156.92-2.68 157.48-3.36Q158.04-4.04 158.40-4.84L158.40-4.84Z M171.44-10.08L171.44-28L168.04-28L168.04 0L171.44 0L171.44-7.52L173.76-9.88L181.80 0L186.28 0L176.24-12.32L183.88-20L181.28-20L171.44-10.08Z M192.04-9.12L207.24-9.12L207.24-9.96Q207.24-12.64 206.48-14.60Q205.72-16.56 204.42-17.84Q203.12-19.12 201.40-19.76Q199.68-20.40 197.76-20.40L197.76-20.40Q195.72-20.40 194.00-19.70Q192.28-19 191.00-17.66Q189.72-16.32 189.00-14.42Q188.28-12.52 188.28-10.12L188.28-10.12Q188.28-8.12 188.90-6.22Q189.52-4.32 190.78-2.82Q192.04-1.32 193.98-0.42Q195.92 0.48 198.56 0.48L198.56 0.48Q201.12 0.48 203.28-0.42Q205.44-1.32 207.04-3L207.04-3L205.76-4.28Q204.92-3.56 204.18-2.96Q203.44-2.36 202.68-1.96Q201.92-1.56 201.10-1.34Q200.28-1.12 199.28-1.12L199.28-1.12Q198.16-1.12 196.90-1.46Q195.64-1.80 194.56-2.68Q193.48-3.56 192.76-5.12Q192.04-6.68 192.04-9.12L192.04-9.12ZM203.76-10.72L192.04-10.72Q192.04-12.32 192.38-13.82Q192.72-15.32 193.42-16.48Q194.12-17.64 195.20-18.34Q196.28-19.04 197.76-19.04L197.76-19.04Q200.60-19.04 202.18-16.82Q203.76-14.60 203.76-10.72L203.76-10.72Z M215.84-20L212.44-20L212.44 0L215.84 0L215.84-12.08Q215.84-13.72 216.22-14.86Q216.60-16 217.20-16.72Q217.80-17.44 218.52-17.76Q219.24-18.08 219.92-18.08L219.92-18.08Q220.84-18.08 221.62-17.48Q222.40-16.88 222.76-16.36L222.76-16.36L224.12-18.84Q223.76-19.32 223.26-19.64Q222.76-19.96 222.26-20.14Q221.76-20.32 221.34-20.38Q220.92-20.44 220.72-20.44L220.72-20.44Q219.04-20.44 217.92-19.52Q216.80-18.60 216.08-16.80L216.08-16.80L215.84-16.80L215.84-20Z M238.20-15.44L240.48-15.44Q240.48-16.52 239.92-17.44Q239.36-18.36 238.38-19.02Q237.40-19.68 236.10-20.06Q234.80-20.44 233.32-20.44L233.32-20.44Q231.92-20.44 230.70-20.08Q229.48-19.72 228.58-19Q227.68-18.28 227.16-17.22Q226.64-16.16 226.64-14.76L226.64-14.76Q226.64-12.84 227.52-11.72Q228.40-10.60 229.72-9.92Q231.04-9.24 232.58-8.82Q234.12-8.40 235.44-7.90Q236.76-7.40 237.64-6.64Q238.52-5.88 238.52-4.56L238.52-4.56Q238.52-4 238.34-3.40Q238.16-2.80 237.68-2.30Q237.20-1.80 236.36-1.46Q235.52-1.12 234.24-1.12L234.24-1.12Q232.64-1.12 231.54-1.62Q230.44-2.12 229.74-2.82Q229.04-3.52 228.74-4.24Q228.44-4.96 228.44-5.44L228.44-5.44L225.84-5.44Q225.84-4.32 226.36-3.26Q226.88-2.20 227.94-1.36Q229.00-0.52 230.54-0.02Q232.08 0.48 234.12 0.48L234.12 0.48Q237.80 0.48 239.66-1.14Q241.52-2.76 241.52-5.40L241.52-5.40Q241.52-7.32 240.62-8.48Q239.72-9.64 238.36-10.34Q237.00-11.04 235.42-11.48Q233.84-11.92 232.48-12.40Q231.12-12.88 230.22-13.56Q229.32-14.24 229.32-15.48L229.32-15.48Q229.32-16 229.52-16.58Q229.72-17.16 230.20-17.66Q230.68-18.16 231.48-18.50Q232.28-18.84 233.48-18.84L233.48-18.84Q234.68-18.84 235.56-18.50Q236.44-18.16 237.04-17.66Q237.64-17.16 237.92-16.56Q238.20-15.96 238.20-15.44L238.20-15.44Z"/></g>
</svg>
</g></svg></svg>