<svg version="1.1" preserveAspectRatio="none" xmlns="http://www.w3.org/2000/svg" width="500" height="500" viewBox="0 0 500 500"><rect width="100%" height="100%" fill="#FFFFFF" fill-opacity="1"/><svg viewBox="307.1191 210.0255 365.9196 50" width="333" height="45.50179875579226" x="83.5px" y="227.2491px" xmlns="http://www.w3.org/2000/svg" xmlns:xlink="http://www.w3.org/1999/xlink" preserveAspectRatio="none"><defs></defs><style>.aD6z1nYkhcolor {fill:#1A1245;fill-opacity:1;}.atBXipXk0bfillColor {fill:#808080;fill-opacity:1;}.icon3-str {stroke:#C8B889;stroke-opacity:1;}.shapeStroke-str {stroke:#2C3E57;stroke-opacity:1;}</style><g opacity="1" transform="rotate(0 324.1191 210.0255)">
<svg width="348.9196" height="50" x="324.1191" y="210.0255" version="1.1" preserveAspectRatio="none" viewBox="1.6602 -28.6914 208.2616 29.8438">
  <g transform="matrix(1 0 0 1 0 0)" class="aD6z1nYkhcolor"><path id="id-D6z1nYkh10" d="M33.36-15.39L33.36-15.39Q33.24-14.75 33.11-14.14L33.11-14.14Q32.34-10.82 30.51-8.18L30.51-8.18Q28.30-5.04 25.20-3.01L25.20-3.01Q19.90 0.45 13.42 0.53L13.42 0.53L11.86 0.53Q10.72 0.53 9.75 0.51L9.75 0.51L7.46 0.51Q5.82 0.51 4.98 0.45L4.98 0.45L4.53 0.45Q3.77 0.45 2.50 0.57L2.50 0.57Q1.66 0.57 1.66-0.10L1.66-0.10Q1.66-0.21 1.68-0.33L1.68-0.33Q1.86-1.02 2.91-1.37Q3.96-1.72 4.22-2.79L4.22-2.79L9.26-24.73Q9.34-25 9.34-25.21L9.34-25.21Q9.34-25.74 8.95-25.90L8.95-25.90Q7.85-26.29 7.85-26.97L7.85-26.97Q7.85-27.07 7.89-27.17L7.89-27.17Q8.05-27.89 8.87-27.89L8.87-27.89Q9.69-27.87 10.53-27.87L10.53-27.87Q11.35-27.87 12.19-27.89L12.19-27.89Q13.89-27.95 15.51-27.99L15.51-27.99L16.66-27.99Q19.67-27.99 22.68-27.83L22.68-27.83Q26.33-27.62 29.00-26.33L29.00-26.33Q31.56-25.06 32.83-22.48L32.83-22.48Q33.63-20.86 33.63-18.48L33.63-18.48Q33.63-17.07 33.36-15.39ZM14.12-25.31L14.12-25.31L8.81-2.25Q10.63-1.89 12.79-1.89L12.79-1.89Q13.63-1.89 14.43-1.95L14.43-1.95Q17.36-2.19 19.88-3.34L19.88-3.34Q22.85-4.75 25.06-7.62L25.06-7.62Q27.07-10.29 28.03-14.45L28.03-14.45L28.18-15.08Q28.54-16.76 28.54-18.13L28.54-18.13Q28.54-19.30 28.28-20.25L28.28-20.25Q27.75-22.29 26.43-23.50L26.43-23.50Q24.47-25.25 21.13-25.57L21.13-25.57Q19.96-25.66 18.73-25.66L18.73-25.66Q16.37-25.66 14.12-25.31Z M46.09-0.29L46.27-1.05L41.27 0.64Q40.51 0.88 40 0.88L40 0.88L39.18 0.88Q36.17 0.72 34.51-1.58L34.51-1.58Q33.28-3.32 33.28-5.64L33.28-5.64Q33.28-6.33 33.38-7.05L33.38-7.05Q33.50-7.89 33.69-8.67L33.69-8.67Q33.93-9.69 34.28-10.66L34.28-10.66Q34.92-12.40 36.39-14.10L36.39-14.10Q37.13-15 38.65-16.00L38.65-16.00Q39.20-16.31 39.84-16.56L39.84-16.56Q41.58-17.17 43.26-17.74Q44.94-18.32 46.68-18.93L46.68-18.93Q47.13-19.06 47.52-19.06L47.52-19.06L47.64-19.06Q48.96-19.00 50.68-18.40L50.68-18.40Q50.96-18.30 50.98-18.28L50.98-18.28Q51.27-18.14 51.84-17.93L51.84-17.93Q51.97-17.89 52.09-17.89L52.09-17.89Q52.23-17.89 52.36-17.97L52.36-17.97Q52.81-18.30 53.01-18.50L53.01-18.50Q53.26-18.79 53.67-18.79L53.67-18.79Q53.89-18.79 54.08-18.71L54.08-18.71Q54.69-18.46 54.69-18.03L54.69-18.03L54.69-17.93L51.21-2.77Q51.13-2.50 51.13-2.29L51.13-2.29Q51.13-1.76 51.52-1.60L51.52-1.60Q52.62-1.17 52.62-0.53L52.62-0.53Q52.62-0.43 52.58-0.33L52.58-0.33Q52.42 0.39 51.60 0.39L51.60 0.39L46.86 0.39Q46.09 0.39 46.09-0.18L46.09-0.18L46.09-0.29ZM46.76-3.13L49.49-14.94Q49.00-15.49 47.94-16.06Q46.88-16.64 46.02-16.68L46.02-16.68L45.96-16.68Q45.66-16.68 45.33-16.56L45.33-16.56Q44.57-16.31 43.82-16.04Q43.07-15.78 42.30-15.53L42.30-15.53Q41.86-15.35 41.56-15.12L41.56-15.12Q40.12-13.87 39.32-12.11L39.32-12.11Q38.67-10.76 38.38-9.43L38.38-9.43Q38.28-9.00 38.22-8.57L38.22-8.57Q38.09-7.68 38.09-6.91L38.09-6.91Q38.09-5.31 38.65-4.18L38.65-4.18Q39.45-2.54 41.11-2.05L41.11-2.05Q41.72-1.86 42.38-1.86L42.38-1.86Q42.60-1.86 42.85-1.88L42.85-1.88Q43.20-1.91 43.81-2.11L43.81-2.11Q44.26-2.25 45.29-2.61Q46.33-2.97 46.76-3.13L46.76-3.13Z M58.20-4.94L60.78-16.09Q60.64-16.09 59.14-16.02L59.14-16.02L59.02-16.02Q58.22-16.02 58.22-16.68L58.22-16.68Q58.22-16.78 58.24-16.84L58.24-16.84L58.24-16.88Q58.38-17.40 59.00-17.68L59.00-17.68Q59.41-17.85 60.80-18.50L60.80-18.50Q61.13-18.67 61.46-18.79L61.46-18.79Q61.52-18.81 61.52-18.83L61.52-18.83Q61.52-18.85 61.41-18.85L61.41-18.85L62.11-21.86Q62.36-22.97 62.93-23.41Q63.50-23.85 65.16-24.57L65.16-24.57Q65.86-24.86 66.29-24.86L66.29-24.86Q67.13-24.86 67.13-24.16L67.13-24.16Q67.13-24.04 67.11-23.91L67.11-23.91L65.96-18.93L70.04-19.00L70.06-19.00Q70.76-19.00 70.76-18.36L70.76-18.36Q70.76-18.20 70.72-18.03L70.72-18.03Q70.64-17.73 70.47-17.32L70.47-17.32Q69.94-16.13 68.91-16.13L68.91-16.13L65.33-16.15L62.58-4.24Q62.46-3.75 62.46-3.36L62.46-3.36Q62.46-2.42 63.07-1.91L63.07-1.91Q63.98-1.13 65.20-0.96L65.20-0.96L64.84 0.37Q61.46 0.37 59.53-0.20L59.53-0.20Q57.93-0.66 57.93-2.79L57.93-2.79Q57.93-3.71 58.20-4.94L58.20-4.94Z M81.97-0.29L82.15-1.05L77.15 0.64Q76.39 0.88 75.88 0.88L75.88 0.88L75.06 0.88Q72.05 0.72 70.39-1.58L70.39-1.58Q69.16-3.32 69.16-5.64L69.16-5.64Q69.16-6.33 69.26-7.05L69.26-7.05Q69.38-7.89 69.57-8.67L69.57-8.67Q69.80-9.69 70.16-10.66L70.16-10.66Q70.80-12.40 72.27-14.10L72.27-14.10Q73.01-15 74.53-16.00L74.53-16.00Q75.08-16.31 75.72-16.56L75.72-16.56Q77.46-17.17 79.14-17.74Q80.82-18.32 82.56-18.93L82.56-18.93Q83.01-19.06 83.40-19.06L83.40-19.06L83.52-19.06Q84.84-19.00 86.56-18.40L86.56-18.40Q86.84-18.30 86.86-18.28L86.86-18.28Q87.15-18.14 87.71-17.93L87.71-17.93Q87.85-17.89 87.97-17.89L87.97-17.89Q88.11-17.89 88.24-17.97L88.24-17.97Q88.69-18.30 88.89-18.50L88.89-18.50Q89.14-18.79 89.55-18.79L89.55-18.79Q89.77-18.79 89.96-18.71L89.96-18.71Q90.57-18.46 90.57-18.03L90.57-18.03L90.57-17.93L87.09-2.77Q87.01-2.50 87.01-2.29L87.01-2.29Q87.01-1.76 87.40-1.60L87.40-1.60Q88.50-1.17 88.50-0.53L88.50-0.53Q88.50-0.43 88.46-0.33L88.46-0.33Q88.30 0.39 87.48 0.39L87.48 0.39L82.73 0.39Q81.97 0.39 81.97-0.18L81.97-0.18L81.97-0.29ZM82.64-3.13L85.37-14.94Q84.88-15.49 83.82-16.06Q82.75-16.64 81.89-16.68L81.89-16.68L81.84-16.68Q81.54-16.68 81.21-16.56L81.21-16.56Q80.45-16.31 79.70-16.04Q78.95-15.78 78.18-15.53L78.18-15.53Q77.73-15.35 77.44-15.12L77.44-15.12Q76.00-13.87 75.20-12.11L75.20-12.11Q74.55-10.76 74.26-9.43L74.26-9.43Q74.16-9.00 74.10-8.57L74.10-8.57Q73.96-7.68 73.96-6.91L73.96-6.91Q73.96-5.31 74.53-4.18L74.53-4.18Q75.33-2.54 76.99-2.05L76.99-2.05Q77.60-1.86 78.26-1.86L78.26-1.86Q78.48-1.86 78.73-1.88L78.73-1.88Q79.08-1.91 79.69-2.11L79.69-2.11Q80.14-2.25 81.17-2.61Q82.21-2.97 82.64-3.13L82.64-3.13Z M100.06-1.46L100.06-1.46Q101.56-1.56 103.09-2.25Q104.61-2.93 105.74-4.26L105.74-4.26Q106.93-5.66 107.40-7.64L107.40-7.64L107.44-7.85Q107.56-8.38 107.56-8.83L107.56-8.83Q107.56-10.14 106.68-10.92L106.68-10.92Q106.15-11.39 105.25-11.66L105.25-11.66Q103.38-12.21 101.24-12.45Q99.10-12.70 97.30-13.67L97.30-13.67Q95.59-14.59 95.06-16.35L95.06-16.35Q94.79-17.23 94.79-18.18L94.79-18.18Q94.79-19.04 94.98-19.94L94.98-19.94Q95.86-23.75 99.08-26.17L99.08-26.17Q102.40-28.69 106.58-28.69L106.58-28.69L107.19-28.69Q111.66-28.50 114.61-26.25L114.61-26.25L113.11-21.93Q112.89-21.29 112.19-21.29L112.19-21.29L112.09-21.29Q111.43-21.35 111.27-22.17L111.27-22.17Q110.88-23.81 109.67-24.94Q108.46-26.07 106.84-26.15L106.84-26.15L106.54-26.15Q104.86-26.15 103.42-25.55L103.42-25.55Q102.46-25.12 101.84-24.59L101.84-24.59Q101.23-24.08 100.70-23.32L100.70-23.32Q100.25-22.71 99.90-21.89L99.90-21.89Q99.63-21.29 99.51-20.76L99.51-20.76Q99.39-20.25 99.39-19.82L99.39-19.82Q99.39-19.63 99.41-19.43L99.41-19.43Q99.51-18.26 100.23-17.66L100.23-17.66Q100.78-17.17 101.50-16.99L101.50-16.99Q101.95-16.86 102.61-16.74Q103.26-16.62 103.98-16.50L103.98-16.50Q105.06-16.33 106.28-16.13Q107.50-15.94 108.63-15.57L108.63-15.57Q110.61-14.90 111.41-13.73L111.41-13.73Q111.97-12.87 112.21-11.86L112.21-11.86Q112.30-11.31 112.30-10.72L112.30-10.72Q112.30-9.84 112.09-8.91L112.09-8.91Q111.09-4.59 106.91-1.72L106.91-1.72Q104.77-0.21 102.38 0.49L102.38 0.49Q100.47 1.05 98.42 1.13L98.42 1.13Q97.99 1.15 97.56 1.15L97.56 1.15Q94.75 1.15 92.09 0.27L92.09 0.27L91.39-5.14L91.39-5.39Q91.48-5.70 91.72-5.96L91.72-5.96Q92.07-6.39 92.66-6.39L92.66-6.39Q93.20-6.23 93.42-5.51L93.42-5.51Q94.00-2.95 95.51-2.13L95.51-2.13Q96.78-1.43 99.02-1.43L99.02-1.43Q99.51-1.43 100.06-1.46Z M120.37 0.88L120.37 0.88Q114.75 0.88 113.26-2.81L113.26-2.81Q112.62-4.39 112.62-6.17L112.62-6.17Q112.62-7.40 112.91-8.71L112.91-8.71Q113.16-9.77 113.59-10.88L113.59-10.88Q115.10-14.73 117.94-16.89Q120.78-19.06 124.80-19.06L124.80-19.06Q131.89-19.06 131.89-13.42L131.89-13.42Q131.89-12.19 131.56-10.68L131.56-10.68Q131.35-9.88 131.18-9.41Q131.02-8.95 129.88-8.95L129.88-8.95L117.93-8.95Q117.70-7.91 117.70-6.76L117.70-6.76Q117.70-5.02 118.38-3.75L118.38-3.75Q119.45-1.74 122.30-1.74L122.30-1.74Q123.03-1.74 123.96-1.93Q124.90-2.13 126.35-2.79L126.35-2.79Q127.70-3.46 128.22-3.46L128.22-3.46Q128.50-3.46 128.79-3.26L128.79-3.26Q128.89-3.07 128.89-2.93L128.89-2.93L128.89-2.81Q128.81-2.46 128.38-1.93L128.38-1.93Q128.03-1.43 127.82-1.25Q127.62-1.07 127.46-0.96L127.46-0.96Q125.78 0.23 123.92 0.56Q122.05 0.88 120.37 0.88ZM118.44-11.15L118.44-11.15L127.66-11.15Q127.93-12.32 127.93-13.42L127.93-13.42Q127.93-14.67 127.50-15.37L127.50-15.37Q126.74-16.60 124.41-16.60L124.41-16.60Q122.01-16.60 120.48-14.94Q118.95-13.28 118.44-11.15Z M145.06-19.06L145.06-19.06L145.49-19.06Q148.87-19.06 151.48-17.07L151.48-17.07L150.31-13.55Q150.10-13.01 149.53-13.01L149.53-13.01L149.43-13.01Q148.87-13.07 148.73-13.73L148.73-13.73Q148.38-15.29 147.42-15.96L147.42-15.96Q146.48-16.60 144.86-16.60L144.86-16.60L144.41-16.60Q142.44-16.50 141.13-15.49L141.13-15.49Q139.94-14.53 139.14-13.13L139.14-13.13Q138.36-11.78 137.95-10.04L137.95-10.04Q137.83-9.49 137.75-8.91L137.75-8.91Q137.60-7.95 137.60-7.09L137.60-7.09Q137.60-5.49 138.18-4.32L138.18-4.32Q139.36-2.09 141.27-1.80L141.27-1.80Q141.56-1.74 141.91-1.74L141.91-1.74Q143.54-1.74 145.82-2.85L145.82-2.85Q147.19-3.52 147.71-3.52L147.71-3.52Q148.05-3.52 148.20-3.36L148.20-3.36Q148.36-3.20 148.36-3.01L148.36-3.01L148.36-2.89Q148.28-2.56 147.89-1.99L147.89-1.99Q147.42-1.35 146.88-0.96L146.88-0.96Q145.47 0.08 143.67 0.48Q141.88 0.88 140.35 0.88L140.35 0.88Q136.48 0.86 134.36-1.31L134.36-1.31Q132.64-2.99 132.64-5.78L132.64-5.78Q132.64-6.50 132.75-7.30L132.75-7.30Q132.87-8.18 133.07-9.00L133.07-9.00Q133.32-10.08 133.69-11.09L133.69-11.09Q134.36-12.89 135.88-14.65L135.88-14.65Q137.48-16.54 139.86-17.74Q142.25-18.95 145.06-19.06Z M173.42-20L169.45-2.77Q169.38-2.50 169.38-2.29L169.38-2.29Q169.38-1.76 169.77-1.60L169.77-1.60Q170.86-1.17 170.86-0.53L170.86-0.53Q170.86-0.43 170.82-0.33L170.82-0.33Q170.66 0.39 169.84 0.39L169.84 0.39L165.10 0.39Q164.34 0.39 164.34-0.18L164.34-0.18L164.34-0.29L164.47-0.88Q164.14-0.76 163.23-0.43Q162.32-0.10 161.56 0.14L161.56 0.14Q159.55 0.76 157.52 0.96L157.52 0.96Q157.21 0.98 156.93 0.98L156.93 0.98Q155.10 0.98 153.73-0.25L153.73-0.25Q152.46-1.43 152.46-4.06L152.46-4.06Q152.46-5.86 153.03-8.36L153.03-8.36L154.65-15.43Q154.73-15.68 154.73-15.90L154.73-15.90Q154.73-16.43 154.32-16.58L154.32-16.58Q153.24-17.01 153.24-17.68L153.24-17.68Q153.24-17.77 153.28-17.87L153.28-17.87Q153.44-18.59 154.24-18.59L154.24-18.59Q155.49-18.65 156.79-18.98Q158.09-19.32 160.25-20L160.25-20L157.54-8.24Q157.13-6.46 157.13-5.16L157.13-5.16Q157.13-3.40 157.85-2.50L157.85-2.50Q158.59-1.56 159.96-1.56L159.96-1.56Q160.80-1.56 161.91-1.91L161.91-1.91Q162.36-2.05 163.08-2.29Q163.79-2.54 164.30-2.71L164.30-2.71Q164.39-2.75 164.64-2.83Q164.88-2.91 164.96-2.95L164.96-2.95L167.81-15.43Q167.89-15.68 167.89-15.90L167.89-15.90Q167.89-16.43 167.48-16.58L167.48-16.58Q166.41-17.01 166.41-17.68L166.41-17.68Q166.41-17.77 166.45-17.87L166.45-17.87Q166.60-18.59 167.40-18.59L167.40-18.59Q168.65-18.65 169.95-18.98Q171.25-19.32 173.42-20L173.42-20Z M183.22-11.54L183.22-11.54L181.21-2.77Q181.13-2.50 181.13-2.29L181.13-2.29Q181.13-1.76 181.54-1.60L181.54-1.60Q182.60-1.17 182.60-0.53L182.60-0.53Q182.60-0.43 182.56-0.33L182.56-0.33Q182.40 0.39 181.60 0.39L181.60 0.39L174.98 0.39Q174.16 0.39 174.16-0.27L174.16-0.27Q174.16-0.37 174.18-0.49L174.18-0.49Q174.36-1.17 175.41-1.51Q176.46-1.86 176.70-2.91L176.70-2.91L179.57-15.43Q179.65-15.68 179.65-15.90L179.65-15.90Q179.65-16.43 179.24-16.58L179.24-16.58Q178.16-17.01 178.16-17.68L178.16-17.68Q178.16-17.77 178.20-17.87L178.20-17.87Q178.36-18.59 179.16-18.59L179.16-18.59Q180.41-18.65 181.71-18.98Q183.01-19.32 185.18-20L185.18-20L184.59-17.44L186.70-18.18Q188.34-18.77 189.28-19.04L189.28-19.04Q189.63-19.14 190.06-19.14L190.06-19.14Q190.90-19.14 192.36-18.57L192.36-18.57L190.61-13.07L188.87-13.07Q188.77-15.92 187.07-15.92L187.07-15.92Q186.88-15.92 186.70-15.90L186.70-15.90Q185.41-15.76 184.55-14.53Q183.69-13.30 183.22-11.54Z M198.40 0.88L198.40 0.88Q192.77 0.88 191.29-2.81L191.29-2.81Q190.64-4.39 190.64-6.17L190.64-6.17Q190.64-7.40 190.94-8.71L190.94-8.71Q191.19-9.77 191.62-10.88L191.62-10.88Q193.13-14.73 195.97-16.89Q198.81-19.06 202.83-19.06L202.83-19.06Q209.92-19.06 209.92-13.42L209.92-13.42Q209.92-12.19 209.59-10.68L209.59-10.68Q209.38-9.88 209.21-9.41Q209.04-8.95 207.91-8.95L207.91-8.95L195.96-8.95Q195.72-7.91 195.72-6.76L195.72-6.76Q195.72-5.02 196.41-3.75L196.41-3.75Q197.48-1.74 200.33-1.74L200.33-1.74Q201.05-1.74 201.99-1.93Q202.93-2.13 204.38-2.79L204.38-2.79Q205.72-3.46 206.25-3.46L206.25-3.46Q206.52-3.46 206.82-3.26L206.82-3.26Q206.91-3.07 206.91-2.93L206.91-2.93L206.91-2.81Q206.84-2.46 206.41-1.93L206.41-1.93Q206.05-1.43 205.85-1.25Q205.64-1.07 205.49-0.96L205.49-0.96Q203.81 0.23 201.94 0.56Q200.08 0.88 198.40 0.88ZM196.46-11.15L196.46-11.15L205.68-11.15Q205.96-12.32 205.96-13.42L205.96-13.42Q205.96-14.67 205.53-15.37L205.53-15.37Q204.77-16.60 202.44-16.60L202.44-16.60Q200.04-16.60 198.51-14.94Q196.97-13.28 196.46-11.15Z"/></g>
</svg>
</g><g opacity="1" transform="rotate(0 307.1191 210.0255)">
<svg width="3" height="50" x="307.1191" y="210.0255" version="1.1" preserveAspectRatio="none" viewBox="0 0 3 50">
  <defs><rect x="0" y="0" width="3" height="50" rx="0px" ry="0px" id="id-tBXipXk0b1743508055728"></rect></defs><use class="atBXipXk0bfillColor shapeStroke-str" style="stroke-width:0;" xlink:href="#id-tBXipXk0b1743508055728"></use>
</svg>
</g></svg></svg>