<svg version="1.1" preserveAspectRatio="none" xmlns="http://www.w3.org/2000/svg" width="500" height="500" viewBox="0 0 500 500"><rect width="100%" height="100%" fill="#C8E3DF" fill-opacity="1"/><svg viewBox="581.1329 509.6498 488.8691 90" width="333" height="61.304754176527005" x="83.5px" y="219.3476px" xmlns="http://www.w3.org/2000/svg" xmlns:xlink="http://www.w3.org/1999/xlink" preserveAspectRatio="none"><defs></defs><style>.companyName {fill:#559092;fill-opacity:1;}.icon1 {fill:#559092;fill-opacity:1;}.icon2 {fill:#FBFBFB;fill-opacity:1;}.icon3 {fill:#185759;fill-opacity:1;}.icon3-str {stroke:#185759;stroke-opacity:1;}</style><g opacity="1" transform="rotate(0 581.1329 509.6498)">
<svg width="90.0484" height="90" x="581.1329" y="509.6498" version="1.1" preserveAspectRatio="none" viewBox="8.849225044250488 9.299224853515625 82.2957534790039 82.25154876708984">
  <g transform="matrix(1 0 0 1 0 0)" class="icon1"><defs><g id="b"><path d=" M 89.65 61.05 Q 94.05 44.65 85.5 29.9 77 15.2 60.6 10.8 44.2 6.4 29.5 14.9 14.75 23.4 10.35 39.8 5.95 56.2 14.45 70.9 23 85.65 39.4 90.05 55.8 94.45 70.55 85.95 85.25 77.45 89.65 61.05 M 53.5 18.8 Q 53.55 18.9 53.6 18.95 L 79.7 64.15 Q 79.75 64.25 79.8 64.35 79.8 64.55 79.8 64.8 L 79.85 64.85 Q 79.825 64.875 79.8 64.9 79.8 65.2 79.65 65.4 79.5 65.8 79.3 66 78.95 66.2 78.7 66.25 78.45 66.3 78.3 66.2 78.1 66.25 77.95 66.2 L 25.25 66.2 Q 25.2 66.05 24.8 65.75 L 24.8 65.7 Q 24.65 65.55 24.5 65.1 L 24.55 64.9 Q 24.65 64.75 25 64.15 L 51.1 18.95 Q 51.35 18.6 51.65 18.45 51.9 18.3 52.3 18.25 52.7 18.25 53 18.4 53.35 18.55 53.5 18.8 M 45.05 63.4 L 76 63.45 60.55 36.65 45.05 63.4 M 58.95 33.9 L 52.35 22.45 28.6 63.4 41.9 63.45 58.95 33.9 Z"></path></g><path id="a" stroke-width="1" stroke-linejoin="round" stroke-linecap="round" d=" M 70.55 85.95 Q 55.8 94.45 39.4 90.05 23 85.65 14.45 70.9 5.95 56.2 10.35 39.8 14.75 23.4 29.5 14.9 44.2 6.4 60.6 10.8 77 15.2 85.5 29.9 94.05 44.65 89.65 61.05 85.25 77.45 70.55 85.95 Z"></path></defs><g transform="matrix( 1, 0, 0, 1, 0,0) "><use xlink:href="#b"></use><use xlink:href="#a"></use></g></g>
</svg>
</g><g opacity="1" transform="rotate(0 701.1813 524.6498)">
<svg width="368.8207" height="60" x="701.1813" y="524.6498" version="1.1" preserveAspectRatio="none" viewBox="2.8 -32.16 247.6 40.28">
  <g transform="matrix(1 0 0 1 0 0)" class="companyName"><path id="id-D6z1nYkh11" d="M2.80 0L2.80-28L16.04-28Q20.64-28 24.20-26.28Q27.76-24.56 29.72-21.40Q31.68-18.24 31.68-14L31.68-14Q31.68-9.76 29.72-6.60Q27.76-3.44 24.20-1.72Q20.64 0 16.04 0L16.04 0L2.80 0ZM10.72-6.32L15.72-6.32Q19.32-6.32 21.50-8.36Q23.68-10.40 23.68-14L23.68-14Q23.68-17.60 21.50-19.64Q19.32-21.68 15.72-21.68L15.72-21.68L10.72-21.68L10.72-6.32Z M44.72-22.04Q50.12-22.04 52.96-19.58Q55.80-17.12 55.80-12.04L55.80-12.04L55.80 0L48.72 0L48.72-2.80Q47.08 0.36 42.32 0.36L42.32 0.36Q39.80 0.36 37.96-0.52Q36.12-1.40 35.18-2.90Q34.24-4.40 34.24-6.32L34.24-6.32Q34.24-9.40 36.60-11.10Q38.96-12.80 43.88-12.80L43.88-12.80L48.20-12.80Q48-16.24 43.60-16.24L43.60-16.24Q42.04-16.24 40.44-15.74Q38.84-15.24 37.72-14.36L37.72-14.36L35.16-19.52Q36.96-20.72 39.54-21.38Q42.12-22.04 44.72-22.04L44.72-22.04ZM44.44-4.44Q45.76-4.44 46.76-5.08Q47.76-5.72 48.20-6.96L48.20-6.96L48.20-8.84L44.92-8.84Q41.60-8.84 41.60-6.64L41.60-6.64Q41.60-5.64 42.36-5.04Q43.12-4.44 44.44-4.44L44.44-4.44Z M73.68-6.20L75.56-0.88Q74.60-0.28 73.22 0.04Q71.84 0.36 70.28 0.36L70.28 0.36Q66.04 0.36 63.76-1.72Q61.48-3.80 61.48-7.92L61.48-7.92L61.48-15.20L58.32-15.20L58.32-20.88L61.48-20.88L61.48-26.52L69.08-26.52L69.08-20.88L74.04-20.88L74.04-15.20L69.08-15.20L69.08-8Q69.08-6.84 69.70-6.18Q70.32-5.52 71.36-5.52L71.36-5.52Q72.68-5.52 73.68-6.20L73.68-6.20Z M87.72-22.04Q93.12-22.04 95.96-19.58Q98.80-17.12 98.80-12.04L98.80-12.04L98.80 0L91.72 0L91.72-2.80Q90.08 0.36 85.32 0.36L85.32 0.36Q82.80 0.36 80.96-0.52Q79.12-1.40 78.18-2.90Q77.24-4.40 77.24-6.32L77.24-6.32Q77.24-9.40 79.60-11.10Q81.96-12.80 86.88-12.80L86.88-12.80L91.20-12.80Q91-16.24 86.60-16.24L86.60-16.24Q85.04-16.24 83.44-15.74Q81.84-15.24 80.72-14.36L80.72-14.36L78.16-19.52Q79.96-20.72 82.54-21.38Q85.12-22.04 87.72-22.04L87.72-22.04ZM87.44-4.44Q88.76-4.44 89.76-5.08Q90.76-5.72 91.20-6.96L91.20-6.96L91.20-8.84L87.92-8.84Q84.60-8.84 84.60-6.64L84.60-6.64Q84.60-5.64 85.36-5.04Q86.12-4.44 87.44-4.44L87.44-4.44Z M103.96 0L103.96-28L111.88-28L111.88 0L103.96 0Z M131.28-22.04Q135.32-22.04 137.78-19.64Q140.24-17.24 140.24-12.40L140.24-12.40L140.24 0L132.64 0L132.64-11.16Q132.64-15.60 129.08-15.60L129.08-15.60Q127.12-15.60 125.94-14.32Q124.76-13.04 124.76-10.48L124.76-10.48L124.76 0L117.16 0L117.16-21.68L124.40-21.68L124.40-19.32Q125.68-20.64 127.44-21.34Q129.20-22.04 131.28-22.04L131.28-22.04Z M152.88 0.36Q150.16 0.36 147.52-0.26Q144.88-0.88 143.28-1.88L143.28-1.88L145.56-7.08Q147.04-6.16 149.08-5.62Q151.12-5.08 153.12-5.08L153.12-5.08Q154.96-5.08 155.74-5.46Q156.52-5.84 156.52-6.56L156.52-6.56Q156.52-7.28 155.58-7.58Q154.64-7.88 152.60-8.16L152.60-8.16Q150-8.48 148.18-9Q146.36-9.52 145.04-10.92Q143.72-12.32 143.72-14.84L143.72-14.84Q143.72-16.92 144.96-18.54Q146.20-20.16 148.58-21.10Q150.96-22.04 154.28-22.04L154.28-22.04Q156.64-22.04 158.96-21.56Q161.28-21.08 162.84-20.20L162.84-20.20L160.56-15.04Q157.68-16.64 154.32-16.64L154.32-16.64Q152.52-16.64 151.68-16.22Q150.84-15.80 150.84-15.12L150.84-15.12Q150.84-14.36 151.76-14.06Q152.68-13.76 154.80-13.44L154.80-13.44Q157.48-13.04 159.24-12.52Q161-12 162.30-10.62Q163.60-9.24 163.60-6.76L163.60-6.76Q163.60-4.72 162.36-3.10Q161.12-1.48 158.70-0.56Q156.28 0.36 152.88 0.36L152.88 0.36Z M166.88 0L166.88-21.68L174.48-21.68L174.48 0L166.88 0ZM170.68-24.08Q168.60-24.08 167.32-25.24Q166.04-26.40 166.04-28.12L166.04-28.12Q166.04-29.84 167.32-31Q168.60-32.16 170.68-32.16L170.68-32.16Q172.76-32.16 174.04-31.06Q175.32-29.96 175.32-28.24L175.32-28.24Q175.32-26.44 174.04-25.26Q172.76-24.08 170.68-24.08L170.68-24.08Z M195.48-21.68L202.72-21.68L202.72-3.96Q202.72 2.08 199.44 5.10Q196.16 8.12 190 8.12L190 8.12Q186.80 8.12 184 7.40Q181.20 6.68 179.24 5.28L179.24 5.28L182-0.04Q183.32 1.04 185.34 1.66Q187.36 2.28 189.32 2.28L189.32 2.28Q192.32 2.28 193.72 0.96Q195.12-0.36 195.12-2.96L195.12-2.96L195.12-3.68Q192.92-1.12 188.68-1.12L188.68-1.12Q185.80-1.12 183.36-2.42Q180.92-3.72 179.48-6.10Q178.04-8.48 178.04-11.60L178.04-11.60Q178.04-14.68 179.48-17.06Q180.92-19.44 183.36-20.74Q185.80-22.04 188.68-22.04L188.68-22.04Q193.32-22.04 195.48-19.04L195.48-19.04L195.48-21.68ZM190.48-7.16Q192.52-7.16 193.86-8.40Q195.20-9.64 195.20-11.60L195.20-11.60Q195.20-13.56 193.88-14.78Q192.56-16 190.48-16L190.48-16Q188.40-16 187.06-14.78Q185.72-13.56 185.72-11.60L185.72-11.60Q185.72-9.64 187.08-8.40Q188.44-7.16 190.48-7.16L190.48-7.16Z M221.72-22.04Q225.76-22.04 228.22-19.64Q230.68-17.24 230.68-12.40L230.68-12.40L230.68 0L223.08 0L223.08-11.16Q223.08-15.60 219.52-15.60L219.52-15.60Q217.56-15.60 216.38-14.32Q215.20-13.04 215.20-10.48L215.20-10.48L215.20 0L207.60 0L207.60-29.68L215.20-29.68L215.20-19.68Q216.44-20.84 218.12-21.44Q219.80-22.04 221.72-22.04L221.72-22.04Z M248.52-6.20L250.40-0.88Q249.44-0.28 248.06 0.04Q246.68 0.36 245.12 0.36L245.12 0.36Q240.88 0.36 238.60-1.72Q236.32-3.80 236.32-7.92L236.32-7.92L236.32-15.20L233.16-15.20L233.16-20.88L236.32-20.88L236.32-26.52L243.92-26.52L243.92-20.88L248.88-20.88L248.88-15.20L243.92-15.20L243.92-8Q243.92-6.84 244.54-6.18Q245.16-5.52 246.20-5.52L246.20-5.52Q247.52-5.52 248.52-6.20L248.52-6.20Z"/></g>
</svg>
</g></svg></svg>