<svg version="1.1" preserveAspectRatio="none" xmlns="http://www.w3.org/2000/svg" width="500" height="500" viewBox="0 0 500 500"><rect width="100%" height="100%" fill="#E74C32" fill-opacity="1"/><svg viewBox="80.7749 175.7887 363.2678 200.5899" width="333" height="183.87656902153176" x="83.5px" y="158.0617px" xmlns="http://www.w3.org/2000/svg" xmlns:xlink="http://www.w3.org/1999/xlink" preserveAspectRatio="none"><defs></defs><style>.companyName {fill:#EFEFEF;fill-opacity:1;}.icon1 {fill:#281817;fill-opacity:1;}.icon2 {fill:#EFEFEF;fill-opacity:1;}.icon3 {fill:#DDAC77;fill-opacity:1;}.icon3-str {stroke:#DDAC77;stroke-opacity:1;}</style><g opacity="1" transform="rotate(0 80.7749 306.3786)">
<svg width="363.2678" height="70" x="80.7749" y="306.3786" version="1.1" preserveAspectRatio="none" viewBox="1.32 -31.4 210.28 40.519999999999996">
  <g transform="matrix(1 0 0 1 0 0)" class="companyName"><path id="id-D6z1nYkh9" d="M9.64 0.12Q5.32 0.12 1.68-0.24L1.68-0.24L1.48-4.08L4.40-4.88L4.40-20.12Q4.40-21.16 4.24-21.50Q4.08-21.84 3.40-22.12L3.40-22.12L1.32-23.28L1.56-26.60Q5.72-26.92 8.56-27.10Q11.40-27.28 13.12-27.28L13.12-27.28Q18.64-27.28 21.98-26Q25.32-24.72 26.86-21.96Q28.40-19.20 28.40-14.64L28.40-14.64Q28.40-8.88 25.76-5.32L25.76-5.32Q23.40-2.24 19.50-1.06Q15.60 0.12 9.64 0.12L9.64 0.12ZM14.68-5.60Q18.04-5.60 20-6.40L20-6.40Q20.36-7.40 20.66-9.52Q20.96-11.64 20.96-13.48L20.96-13.48Q20.96-18 19.10-20.16Q17.24-22.32 13.44-22.32L13.44-22.32Q12.92-22.32 12.48-22.28Q12.04-22.24 11.64-22.20L11.64-22.20L11.64-5.80Q13.24-5.60 14.68-5.60L14.68-5.60Z M41.04 0.48Q36.36 0.48 33.82-2.36Q31.28-5.20 31.28-10.20L31.28-10.20Q31.28-13.68 32.52-16.18Q33.76-18.68 36.04-20Q38.32-21.32 41.36-21.32L41.36-21.32Q45.88-21.32 48.30-18.44Q50.72-15.56 50.60-10.24L50.60-10.24L38.44-8Q39-6.32 40.02-5.54Q41.04-4.76 42.72-4.76L42.72-4.76Q43.88-4.76 45.48-5.10Q47.08-5.44 48.72-6.04L48.72-6.04L49.64-2.08Q48.16-0.96 45.80-0.24Q43.44 0.48 41.04 0.48L41.04 0.48ZM38.04-11.96L44.04-13.60Q43.96-15.12 43.18-15.82Q42.40-16.52 41-16.52L41-16.52Q39.84-16.52 38.80-16.20L38.80-16.20Q37.96-14.24 38.04-11.96L38.04-11.96Z M60.28 0.68Q57.12 0.68 52.96-0.44L52.96-0.44Q53.20-4.36 53.48-6.24L53.48-6.24L55.76-6.68L58.28-4Q59.60-3.60 61.24-3.60L61.24-3.60Q62.16-3.60 62.68-3.72L62.68-3.72Q62.80-4.04 62.80-4.60L62.80-4.60Q62.80-5.08 62.58-5.40Q62.36-5.72 61.60-6.16Q60.84-6.60 58.96-7.52L58.96-7.52Q56.60-8.76 55.36-9.74Q54.12-10.72 53.58-11.76Q53.04-12.80 53.04-14.24L53.04-14.24Q53.04-17.44 55.42-19.32Q57.80-21.20 61.88-21.20L61.88-21.20Q63.56-21.20 65.42-20.82Q67.28-20.44 68.76-19.80L68.76-19.80Q68.76-17.20 68.40-14L68.40-14L66.32-13.68L63.64-16.56Q62.60-16.88 60.60-16.88L60.60-16.88Q60.28-16.88 59.32-16.80L59.32-16.80Q59.20-16.56 59.20-16.04L59.20-16.04Q59.20-15.48 59.52-15.06Q59.84-14.64 60.66-14.14Q61.48-13.64 63.28-12.72L63.28-12.72Q65.92-11.44 67.26-10.50Q68.60-9.56 69.14-8.60Q69.68-7.64 69.68-6.28L69.68-6.28Q69.68-3 67.18-1.16Q64.68 0.68 60.28 0.68L60.28 0.68Z M74.64-23.48L72.96-29.60L79.76-31.40L81.40-25.32L74.64-23.48ZM71.40 0L71.28-3.68L74.08-4.52L74.08-14.24Q74.08-15.12 73.94-15.38Q73.80-15.64 73.24-15.96L73.24-15.96L71.48-16.92L71.68-19.92Q75-20.56 76.82-20.86Q78.64-21.16 80.16-21.20L80.16-21.20Q80.68-19.48 80.80-18.64L80.80-18.64L80.80-5.84Q80.80-5 80.92-4.72Q81.04-4.44 81.60-4.12L81.60-4.12L83.56-3L83.40 0L71.40 0Z M93.44 9.12Q88.84 9.12 86.50 7.68Q84.16 6.24 84.16 3.44L84.16 3.44Q84.16 0.48 86.88-1.76L86.88-1.76Q86.04-2.60 86.04-3.60L86.04-3.60Q86.04-5.04 87.92-7.68L87.92-7.68Q84.64-9.40 84.64-13.60L84.64-13.60Q84.64-17.28 87.14-19.30Q89.64-21.32 94.36-21.32L94.36-21.32Q97.68-21.32 99.80-20.32L99.80-20.32L104.60-21.80L106.48-21.80L106.48-16L103.36-16Q103.56-15 103.56-14.04L103.56-14.04Q103.56-10.36 101.08-8.44Q98.60-6.52 93.80-6.52L93.80-6.52Q92.16-6.52 90.84-6.76L90.84-6.76L90.84-6.20Q90.84-5.56 91.38-5.30Q91.92-5.04 93.72-4.80L93.72-4.80L97.32-4.28Q101.56-3.68 103.18-2.20Q104.80-0.72 104.80 1.60L104.80 1.60Q104.80 5.20 101.84 7.16Q98.88 9.12 93.44 9.12L93.44 9.12ZM94.40-10.44Q95.24-10.44 96.32-10.68L96.32-10.68Q96.48-11.16 96.62-12.12Q96.76-13.08 96.76-13.88L96.76-13.88Q96.76-15.68 95.98-16.56Q95.20-17.44 93.56-17.44L93.56-17.44Q92.76-17.44 91.80-17.20L91.80-17.20Q91.60-16.72 91.46-15.80Q91.32-14.88 91.32-14.04L91.32-14.04Q91.32-12.20 92.08-11.32Q92.84-10.44 94.40-10.44L94.40-10.44ZM95.28 4.60Q97.12 4.60 98.08 4.28L98.08 4.28Q98.32 3.80 98.32 3L98.32 3Q98.32 2.04 97.64 1.54Q96.96 1.04 95.20 0.80L95.20 0.80L93.92 0.60Q92.16 0.40 90.36 0.04L90.36 0.04Q90.12 1.12 90.12 1.76L90.12 1.76Q90.12 3.20 91.40 3.90Q92.68 4.60 95.28 4.60L95.28 4.60Z M108.28-0.04L108.08-3.84L110.56-4.56L110.56-14.24Q110.56-15.12 110.44-15.38Q110.32-15.64 109.80-15.96L109.80-15.96L108.04-16.92L108.16-19.92L109.04-20.08Q114.28-21.12 116.60-21.20L116.60-21.20Q116.92-20.36 117.12-19.36L117.12-19.36Q119.56-20.48 121.10-20.90Q122.64-21.32 124-21.32L124-21.32Q130.36-21.32 130.36-13.72L130.36-13.72L130.36-5.88Q130.36-5.04 130.48-4.76Q130.60-4.48 131.16-4.16L131.16-4.16L133.08-3.04L132.92-0.04L121.88-0.04L121.68-3.84L123.64-4.40L123.64-11.96Q123.64-13.76 123.52-14.48Q123.40-15.20 122.86-15.60Q122.32-16 120.96-16L120.96-16Q119.52-16 117.32-15.56L117.32-15.56L117.32-5.88Q117.32-5.04 117.44-4.76Q117.56-4.48 118.08-4.16L118.08-4.16L120.04-3.04L119.88-0.04L108.28-0.04Z M134.72 0L134.52-4.20L137.04-4.88L137.04-20.20Q137.04-21.24 136.90-21.58Q136.76-21.92 136.12-22.20L136.12-22.20L134.44-23.16L134.56-26.96L147.04-26.96L147.24-22.88L144.28-22.08L144.28-16.24L153.40-16.48L153.40-20.20Q153.40-21.24 153.24-21.58Q153.08-21.92 152.40-22.20L152.40-22.20L150.44-23.32L150.64-26.96L162.92-26.96L163.08-22.76L160.64-22.08L160.64-6.48Q160.64-5.52 160.78-5.24Q160.92-4.96 161.48-4.68L161.48-4.68L163.12-3.72L162.96 0L150.80 0L150.60-4.12L153.40-4.88L153.40-10.84L144.28-11.24L144.28-6.48Q144.28-5.52 144.42-5.24Q144.56-4.96 145.16-4.68L145.16-4.68L147.28-3.44L147.12 0L134.72 0Z M173.08 0.56Q169.88 0.56 168.32-1.34Q166.76-3.24 166.76-7.08L166.76-7.08L166.76-14.24Q166.76-15.12 166.62-15.38Q166.48-15.64 165.92-15.96L165.92-15.96L164.12-16.92L164.32-19.92Q164.88-20 165.12-20.08L165.12-20.08Q165.56-20.16 168.26-20.64Q170.96-21.12 172.76-21.20L172.76-21.20Q173.20-20.20 173.44-18.88L173.44-18.88L173.44-8.80Q173.44-7.04 173.54-6.32Q173.64-5.60 174.18-5.22Q174.72-4.84 176.04-4.84L176.04-4.84Q177.96-4.84 179.76-5.52L179.76-5.52L179.76-14.24Q179.76-15.12 179.64-15.38Q179.52-15.64 179-15.96L179-15.96L177.24-16.92L177.40-19.92Q180.64-20.52 182.46-20.84Q184.28-21.16 185.80-21.20L185.80-21.20Q186.24-20.20 186.48-18.88L186.48-18.88L186.48-5.76Q186.48-5.04 186.60-4.76Q186.72-4.48 187.16-4.20L187.16-4.20L188.76-3.28L188.64-0.80Q186.92-0.36 184.68-0.02Q182.44 0.32 180.52 0.40L180.52 0.40Q180.36-0.08 180.16-0.80L180.16-0.80Q180.12-1.12 179.96-1.56L179.96-1.56L179.84-1.56Q178.20-0.60 176.38-0.02Q174.56 0.56 173.08 0.56L173.08 0.56Z M199.84 0.48Q197.64 0.48 195.44 0.02Q193.24-0.44 191.36-1.20L191.36-1.20L191.36-23.68Q191.36-24.56 191.24-24.82Q191.12-25.08 190.60-25.40L190.60-25.40L188.72-26.32L188.92-29.36Q192.64-30 194.56-30.28Q196.48-30.56 197.56-30.60L197.56-30.60Q197.96-29.76 198.12-28.52L198.12-28.52L198.12-20.52Q200.40-21.32 202.64-21.32L202.64-21.32Q206.84-21.32 209.22-18.66Q211.60-16 211.60-11.04L211.60-11.04Q211.60-5.56 208.58-2.54Q205.56 0.48 199.84 0.48L199.84 0.48ZM201.24-4.68Q203.12-4.68 204.04-5.08L204.04-5.08Q204.36-6.16 204.56-7.60Q204.76-9.04 204.76-10.40L204.76-10.40Q204.76-16.56 200.64-16.56L200.64-16.56Q199.60-16.56 198.12-16.20L198.12-16.20L198.12-5.20Q199.16-4.68 201.24-4.68L201.24-4.68Z"/></g>
</svg>
</g><g opacity="1" transform="rotate(0 207.9187 175.7887)">
<svg width="108.9803" height="90.5899" x="207.9187" y="175.7887" version="1.1" preserveAspectRatio="none" viewBox="20 33.5 160 133">
  <g transform="matrix(1 0 0 1 0 0)"><g><path d="M28.5 140.8c-4.7 0-8.5-3.8-8.5-8.6V92.9c0-4.7 3.8-8.6 8.5-8.6s8.5 3.8 8.5 8.6v39.3c.1 4.8-3.8 8.6-8.5 8.6z" data-color="1" class="icon1"></path><path d="M57.1 150.2c-4.7 0-8.5-3.8-8.5-8.6v-73c0-4.7 3.8-8.6 8.5-8.6s8.5 3.8 8.5 8.6v73.1c.1 4.7-3.8 8.5-8.5 8.5z" data-color="2" class="icon2"></path><path d="M85.7 132.7c-4.7 0-8.5-3.8-8.5-8.6V98.9c0-4.7 3.8-8.6 8.5-8.6s8.5 3.8 8.5 8.6v25.2c0 4.8-3.8 8.6-8.5 8.6z" data-color="1" class="icon1"></path><path d="M114.3 140.8c-4.7 0-8.5-3.8-8.5-8.6V42.1c0-4.7 3.8-8.6 8.5-8.6s8.5 3.8 8.5 8.6v90.2c0 4.7-3.8 8.5-8.5 8.5z" data-color="3" class="icon3"></path><path d="M142.9 166.5c-4.7 0-8.5-3.8-8.5-8.6v-65c0-4.7 3.8-8.6 8.5-8.6s8.5 3.8 8.5 8.6v65c0 4.8-3.8 8.6-8.5 8.6z" data-color="1" class="icon1"></path><path d="M171.5 140.8c-4.7 0-8.5-3.8-8.5-8.6V82.7c0-4.7 3.8-8.6 8.5-8.6s8.5 3.8 8.5 8.6v49.6c0 4.7-3.8 8.5-8.5 8.5z" data-color="3" class="icon3"></path></g></g>
</svg>
</g></svg></svg>