<svg version="1.1" preserveAspectRatio="none" xmlns="http://www.w3.org/2000/svg" width="500" height="500" viewBox="0 0 500 500"><rect width="100%" height="100%" fill="#101010" fill-opacity="1"/><svg viewBox="76.8344 200.9721 345.0217 60" width="333" height="57.90940106086081" x="83.5px" y="221.0453px" xmlns="http://www.w3.org/2000/svg" xmlns:xlink="http://www.w3.org/1999/xlink" preserveAspectRatio="none"><defs></defs><style>.companyName {fill:#EFEFEF;fill-opacity:1;}.icon3-str {stroke:#C0C0C0;stroke-opacity:1;}</style><g opacity="1" transform="rotate(0 76.8344 200.9721)">
<svg width="345.0217" height="60" x="76.8344" y="200.9721" version="1.1" preserveAspectRatio="none" viewBox="1.4 -30 175.52 30.52">
  <g transform="matrix(1 0 0 1 0 0)" class="companyName"><path id="id-D6z1nYkh10" d="M19.08-30L20.36-30L20.36 0L19.08 0L19.08-4.36Q17.88-2.16 15.60-0.86Q13.32 0.44 10.92 0.44L10.92 0.44Q6.96 0.44 4.18-2.34Q1.40-5.12 1.40-9Q1.40-12.88 4.18-15.66Q6.96-18.44 10.92-18.44L10.92-18.44Q13.40-18.44 15.70-17.12Q18-15.80 19.08-13.60L19.08-13.60L19.08-30ZM2.68-8.98Q2.68-5.60 5.08-3.14Q7.48-0.68 10.86-0.68Q14.24-0.68 16.70-3.14Q19.16-5.60 19.16-8.96Q19.16-12.32 16.70-14.82Q14.24-17.32 10.88-17.32Q7.52-17.32 5.10-14.84Q2.68-12.36 2.68-8.98Z M34.16 0.48L34.16 0.48L33.80 0.48Q30 0.48 27.18-2.38Q24.36-5.24 24.36-9.04Q24.36-12.84 27.16-15.62Q29.96-18.40 34.08-18.40Q38.20-18.40 41.16-15.12L41.16-15.12L28.60-2.72Q31.20-0.64 33.60-0.64Q36-0.64 37.90-1.74Q39.80-2.84 41.04-4.68L41.04-4.68L41.04-2.64Q38.20 0.48 34.16 0.48ZM33.74-17.28Q30.56-17.28 28.10-14.82Q25.64-12.36 25.64-9.16Q25.64-5.96 27.76-3.56L27.76-3.56L39.40-15.12Q36.92-17.28 33.74-17.28Z M52.56-2.20L60.12-18L61.28-18L52.44 0.52L43.56-18L44.96-18L52.56-2.20Z M73.40 0.52L73.40 0.52L73.04 0.52Q69.20 0.52 66.44-2.32Q63.68-5.16 63.68-8.98Q63.68-12.80 66.48-15.58Q69.28-18.36 73.36-18.36Q77.44-18.36 80.32-15.28L80.32-15.28L80.32-13.24Q79.08-15.08 77.18-16.16Q75.28-17.24 73.20-17.24L73.20-17.24Q69.88-17.24 67.42-14.78Q64.96-12.32 64.96-8.92Q64.96-5.52 67.42-3.06Q69.88-0.60 73.20-0.60L73.20-0.60Q75.28-0.60 77.18-1.68Q79.08-2.76 80.32-4.64L80.32-4.64L80.32-2.56Q77.52 0.52 73.40 0.52Z M92.08 0.44Q88.24 0.44 85.48-2.42Q82.72-5.28 82.72-9.08Q82.72-12.88 85.52-15.66Q88.32-18.44 92.26-18.44Q96.20-18.44 98.98-15.66Q101.76-12.88 101.76-9.06Q101.76-5.24 99.04-2.40Q96.32 0.44 92.44 0.44L92.44 0.44L92.08 0.44ZM100.48-8.98Q100.48-12.36 98.06-14.84Q95.64-17.32 92.28-17.32Q88.92-17.32 86.46-14.82Q84-12.32 84-8.96Q84-5.60 86.46-3.14Q88.92-0.68 92.30-0.68Q95.68-0.68 98.08-3.14Q100.48-5.60 100.48-8.98Z M106.84-10.48L106.84 0L105.56 0L105.56-18L106.84-18L106.84-14.36Q108.88-18.44 113.80-18.44L113.80-18.44Q117.16-18.44 119.44-16.12Q121.72-13.80 121.72-10.48L121.72-10.48L121.72 0L120.44 0L120.44-10.48Q120.44-13.24 118.50-15.28Q116.56-17.32 113.80-17.32Q111.04-17.32 108.94-15.28Q106.84-13.24 106.84-10.48L106.84-10.48Z M130.44-17.36L130.44-17.36Q129.40-17.36 128.60-16.68Q127.80-16 127.80-15Q127.80-14 128.70-13.16Q129.60-12.32 130.86-11.62Q132.12-10.92 133.40-10.12Q134.68-9.32 135.58-8.08Q136.48-6.84 136.48-5.24L136.48-5.24Q136.48-2.88 134.70-1.22Q132.92 0.44 130.40 0.44L130.40 0.44Q128.80 0.44 127.42-0.26Q126.04-0.96 125.40-2.12L125.40-2.12L125.40-4.04Q126.92-0.68 130.28-0.68L130.28-0.68Q132.36-0.68 133.78-1.96Q135.20-3.24 135.20-4.82Q135.20-6.40 134.30-7.48Q133.40-8.56 132.12-9.32Q130.84-10.08 129.58-10.82Q128.32-11.56 127.42-12.62Q126.52-13.68 126.52-15.10Q126.52-16.52 127.66-17.50Q128.80-18.48 130.60-18.48Q132.40-18.48 133.68-17.08L133.68-17.08L133.68-15.44Q132.40-17.36 130.44-17.36Z M154.76-7.52L154.76-18L156.04-18L156.04 0L154.76 0L154.76-3.64Q152.72 0.44 147.80 0.44L147.80 0.44Q144.44 0.44 142.16-1.88Q139.88-4.20 139.88-7.52L139.88-7.52L139.88-18L141.16-18L141.16-7.52Q141.16-4.76 143.10-2.72Q145.04-0.68 147.80-0.68Q150.56-0.68 152.66-2.72Q154.76-4.76 154.76-7.52L154.76-7.52Z M167.28-0.76L167.28-0.76L167.28 0.36Q164.44 0.36 162.44-1.54Q160.44-3.44 160.44-6.40L160.44-6.40L160.44-30L161.72-30L161.72-6.40Q161.72-3.96 163.34-2.36Q164.96-0.76 167.28-0.76Z M176.92-0.88L176.92-0.88L176.92 0.24Q174.08 0.24 172.08-1.66Q170.08-3.56 170.08-6.52L170.08-6.52L170.08-25.24L171.36-25.24L171.36-17.96L176.88-17.96L176.88-16.84L171.36-16.84L171.36-6.52Q171.36-4.08 172.98-2.48Q174.60-0.88 176.92-0.88Z"/></g>
</svg>
</g></svg></svg>