<svg version="1.1" preserveAspectRatio="none" xmlns="http://www.w3.org/2000/svg" width="500" height="500" viewBox="0 0 500 500"><rect width="100%" height="100%" fill="#E71616" fill-opacity="1"/><svg viewBox="34.5193 51.1419 378.0459 90" width="333" height="79.2760879036117" x="83.5px" y="210.362px" xmlns="http://www.w3.org/2000/svg" xmlns:xlink="http://www.w3.org/1999/xlink" preserveAspectRatio="none"><defs></defs><style>.atBXipXk0bfillColor {fill:#FBFBFB;fill-opacity:0;}.companyName {fill:#FBFBFB;fill-opacity:1;}.icon3-str {stroke:#277B27;stroke-opacity:1;}.shapeStroke-str {stroke:#FBFBFB;stroke-opacity:1;}</style><g opacity="1" transform="rotate(0 34.5193 51.1419)">
<svg width="378.0459" height="90" x="34.5193" y="51.1419" version="1.1" preserveAspectRatio="none" viewBox="0 0 378.0459 90">
  <defs><rect x="1.8" y="1.8" width="374.4459" height="86.4" rx="14px" ry="14px" id="id-tBXipXk0b1743508108964"></rect></defs><use class="atBXipXk0bfillColor shapeStroke-str" style="stroke-width:3.6;" xlink:href="#id-tBXipXk0b1743508108964"></use>
</svg>
</g><g opacity="1" transform="rotate(0 54.5193 71.1419)">
<svg width="338.0459" height="50" x="54.5193" y="71.1419" version="1.1" preserveAspectRatio="none" viewBox="4 -31.24 272.6 40.32">
  <g transform="matrix(1 0 0 1 0 0)" class="companyName"><path id="id-D6z1nYkh13" d="M13.32-31.24Q17.84-31.24 21.36-29.24Q24.88-27.24 26.84-23.70Q28.80-20.16 28.80-15.64L28.80-15.64Q28.80-11.12 26.84-7.56Q24.88-4 21.36-2Q17.84 0 13.32 0L13.32 0L6.08 0Q5.20 0 4.60-0.60Q4-1.20 4-2.08L4-2.08L4-29.16Q4-30.08 4.60-30.66Q5.20-31.24 6.08-31.24L6.08-31.24L13.32-31.24ZM13.32-3.68Q16.64-3.68 19.26-5.20Q21.88-6.72 23.34-9.46Q24.80-12.20 24.80-15.64L24.80-15.64Q24.80-19.08 23.34-21.80Q21.88-24.52 19.26-26.04Q16.64-27.56 13.32-27.56L13.32-27.56L8.16-27.56L8.16-3.68L13.32-3.68Z M35.32-19.84Q35.32-20.76 35.90-21.32Q36.48-21.88 37.36-21.88L37.36-21.88Q38.28-21.88 38.84-21.32Q39.40-20.76 39.40-19.84L39.40-19.84L39.40-2.04Q39.40-1.16 38.84-0.58Q38.28 0 37.36 0L37.36 0Q36.48 0 35.90-0.58Q35.32-1.16 35.32-2.04L35.32-2.04L35.32-19.84ZM37.36-30.72Q38.44-30.72 39.22-29.94Q40-29.16 40-28.08L40-28.08Q40-27 39.22-26.22Q38.44-25.44 37.36-25.44L37.36-25.44Q36.28-25.44 35.50-26.22Q34.72-27 34.72-28.08L34.72-28.08Q34.72-29.16 35.50-29.94Q36.28-30.72 37.36-30.72L37.36-30.72Z M56.92-22.04Q60.08-22.04 62.58-20.62Q65.08-19.20 66.50-16.68Q67.92-14.16 67.92-10.92L67.92-10.92L67.92-2.28Q67.92 0.88 66.52 3.48Q65.12 6.08 62.58 7.58Q60.04 9.08 56.84 9.08L56.84 9.08Q53.96 9.08 51.48 7.94Q49 6.80 47.32 4.68L47.32 4.68Q46.88 4.12 46.88 3.56L46.88 3.56Q46.88 2.72 47.72 2.12L47.72 2.12Q48.28 1.76 48.84 1.76L48.84 1.76Q49.84 1.76 50.48 2.60L50.48 2.60Q51.56 4 53.20 4.74Q54.84 5.48 56.92 5.48L56.92 5.48Q58.88 5.48 60.48 4.54Q62.08 3.60 63.04 1.78Q64-0.04 64-2.56L64-2.56L64-4.52Q62.76-2.32 60.72-1.08Q58.68 0.16 56.12 0.16L56.12 0.16Q53.16 0.16 50.82-1.26Q48.48-2.68 47.18-5.20Q45.88-7.72 45.88-10.92L45.88-10.92Q45.88-14.16 47.28-16.68Q48.68-19.20 51.20-20.62Q53.72-22.04 56.92-22.04L56.92-22.04ZM56.92-3.44Q58.96-3.44 60.58-4.40Q62.20-5.36 63.10-7.06Q64-8.76 64-10.92L64-10.92Q64-13.08 63.10-14.80Q62.20-16.52 60.58-17.48Q58.96-18.44 56.92-18.44L56.92-18.44Q54.88-18.44 53.26-17.48Q51.64-16.52 50.72-14.80Q49.80-13.08 49.80-10.92L49.80-10.92Q49.80-8.76 50.72-7.06Q51.64-5.36 53.26-4.40Q54.88-3.44 56.92-3.44L56.92-3.44Z M74.40-19.84Q74.40-20.76 74.98-21.32Q75.56-21.88 76.44-21.88L76.44-21.88Q77.36-21.88 77.92-21.32Q78.48-20.76 78.48-19.84L78.48-19.84L78.48-2.04Q78.48-1.16 77.92-0.58Q77.36 0 76.44 0L76.44 0Q75.56 0 74.98-0.58Q74.40-1.16 74.40-2.04L74.40-2.04L74.40-19.84ZM76.44-30.72Q77.52-30.72 78.30-29.94Q79.08-29.16 79.08-28.08L79.08-28.08Q79.08-27 78.30-26.22Q77.52-25.44 76.44-25.44L76.44-25.44Q75.36-25.44 74.58-26.22Q73.80-27 73.80-28.08L73.80-28.08Q73.80-29.16 74.58-29.94Q75.36-30.72 76.44-30.72L76.44-30.72Z M95.40-4Q96.12-4 96.62-3.44Q97.12-2.88 97.12-2L97.12-2Q97.12-1.12 96.46-0.56Q95.80 0 94.76 0L94.76 0L94.04 0Q92.08 0 90.46-1.02Q88.84-2.04 87.92-3.80Q87-5.56 87-7.76L87-7.76L87-17.64L85.16-17.64Q84.32-17.64 83.80-18.12Q83.28-18.60 83.28-19.32L83.28-19.32Q83.28-20.12 83.80-20.60Q84.32-21.08 85.16-21.08L85.16-21.08L87-21.08L87-26.84Q87-27.72 87.56-28.28Q88.12-28.84 89-28.84L89-28.84Q89.88-28.84 90.44-28.28Q91-27.72 91-26.84L91-26.84L91-21.08L94.40-21.08Q95.24-21.08 95.76-20.60Q96.28-20.12 96.28-19.32L96.28-19.32Q96.28-18.60 95.76-18.12Q95.24-17.64 94.40-17.64L94.40-17.64L91-17.64L91-7.76Q91-6.16 91.88-5.08Q92.76-4 94.04-4L94.04-4L95.40-4Z M112.04-22.04Q115.12-22.04 117.62-20.58Q120.12-19.12 121.58-16.58Q123.04-14.04 123.04-10.92L123.04-10.92L123.04-2Q123.04-1.12 122.46-0.54Q121.88 0.04 121.00 0.04L121.00 0.04Q120.12 0.04 119.54-0.54Q118.96-1.12 118.96-2L118.96-2L118.96-3.48Q117.56-1.76 115.56-0.80Q113.56 0.16 111.24 0.16L111.24 0.16Q108.36 0.16 106.02-1.28Q103.68-2.72 102.34-5.26Q101.00-7.80 101.00-10.92L101.00-10.92Q101.00-14.04 102.44-16.58Q103.88-19.12 106.42-20.58Q108.96-22.04 112.04-22.04L112.04-22.04ZM112.04-3.44Q114.04-3.44 115.66-4.42Q117.28-5.40 118.20-7.10Q119.12-8.80 119.12-10.92L119.12-10.92Q119.12-13.04 118.20-14.76Q117.28-16.48 115.66-17.46Q114.04-18.44 112.04-18.44L112.04-18.44Q110.04-18.44 108.42-17.46Q106.80-16.48 105.86-14.76Q104.92-13.04 104.92-10.92L104.92-10.92Q104.92-8.80 105.86-7.10Q106.80-5.40 108.42-4.42Q110.04-3.44 112.04-3.44L112.04-3.44Z M128.32-29.24Q128.32-30.12 128.88-30.68Q129.44-31.24 130.32-31.24L130.32-31.24Q131.20-31.24 131.76-30.68Q132.32-30.12 132.32-29.24L132.32-29.24L132.32-7.40Q132.32-5.92 132.88-4.96Q133.44-4 134.32-4L134.32-4L135.32-4Q136.12-4 136.62-3.44Q137.12-2.88 137.12-2L137.12-2Q137.12-1.12 136.36-0.56Q135.60 0 134.40 0L134.40 0L134.32 0Q132.60 0 131.22-0.94Q129.84-1.88 129.08-3.58Q128.32-5.28 128.32-7.40L128.32-7.40L128.32-29.24Z M161.44-31.24Q162.28-31.24 162.82-30.70Q163.36-30.16 163.36-29.32L163.36-29.32Q163.36-28.48 162.82-27.94Q162.28-27.40 161.44-27.40L161.44-27.40L152.84-27.40L152.84-2.08Q152.84-1.20 152.24-0.60Q151.64 0 150.76 0L150.76 0Q149.88 0 149.28-0.60Q148.68-1.20 148.68-2.08L148.68-2.08L148.68-27.40L140.04-27.40Q139.20-27.40 138.66-27.94Q138.12-28.48 138.12-29.32L138.12-29.32Q138.12-30.16 138.66-30.70Q139.20-31.24 140.04-31.24L140.04-31.24L161.44-31.24Z M172.68-22.12Q174.80-22.12 176-21.48Q177.20-20.84 177.20-19.88L177.20-19.88Q177.20-19.60 177.16-19.48L177.16-19.48Q176.80-18.20 175.56-18.20L175.56-18.20Q175.36-18.20 174.96-18.28L174.96-18.28Q173.36-18.56 172.36-18.56L172.36-18.56Q169.48-18.56 167.72-17.24Q165.96-15.92 165.96-13.68L165.96-13.68L165.96-2Q165.96-1.04 165.46-0.52Q164.96 0 163.96 0L163.96 0Q163 0 162.48-0.50Q161.96-1 161.96-2L161.96-2L161.96-19.88Q161.96-20.84 162.48-21.36Q163-21.88 163.96-21.88L163.96-21.88Q165.96-21.88 165.96-19.88L165.96-19.88L165.96-19.12Q167.16-20.52 168.92-21.32Q170.68-22.12 172.68-22.12L172.68-22.12Z M199.44-11.28Q199.44-10.52 198.92-10.02Q198.40-9.52 197.60-9.52L197.60-9.52L182.40-9.52Q182.84-6.72 184.94-5Q187.04-3.28 190.08-3.28L190.08-3.28Q191.28-3.28 192.58-3.72Q193.88-4.16 194.72-4.80L194.72-4.80Q195.28-5.24 196.04-5.24L196.04-5.24Q196.80-5.24 197.24-4.84L197.24-4.84Q197.96-4.24 197.96-3.48L197.96-3.48Q197.96-2.76 197.32-2.28L197.32-2.28Q195.96-1.20 193.94-0.52Q191.92 0.16 190.08 0.16L190.08 0.16Q186.80 0.16 184.20-1.26Q181.60-2.68 180.14-5.20Q178.68-7.72 178.68-10.92L178.68-10.92Q178.68-14.12 180.06-16.66Q181.44-19.20 183.90-20.62Q186.36-22.04 189.48-22.04L189.48-22.04Q192.56-22.04 194.80-20.68Q197.04-19.32 198.24-16.88Q199.44-14.44 199.44-11.28L199.44-11.28ZM189.48-18.60Q186.56-18.60 184.74-17Q182.92-15.40 182.44-12.72L182.44-12.72L195.76-12.72Q195.40-15.40 193.76-17Q192.12-18.60 189.48-18.60L189.48-18.60Z M215.52-22.08Q218.28-22.08 220.48-20.88Q222.68-19.68 223.92-17.38Q225.16-15.08 225.16-11.84L225.16-11.84L225.16-2Q225.16-1.12 224.58-0.54Q224.00 0.04 223.12 0.04L223.12 0.04Q222.24 0.04 221.66-0.54Q221.08-1.12 221.08-2L221.08-2L221.08-11.84Q221.08-15.08 219.34-16.74Q217.60-18.40 214.72-18.40L214.72-18.40Q213.04-18.40 211.66-17.72Q210.28-17.04 209.50-15.88Q208.72-14.72 208.72-13.28L208.72-13.28L208.72-2Q208.72-1.12 208.16-0.54Q207.60 0.04 206.68 0.04L206.68 0.04Q205.80 0.04 205.22-0.54Q204.64-1.12 204.64-2L204.64-2L204.64-19.84Q204.64-20.76 205.22-21.32Q205.80-21.88 206.68-21.88L206.68-21.88Q207.60-21.88 208.16-21.32Q208.72-20.76 208.72-19.84L208.72-19.84L208.72-19.40Q210.00-20.68 211.76-21.38Q213.52-22.08 215.52-22.08L215.52-22.08Z M250.80-31.24Q251.72-31.24 252.28-30.68Q252.84-30.12 252.84-29.20L252.84-29.20L252.84-10.96Q252.84-7.84 251.38-5.30Q249.92-2.76 247.42-1.30Q244.92 0.16 241.84 0.16L241.84 0.16Q238.76 0.16 236.22-1.30Q233.68-2.76 232.24-5.30Q230.80-7.84 230.80-10.96L230.80-10.96Q230.80-14.08 232.14-16.62Q233.48-19.16 235.82-20.60Q238.16-22.04 241.04-22.04L241.04-22.04Q243.36-22.04 245.36-21.08Q247.36-20.12 248.76-18.40L248.76-18.40L248.76-29.20Q248.76-30.12 249.34-30.68Q249.92-31.24 250.80-31.24L250.80-31.24ZM241.84-3.44Q243.84-3.44 245.46-4.42Q247.08-5.40 248.00-7.12Q248.92-8.84 248.92-10.96L248.92-10.96Q248.92-13.08 248.00-14.78Q247.08-16.48 245.46-17.46Q243.84-18.44 241.84-18.44L241.84-18.44Q239.84-18.44 238.22-17.46Q236.60-16.48 235.66-14.78Q234.72-13.08 234.72-10.96L234.72-10.96Q234.72-8.84 235.66-7.12Q236.60-5.40 238.22-4.42Q239.84-3.44 241.84-3.44L241.84-3.44Z M267.72-22.04Q270.32-22.04 272.38-21.20Q274.44-20.36 275.64-18.88L275.64-18.88Q276.16-18.24 276.16-17.60L276.16-17.60Q276.16-16.92 275.48-16.36L275.48-16.36Q275.04-16.04 274.36-16.04L274.36-16.04Q273.32-16.04 272.48-16.80L272.48-16.80Q271.48-17.72 270.36-18.10Q269.24-18.48 267.64-18.48L267.64-18.48Q265.80-18.48 264.62-17.86Q263.44-17.24 263.44-16.12L263.44-16.12Q263.44-15.32 263.84-14.78Q264.24-14.24 265.36-13.78Q266.48-13.32 268.60-12.88L268.60-12.88Q272.96-12 274.78-10.44Q276.60-8.88 276.60-6.40L276.60-6.40Q276.60-4.56 275.60-3.06Q274.60-1.56 272.66-0.70Q270.72 0.16 268 0.16L268 0.16Q265.28 0.16 262.88-0.68Q260.48-1.52 259.12-2.88L259.12-2.88Q258.60-3.40 258.60-4.12L258.60-4.12Q258.60-5.08 259.40-5.68L259.40-5.68Q260.16-6.24 260.80-6.24L260.80-6.24Q261.60-6.24 262.32-5.52L262.32-5.52Q263.08-4.68 264.60-4.06Q266.12-3.44 267.84-3.44L267.84-3.44Q270.12-3.44 271.38-4.20Q272.64-4.96 272.64-6.24L272.64-6.24Q272.64-7.48 271.40-8.30Q270.16-9.12 267.20-9.68L267.20-9.68Q259.52-11.16 259.52-16L259.52-16Q259.52-17.96 260.68-19.32Q261.84-20.68 263.72-21.36Q265.60-22.04 267.72-22.04L267.72-22.04Z"/></g>
</svg>
</g></svg></svg>