<svg version="1.1" preserveAspectRatio="none" xmlns="http://www.w3.org/2000/svg" width="500" height="500" viewBox="0 0 500 500"><rect width="100%" height="100%" fill="#FFFFFF" fill-opacity="1"/><svg viewBox="147.3574 263.1715 461.0653 180" width="333" height="130.00327719305704" x="83.5px" y="184.9984px" xmlns="http://www.w3.org/2000/svg" xmlns:xlink="http://www.w3.org/1999/xlink" preserveAspectRatio="none"><defs></defs><style>.background {fill:#FFFFFF;fill-opacity:1;}.companyName {fill:#5C6D47;fill-opacity:1;}.icon3 {fill:#EBD4C0;fill-opacity:1;}.icon3-str {stroke:#EBD4C0;stroke-opacity:1;}.shapeStroke-str {stroke:#EBD4C0;stroke-opacity:1;}</style><g opacity="1" transform="rotate(0 147.3574 263.1715)">
<svg width="232.5327" height="180" x="147.3574" y="263.1715" version="1.1" preserveAspectRatio="none" viewBox="0 0 232.5327 180">
  <defs><rect x="0" y="0" width="232.5327" height="180" rx="0px" ry="0px" id="id-60p5ZquTE1743508077390"></rect></defs><use class="companyName shapeStroke-str" style="stroke-width:0;" xlink:href="#id-60p5ZquTE1743508077390"></use>
</svg>
</g><g opacity="1" transform="rotate(0 377.89 263.1715)">
<svg width="230.5327" height="180" x="377.89" y="263.1715" version="1.1" preserveAspectRatio="none" viewBox="0 0 230.5327 180">
  <defs><rect x="0" y="0" width="230.5327" height="180" rx="0px" ry="0px" id="id-hs7pIl34o1743508077390"></rect></defs><use class="icon3 shapeStroke-str" style="stroke-width:0;" xlink:href="#id-hs7pIl34o1743508077390"></use>
</svg>
</g><g opacity="1" transform="rotate(0 197.3574 323.1715)">
<svg width="361.0653" height="60" x="197.3574" y="323.1715" version="1.1" preserveAspectRatio="none" viewBox="0.4297 -30.0586 185.3516 30.8008">
  <g transform="matrix(1 0 0 1 0 0)" class="background"><path id="id-D6z1nYkh7" d="M4.34-0.54Q2.83-1.19 1.98-2.19Q1.13-3.18 0.86-4.06L0.86-4.06Q0.43-5.37 0.43-6.31Q0.43-7.25 1.04-8.46Q1.66-9.67 3.09-10.86L3.09-10.86Q6.21-13.46 12.68-15.31L12.68-15.31Q10.61-16.19 10.31-18.11L10.31-18.11Q10.02-20.29 12.19-21.99L12.19-21.99Q16.19-25.14 27.58-26.25L27.58-26.25Q31.09-26.58 32.69-26.58Q34.28-26.58 34.95-26.07Q35.63-25.57 35.75-24.56Q35.88-23.55 35.37-22.87Q34.86-22.19 33.93-21.78L33.93-21.78Q32.19-21.02 29.18-21.02L29.18-21.02Q26.97-21.02 25.16-21.68L25.16-21.68Q24.67-21.88 24.39-22.09L24.39-22.09Q20.49-20.88 19.96-19.38L19.96-19.38Q19.80-18.98 19.84-18.65L19.84-18.65Q20.02-17.46 21.41-16.89Q22.79-16.33 25.63-16.17L25.63-16.17Q26.56-16.09 27.02-15.66Q27.48-15.23 27.55-14.77Q27.62-14.30 27.48-14.03Q27.34-13.77 27.07-13.59L27.07-13.59Q26.60-13.28 25.21-13.07Q23.83-12.85 21.99-12.47Q20.16-12.09 18.50-11.66Q16.84-11.23 15.42-10.78Q14.00-10.33 12.97-9.92L12.97-9.92Q10.78-9.00 10.86-8.45Q10.94-7.89 11.31-7.48Q11.68-7.07 12.30-6.76L12.30-6.76Q13.48-6.21 15.17-6.06Q16.86-5.92 18.45-5.92Q20.04-5.92 21.87-6.18Q23.69-6.45 25.28-6.86Q26.88-7.27 28.21-7.72Q29.55-8.18 30.55-8.59L30.55-8.59L32.15-9.26Q32.77-9.53 33.28-9.53L33.28-9.53Q34.63-9.53 34.80-8.11L34.80-8.11Q35.04-6.17 30.47-3.75L30.47-3.75Q24.36-0.49 16.95 0.51L16.95 0.51Q15.23 0.74 12.82 0.74Q10.41 0.74 8.13 0.43Q5.84 0.12 4.34-0.54Z M64.26-12.60L64.26-12.60Q64.26-11.68 61.86-9.04L61.86-9.04Q59.39-6.37 57.03-4.69L57.03-4.69Q52.46-1.29 46.89-0.04L46.89-0.04Q44.79 0.45 42.90 0.45Q41.02 0.45 39.78 0.13Q38.54-0.20 37.55-0.73Q36.56-1.27 35.84-1.97Q35.12-2.68 34.63-3.46L34.63-3.46Q33.67-4.98 33.67-6.27Q33.67-7.56 33.96-8.54Q34.24-9.51 34.75-10.39L34.75-10.39Q36.52-13.59 41.89-16.05L41.89-16.05Q46.13-18.03 49.98-18.61L49.98-18.61Q51.64-18.87 52.34-18.87Q53.05-18.87 53.53-18.72Q54.00-18.57 54.36-18.32L54.36-18.32Q55.14-17.75 55.14-16.78Q55.14-15.80 54.63-14.93Q54.12-14.06 53.34-13.48L53.34-13.48Q51.82-12.34 49.94-12.34L49.94-12.34Q47.38-12.34 45.72-13.01L45.72-13.01Q44.57-12.60 43.77-11.50L43.77-11.50Q43.11-10.61 43.11-9.89Q43.11-9.18 43.43-8.51Q43.75-7.83 44.34-7.30L44.34-7.30Q45.63-6.17 47.44-6.17L47.44-6.17Q51.66-6.17 57.27-10.64L57.27-10.64L59.04-12.03Q61.86-14.18 63.06-14.18Q64.26-14.18 64.26-12.60Z M80.41-12.03L80.41-12.03Q80.41-10.98 82.21-10.98L82.21-10.98Q83.54-10.98 85.68-12.27L85.68-12.27L87.25-13.13Q87.97-13.54 88.51-13.54Q89.04-13.54 89.36-13.20Q89.67-12.87 89.67-12.29Q89.67-11.70 89.28-10.93Q88.89-10.16 88.20-9.31Q87.52-8.46 86.60-7.63Q85.68-6.80 84.63-6.13L84.63-6.13Q82.29-4.67 80.27-4.67L80.27-4.67Q78.14-4.67 76.88-5.39L76.88-5.39Q76.48-5.63 76.11-5.88L76.11-5.88Q74.02-3.50 70.06-1.50L70.06-1.50Q65.84 0.61 62.70 0.61L62.70 0.61Q59.39 0.61 57.48-1.99L57.48-1.99Q55.94-4.10 55.94-6.27L55.94-6.27Q55.94-9.39 59.28-12.23L59.28-12.23Q61.74-14.30 64.03-15.37Q66.33-16.45 68.18-17.03L68.18-17.03Q72.11-18.26 75.25-18.26L75.25-18.26Q76.66-18.26 77.76-17.72Q78.87-17.19 79.39-16.64L79.39-16.64Q80.64-15.41 80.64-13.50L80.64-13.50Q80.64-12.93 80.53-12.62Q80.41-12.30 80.41-12.03ZM64.43-8.34L64.43-8.34L64.41-8.28L64.41-8.26Q64.41-7.42 64.79-7.17L64.79-7.17Q65.68-6.62 66.68-6.88Q67.68-7.15 68.57-7.54L68.57-7.54Q70.80-8.50 72.60-9.96L72.60-9.96Q72.29-10.59 72.29-11.25L72.29-11.25Q72.29-12.66 73.52-14.06L73.52-14.06Q71.95-14.06 69.30-12.60L69.30-12.60Q66.37-10.98 64.90-9.26L64.90-9.26Q64.43-8.67 64.43-8.34Z M107.85-13.38L107.85-13.38Q109.77-13.38 109.77-12.05L109.77-12.05Q109.77-10.78 107.97-8.77L107.97-8.77L107.01-7.77Q105.27-6.00 102.96-4.28Q100.64-2.56 98.89-1.56L98.89-1.56Q94.80 0.70 91.48 0.70L91.48 0.70Q88.36 0.70 86.39-1.17L86.39-1.17Q84.69-2.79 84.69-4.59Q84.69-6.39 85.04-8.16Q85.39-9.94 85.96-11.64L85.96-11.64Q87.09-15.10 88.44-17.52L88.44-17.52Q88.79-18.18 88.79-18.38L88.79-18.38L86.27-18.38Q84.84-18.38 84.06-19.04Q83.28-19.71 83.28-20.55Q83.28-21.39 83.59-21.78Q83.91-22.17 84.38-22.34L84.38-22.34Q85.04-22.62 86.33-22.62L86.33-22.62L91.11-22.60Q91.27-22.66 91.74-23.44L91.74-23.44L92.93-25.49Q93.69-26.86 94.46-27.50Q95.23-28.14 96.28-28.14Q97.32-28.14 98.04-27.95Q98.75-27.75 99.24-27.46L99.24-27.46Q100.20-26.84 100.20-26.09L100.20-26.09Q100.20-25.78 99.98-25.25L99.98-25.25L98.89-22.60L108.16-22.62Q109.38-22.62 109.38-21.37L109.38-21.37Q109.38-18.40 104.08-18.40L104.08-18.40L96.93-18.38Q96.70-18.26 96.13-17.25L96.13-17.25L95.25-15.63Q94.92-15.02 94.79-14.71L94.79-14.71L94.36-13.75Q93.05-10.80 93.05-9.49Q93.05-8.18 93.74-7.30Q94.43-6.43 95.59-6.43Q96.74-6.43 97.84-6.88Q98.95-7.32 100-7.97L100-7.97Q101.91-9.16 103.01-10.18Q104.10-11.19 104.82-11.72L104.82-11.72Q104.82-11.72 106.19-12.68L106.19-12.68Q107.25-13.38 107.85-13.38Z M133.20-14.36L133.20-14.36Q134.14-14.36 134.14-13.30L134.14-13.30Q134.14-12.60 133.66-11.53Q133.18-10.47 132.29-9.54Q131.39-8.61 130.22-7.62Q129.06-6.62 127.51-5.53Q125.96-4.43 124.08-3.36Q122.21-2.29 120.10-1.43L120.10-1.43Q115.43 0.49 111.05 0.49L111.05 0.49Q107.71 0.49 105.21-1.25L105.21-1.25Q102.60-3.07 102.60-5.66L102.60-5.66Q102.60-9.75 106.99-13.42L106.99-13.42Q110.78-16.58 115.92-18.32L115.92-18.32Q119.04-19.38 121.21-19.38L121.21-19.38Q122.97-19.38 124.18-18.52L124.18-18.52Q125.47-17.58 125.47-16.00L125.47-16.00Q125.47-13.52 121.54-10.51L121.54-10.51Q120.92-10.02 120.41-9.69L120.41-9.69L119.71-9.22Q117.75-7.85 113.77-6.15L113.77-6.15Q115-5.51 116.06-5.51Q117.13-5.51 117.98-5.76Q118.83-6.02 119.90-6.48Q120.98-6.95 122.20-7.61Q123.42-8.26 124.67-9.04L124.67-9.04Q127.46-10.78 129.51-12.60L129.51-12.60Q130.59-13.59 132.25-14.18L132.25-14.18Q132.79-14.36 133.20-14.36ZM111.66-8.87L111.66-8.87L112.73-9.41Q113.26-9.69 113.67-9.92L113.67-9.92Q117.62-12.19 118.16-12.71Q118.71-13.24 118.71-13.45Q118.71-13.65 118.59-13.93Q118.48-14.20 118.28-14.41L118.28-14.41Q117.81-14.96 117.29-14.96Q116.76-14.96 116.12-14.77Q115.49-14.57 114.84-14.23Q114.20-13.89 113.60-13.41Q113.01-12.93 112.56-12.38L112.56-12.38Q111.52-11.15 111.52-10.25Q111.52-9.36 111.66-8.87Z M157.23-12.60L157.23-12.60Q157.23-11.68 154.82-9.04L154.82-9.04Q152.36-6.37 150-4.69L150-4.69Q145.43-1.29 139.86-0.04L139.86-0.04Q137.75 0.45 135.87 0.45Q133.98 0.45 132.74 0.13Q131.50-0.20 130.52-0.73Q129.53-1.27 128.81-1.97Q128.09-2.68 127.60-3.46L127.60-3.46Q126.64-4.98 126.64-6.27Q126.64-7.56 126.92-8.54Q127.21-9.51 127.71-10.39L127.71-10.39Q129.49-13.59 134.86-16.05L134.86-16.05Q139.10-18.03 142.95-18.61L142.95-18.61Q144.61-18.87 145.31-18.87Q146.02-18.87 146.49-18.72Q146.97-18.57 147.32-18.32L147.32-18.32Q148.11-17.75 148.11-16.78Q148.11-15.80 147.60-14.93Q147.09-14.06 146.31-13.48L146.31-13.48Q144.79-12.34 142.91-12.34L142.91-12.34Q140.35-12.34 138.69-13.01L138.69-13.01Q137.54-12.60 136.74-11.50L136.74-11.50Q136.07-10.61 136.07-9.89Q136.07-9.18 136.40-8.51Q136.72-7.83 137.30-7.30L137.30-7.30Q138.59-6.17 140.41-6.17L140.41-6.17Q144.63-6.17 150.23-10.64L150.23-10.64L152.01-12.03Q154.82-14.18 156.03-14.18Q157.23-14.18 157.23-12.60Z M160.78-12.64L160.78-12.64Q160.78-11.93 161.31-11.93L161.31-11.93Q161.95-11.93 162.97-12.79L162.97-12.79L164.67-14.26Q167.36-16.58 169.80-16.58L169.80-16.58Q171.39-16.58 172.62-13.95L172.62-13.95Q173.69-11.68 174.55-7.19L174.55-7.19Q174.71-6.45 174.81-6.45Q174.92-6.45 175.38-6.80Q175.84-7.15 176.50-7.70L176.50-7.70Q181.29-11.78 182.04-12.26Q182.79-12.73 183.09-12.90Q183.38-13.07 183.69-13.20L183.69-13.20Q184.47-13.50 184.92-13.50L184.92-13.50Q185.78-13.50 185.78-12.60L185.78-12.60Q185.78-11.23 183.98-8.61L183.98-8.61Q181.97-5.68 178.65-2.77L178.65-2.77Q174.79 0.64 171.89 0.64L171.89 0.64Q168.85 0.64 167.79-3.46L167.79-3.46Q167.52-4.51 167.36-5.43L167.36-5.43L167.07-6.95Q166.95-7.56 166.77-7.56Q166.58-7.56 166.00-6.97L166.00-6.97L164.55-5.51Q162.13-3.05 160.49-1.91L160.49-1.91Q157.19 0.39 154.71 0.39L154.71 0.39Q151.74 0.39 151.21-2.62L151.21-2.62Q151.05-3.52 151.05-4.89Q151.05-6.27 151.45-8.26Q151.84-10.25 152.52-12.25L152.52-12.25Q154.00-16.50 156.21-19.51L156.21-19.51L157.95-21.82Q164.26-30.06 168.50-30.06L168.50-30.06Q169.45-30.06 169.88-29.12L169.88-29.12Q170.02-28.83 170.02-28.24Q170.02-27.66 169.51-26.73Q169.00-25.80 168.26-24.80Q167.52-23.81 166.67-22.78Q165.82-21.76 165.12-20.76L165.12-20.76L163.65-18.63Q160.78-14.32 160.78-12.64Z"/></g>
</svg>
</g></svg></svg>