<svg version="1.1" preserveAspectRatio="none" xmlns="http://www.w3.org/2000/svg" width="500" height="500" viewBox="0 0 500 500"><rect width="100%" height="100%" fill="#F8EEFF" fill-opacity="1"/><svg viewBox="402.4874 307.0536 395.9716 118.125" width="333" height="99.33951071238442" x="83.5px" y="200.3302px" xmlns="http://www.w3.org/2000/svg" xmlns:xlink="http://www.w3.org/1999/xlink" preserveAspectRatio="none"><defs></defs><style>.aIptOCySncolors-3 {fill:#FF9E69;fill-opacity:1;}.aIptOCySncolors-4 {fill:#FEEAA3;fill-opacity:1;}.aIptOCySncolors-5 {fill:#885BAA;fill-opacity:1;}.aIptOCySncolors-6 {fill:#270D5D;fill-opacity:1;}.aIptOCySncolors-7 {fill:#000000;fill-opacity:1;}.companyName {fill:#BB90DB;fill-opacity:1;}.icon1 {fill:#BB90DB;fill-opacity:1;}.icon2 {fill:#FF5F08;fill-opacity:1;}.icon3 {fill:#FFD649;fill-opacity:1;}.icon3-str {stroke:#FFD649;stroke-opacity:1;}</style><g opacity="1" transform="rotate(0 550.4732 307.0536)">
<svg width="100" height="48.125" x="550.4732" y="307.0536" version="1.1" preserveAspectRatio="none" viewBox="20 61.5 160 77">
  <g transform="matrix(1 0 0 1 0 0)"><g><path d="M94.1 100l11.8-17.8H45.5L20 120.7h29.4L63.2 100h30.9z" data-color="1" class="icon1"></path><path d="M80.4 120.7h-31l-11.8 17.8H98l25.5-38.5H94.1l-13.7 20.7z" data-color="2" class="icon2"></path><path d="M94.1 100H63.2l-13.7 20.7h30.9L94.1 100z" opacity=".38" data-color="3" class="icon3"></path><path d="M94.1 100H63.2l-13.7 20.7h30.9L94.1 100z" data-color="3" class="icon3"></path><path d="M119.6 61.5l-13.7 20.7L94.1 100h60.4L180 61.5h-60.4z" data-color="3" class="icon3"></path><path d="M94.1 100l11.8-17.8L94.1 100z" data-color="3" class="icon3"></path></g></g>
</svg>
</g><g opacity="1" transform="rotate(0 402.4874 385.1786)">
<svg width="395.9716" height="40" x="402.4874" y="385.1786" version="1.1" preserveAspectRatio="none" viewBox="1.16 -28.64 289.71999999999997 29.28">
  <g transform="matrix(1 0 0 1 0 0)" class="companyName"><path id="id-D6z1nYkh10" d="M20.80-7.68L20.80-14.76L29-14.76L29-2.92Q26.52-1.20 23.24-0.28Q19.96 0.64 16.80 0.64L16.80 0.64Q12.32 0.64 8.76-1.22Q5.20-3.08 3.18-6.42Q1.16-9.76 1.16-14L1.16-14Q1.16-18.24 3.18-21.58Q5.20-24.92 8.82-26.78Q12.44-28.64 17-28.64L17-28.64Q21.12-28.64 24.38-27.26Q27.64-25.88 29.80-23.24L29.80-23.24L23.76-17.92Q21.12-21 17.48-21L17.48-21Q14.36-21 12.52-19.12Q10.68-17.24 10.68-14L10.68-14Q10.68-10.84 12.50-8.92Q14.32-7 17.36-7L17.36-7Q19.16-7 20.80-7.68L20.80-7.68Z M54 0L52.12-4.88L41.48-4.88L39.60 0L30 0L42.24-28L51.52-28L63.76 0L54 0ZM44.08-11.68L49.52-11.68L46.80-18.72L44.08-11.68Z M98.88 0L90.28 0L90.20-12.76L84.12-2.52L79.96-2.52L73.88-12.32L73.88 0L65.28 0L65.28-28L73.04-28L82.16-13.08L91.04-28L98.80-28L98.88 0Z M112.72-7.12L126.72-7.12L126.72 0L103.44 0L103.44-28L126.20-28L126.20-20.88L112.72-20.88L112.72-17.60L124.56-17.60L124.56-10.80L112.72-10.80L112.72-7.12Z M140.80 0.64Q137.32 0.64 134.02-0.14Q130.72-0.92 128.60-2.24L128.60-2.24L131.64-9.12Q133.64-7.96 136.12-7.26Q138.60-6.56 140.88-6.56L140.88-6.56Q142.84-6.56 143.68-6.94Q144.52-7.32 144.52-8.08L144.52-8.08Q144.52-8.96 143.42-9.40Q142.32-9.84 139.80-10.36L139.80-10.36Q136.56-11.04 134.40-11.82Q132.24-12.60 130.64-14.38Q129.04-16.16 129.04-19.20L129.04-19.20Q129.04-21.84 130.52-24Q132.00-26.16 134.94-27.40Q137.88-28.64 142.08-28.64L142.08-28.64Q144.96-28.64 147.74-28.02Q150.52-27.40 152.64-26.20L152.64-26.20L149.80-19.36Q145.68-21.44 142.00-21.44L142.00-21.44Q138.36-21.44 138.36-19.68L138.36-19.68Q138.36-18.84 139.44-18.42Q140.52-18 143.00-17.52L143.00-17.52Q146.20-16.92 148.40-16.14Q150.60-15.36 152.22-13.60Q153.84-11.84 153.84-8.80L153.84-8.80Q153.84-6.16 152.36-4.02Q150.88-1.88 147.94-0.62Q145 0.64 140.80 0.64L140.80 0.64Z M162.32 0L162.32-20.68L154.12-20.68L154.12-28L179.96-28L179.96-20.68L171.76-20.68L171.76 0L162.32 0Z M195.40 0.64Q188.96 0.64 185.36-2.84Q181.76-6.32 181.76-12.60L181.76-12.60L181.76-28L191.20-28L191.20-12.88Q191.20-9.80 192.30-8.40Q193.40-7 195.48-7L195.48-7Q197.56-7 198.66-8.40Q199.76-9.80 199.76-12.88L199.76-12.88L199.76-28L209.04-28L209.04-12.60Q209.04-6.32 205.44-2.84Q201.84 0.64 195.40 0.64L195.40 0.64Z M213.36 0L213.36-28L227.16-28Q231.84-28 235.42-26.30Q239-24.60 240.98-21.44Q242.96-18.28 242.96-14L242.96-14Q242.96-9.72 240.98-6.56Q239-3.40 235.42-1.70Q231.84 0 227.16 0L227.16 0L213.36 0ZM222.80-7.36L226.76-7.36Q229.80-7.36 231.62-9.10Q233.44-10.84 233.44-14L233.44-14Q233.44-17.16 231.62-18.90Q229.80-20.64 226.76-20.64L226.76-20.64L222.80-20.64L222.80-7.36Z M246.40 0L246.40-28L255.84-28L255.84 0L246.40 0Z M275.08 0.64Q270.56 0.64 266.96-1.24Q263.36-3.12 261.32-6.46Q259.28-9.80 259.28-14L259.28-14Q259.28-18.20 261.32-21.54Q263.36-24.88 266.96-26.76Q270.56-28.64 275.08-28.64L275.08-28.64Q279.60-28.64 283.20-26.76Q286.80-24.88 288.84-21.54Q290.88-18.20 290.88-14L290.88-14Q290.88-9.80 288.84-6.46Q286.80-3.12 283.20-1.24Q279.60 0.64 275.08 0.64L275.08 0.64ZM275.08-7Q276.84-7 278.26-7.86Q279.68-8.72 280.52-10.30Q281.36-11.88 281.36-14L281.36-14Q281.36-16.12 280.52-17.70Q279.68-19.28 278.26-20.14Q276.84-21 275.08-21L275.08-21Q273.32-21 271.90-20.14Q270.48-19.28 269.64-17.70Q268.80-16.12 268.80-14L268.80-14Q268.80-11.88 269.64-10.30Q270.48-8.72 271.90-7.86Q273.32-7 275.08-7L275.08-7Z"/></g>
</svg>
</g></svg></svg>