<svg version="1.1" preserveAspectRatio="none" xmlns="http://www.w3.org/2000/svg" width="500" height="500" viewBox="0 0 500 500"><rect width="100%" height="100%" fill="#F5F1EE" fill-opacity="1"/><svg viewBox="54.9661 130.0026 398.9918 215.6168" width="333" height="179.95456147219065" x="83.5px" y="160.0227px" xmlns="http://www.w3.org/2000/svg" xmlns:xlink="http://www.w3.org/1999/xlink" preserveAspectRatio="none"><defs></defs><style>.companyName {fill:#9D5D35;fill-opacity:1;}.icon1 {fill:#D6C4B0;fill-opacity:1;}.icon2 {fill:#5D949E;fill-opacity:1;}.icon3 {fill:#958868;fill-opacity:1;}.icon3-str {stroke:#958868;stroke-opacity:1;}</style><g opacity="1" transform="rotate(0 174.6636 130.0026)">
<svg width="159.5968" height="151.6168" x="174.6636" y="130.0026" version="1.1" preserveAspectRatio="none" viewBox="20 23.999996185302734 160 152">
  <g transform="matrix(1 0 0 1 0 0)"><g><path d="M82.6 134.1L20 166.3V105l62.6-32.2v61.3z" data-color="1" class="icon1"></path><path d="M141.4 73l-50 25.7v-49l50-25.7v49z" data-color="2" class="icon2"></path><path d="M56.4 127l50-25.7v49l-50 25.7v-49z" data-color="2" class="icon2"></path><path d="M180 87.8L117.4 120V58.8L180 26.6v61.2z" data-color="3" class="icon3"></path></g></g>
</svg>
</g><g opacity="1" transform="rotate(0 54.9661 307.6194)">
<svg width="398.9918" height="38" x="54.9661" y="307.6194" version="1.1" preserveAspectRatio="none" viewBox="1.6016 -26.8359 287.3046 27.3632">
  <g transform="matrix(1 0 0 1 0 0)" class="companyName"><path id="id-D6z1nYkh10" d="M1.60-24.65L1.60-26.84L9.88-26.84L33.16-3.13L33.16-24.65L27.56-24.65L27.56-26.84L41.19-26.84L41.19-24.65L35.61-24.65L35.61 0L32.93 0L9.65-23.63L9.65-2.21L15.23-2.21L15.23 0L1.60 0L1.60-2.21L7.21-2.21L7.21-24.65L1.60-24.65Z M46.84-10.23L64.00-10.23Q63.91-11.56 63.40-12.75Q62.89-13.95 61.88-14.85Q60.86-15.76 59.32-16.30Q57.77-16.84 55.61-16.84L55.61-16.84Q53.57-16.84 52.01-16.30Q50.45-15.76 49.36-14.85Q48.26-13.95 47.64-12.75Q47.01-11.56 46.84-10.23L46.84-10.23ZM55.57 0.49L55.57 0.49Q53.01 0.49 50.93-0.19Q48.85-0.86 47.38-2.12Q45.92-3.38 45.12-5.18Q44.32-6.97 44.32-9.20L44.32-9.20Q44.32-11.37 45.16-13.17Q46.00-14.98 47.50-16.28Q49.00-17.58 51.07-18.29Q53.14-19.00 55.61-19.00L55.61-19.00Q58.16-19.00 60.20-18.28Q62.23-17.56 63.63-16.20Q65.04-14.84 65.78-12.91Q66.52-10.98 66.52-8.55L66.52-8.55L66.52-8.13L46.84-8.13Q46.97-6.64 47.61-5.45Q48.24-4.26 49.36-3.42Q50.47-2.58 52.02-2.13Q53.57-1.68 55.57-1.68L55.57-1.68Q57.48-1.68 58.90-1.99Q60.31-2.30 61.30-2.83Q62.29-3.36 62.90-4.02Q63.52-4.69 63.85-5.39L63.85-5.39L66.29-5.39Q65.14-2.42 62.37-0.97Q59.61 0.49 55.57 0.49Z M68.36-16.41L68.36-18.59L73.40-18.59L73.40-25.04L75.84-25.04L75.84-18.59L88.93-18.59L88.93-16.41L75.84-16.41L75.84-5.57Q75.84-4.41 76.26-3.65Q76.68-2.89 77.44-2.44Q78.20-1.99 79.27-1.82Q80.33-1.64 81.60-1.64L81.60-1.64Q82.87-1.64 83.93-1.80Q84.98-1.95 85.84-2.20Q86.70-2.44 87.41-2.76Q88.13-3.09 88.71-3.44L88.71-3.44L89.92-1.48Q89.20-1.07 88.29-0.71Q87.38-0.35 86.33-0.09Q85.27 0.18 84.08 0.33Q82.89 0.49 81.64 0.49L81.64 0.49Q79.77 0.49 78.24 0.18Q76.72-0.14 75.64-0.84Q74.57-1.54 73.98-2.69Q73.40-3.83 73.40-5.49L73.40-5.49L73.40-16.41L68.36-16.41Z M91.84-16.41L91.84-18.59L101.48-18.59L101.48-16.41L97.79-16.41L103.28-2.87L109.63-18.59L112.60-18.59L118.96-2.87L124.39-16.41L120.76-16.41L120.76-18.59L130.39-18.59L130.39-16.41L126.88-16.41L120.23 0L117.71 0L111.11-16.15L104.55 0L101.99 0L95.31-16.41L91.84-16.41Z M156.60-9.28L156.60-9.28Q156.60-6.72 155.68-4.87Q154.77-3.03 153.16-1.83Q151.56-0.63 149.38-0.05Q147.21 0.53 144.69 0.53L144.69 0.53Q142.15 0.53 139.96-0.05Q137.77-0.63 136.16-1.83Q134.55-3.03 133.63-4.87Q132.71-6.72 132.71-9.28L132.71-9.28Q132.71-11.82 133.64-13.68Q134.57-15.55 136.19-16.75Q137.81-17.95 140-18.54Q142.19-19.12 144.69-19.12L144.69-19.12Q147.21-19.12 149.38-18.54Q151.56-17.97 153.16-16.77Q154.77-15.57 155.68-13.70Q156.60-11.84 156.60-9.28ZM154.20-9.28L154.20-9.28Q154.20-13.05 151.81-15.04Q149.41-17.03 144.69-17.03L144.69-17.03Q139.94-17.03 137.53-15.04Q135.12-13.05 135.12-9.28L135.12-9.28Q135.12-5.51 137.53-3.54Q139.94-1.56 144.69-1.56L144.69-1.56Q149.41-1.56 151.81-3.54Q154.20-5.53 154.20-9.28Z M159.43-16.41L159.43-18.59L166.27-18.59L166.27-14.69Q167.07-15.63 167.99-16.44Q168.91-17.25 169.97-17.84Q171.04-18.44 172.26-18.78Q173.48-19.12 174.88-19.12L174.88-19.12Q175.59-19.12 176.19-19.01Q176.80-18.91 177.27-18.77Q177.73-18.63 178.05-18.50Q178.36-18.36 178.48-18.32L178.48-18.32L177.60-16.07Q177.11-16.33 176.34-16.60Q175.57-16.88 174.39-16.88L174.39-16.88Q172.91-16.88 171.67-16.42Q170.43-15.96 169.42-15.27Q168.42-14.59 167.64-13.76Q166.86-12.93 166.27-12.21L166.27-12.21L166.27-2.21L171.07-2.21L171.07 0L159.43 0L159.43-2.21L163.83-2.21L163.83-16.41L159.43-16.41Z M179.88-24.65L179.88-26.84L186.72-26.84L186.72-11.07L195.76-16.56Q196.93-17.27 197.90-17.72Q198.87-18.18 199.69-18.45Q200.51-18.71 201.22-18.82Q201.93-18.93 202.60-18.93L202.60-18.93Q203.71-18.93 204.40-18.78Q205.10-18.63 205.61-18.48L205.61-18.48L204.88-16.33Q204.65-16.41 204.41-16.47Q204.18-16.54 203.92-16.60Q203.65-16.66 203.34-16.69Q203.03-16.72 202.60-16.72L202.60-16.72Q202.03-16.72 201.46-16.67Q200.90-16.62 200.23-16.43Q199.57-16.23 198.74-15.85Q197.91-15.47 196.84-14.80L196.84-14.80L192.21-11.99L202.73-2.21L207.77-2.21L207.77 0L196.52 0L196.52-2.21L199.53-2.21L190.33-10.84L186.72-8.63L186.72-2.21L191.13-2.21L191.13 0L179.88 0L179.88-2.21L184.28-2.21L184.28-24.65L179.88-24.65Z M209.61-24.65L209.61-26.84L229.69-26.84Q232.81-26.84 235.03-26.30Q237.25-25.76 238.65-24.73Q240.06-23.69 240.71-22.15Q241.37-20.61 241.37-18.59L241.37-18.59Q241.37-16.58 240.71-15.04Q240.06-13.50 238.65-12.44Q237.25-11.39 235.03-10.85Q232.81-10.31 229.69-10.31L229.69-10.31L217.66-10.31L217.66-2.21L223.24-2.21L223.24 0L209.61 0L209.61-2.21L215.21-2.21L215.21-24.65L209.61-24.65ZM238.69-18.59L238.69-18.59Q238.69-20.51 238.09-21.68Q237.48-22.85 236.19-23.49Q234.90-24.12 232.90-24.34Q230.90-24.55 228.13-24.55L228.13-24.55L217.66-24.55L217.66-12.60L228.13-12.60Q229.20-12.60 230.40-12.59Q231.60-12.58 232.78-12.71Q233.96-12.83 235.03-13.15Q236.09-13.48 236.91-14.14Q237.73-14.80 238.21-15.88Q238.69-16.95 238.69-18.59Z M244.38-16.41L244.38-18.59L251.21-18.59L251.21-14.69Q252.01-15.63 252.93-16.44Q253.85-17.25 254.91-17.84Q255.98-18.44 257.20-18.78Q258.42-19.12 259.82-19.12L259.82-19.12Q260.53-19.12 261.13-19.01Q261.74-18.91 262.21-18.77Q262.68-18.63 262.99-18.50Q263.30-18.36 263.42-18.32L263.42-18.32L262.54-16.07Q262.05-16.33 261.28-16.60Q260.51-16.88 259.34-16.88L259.34-16.88Q257.85-16.88 256.61-16.42Q255.37-15.96 254.37-15.27Q253.36-14.59 252.58-13.76Q251.80-12.93 251.21-12.21L251.21-12.21L251.21-2.21L256.02-2.21L256.02 0L244.38 0L244.38-2.21L248.77-2.21L248.77-16.41L244.38-16.41Z M288.91-9.28L288.91-9.28Q288.91-6.72 287.99-4.87Q287.07-3.03 285.47-1.83Q283.87-0.63 281.69-0.05Q279.51 0.53 276.99 0.53L276.99 0.53Q274.45 0.53 272.27-0.05Q270.08-0.63 268.47-1.83Q266.86-3.03 265.94-4.87Q265.02-6.72 265.02-9.28L265.02-9.28Q265.02-11.82 265.95-13.68Q266.88-15.55 268.50-16.75Q270.12-17.95 272.30-18.54Q274.49-19.12 276.99-19.12L276.99-19.12Q279.51-19.12 281.69-18.54Q283.87-17.97 285.47-16.77Q287.07-15.57 287.99-13.70Q288.91-11.84 288.91-9.28ZM286.50-9.28L286.50-9.28Q286.50-13.05 284.11-15.04Q281.72-17.03 276.99-17.03L276.99-17.03Q272.25-17.03 269.83-15.04Q267.42-13.05 267.42-9.28L267.42-9.28Q267.42-5.51 269.83-3.54Q272.25-1.56 276.99-1.56L276.99-1.56Q281.72-1.56 284.11-3.54Q286.50-5.53 286.50-9.28Z"/></g>
</svg>
</g></svg></svg>