<svg version="1.1" preserveAspectRatio="none" xmlns="http://www.w3.org/2000/svg" width="500" height="500" viewBox="0 0 500 500"><rect width="100%" height="100%" fill="#1A1A1A" fill-opacity="1"/><svg viewBox="63.9903 126.5245 388.8703 226.634" width="333" height="194.07273324807784" x="83.5px" y="152.9636px" xmlns="http://www.w3.org/2000/svg" xmlns:xlink="http://www.w3.org/1999/xlink" preserveAspectRatio="none"><defs></defs><style>.companyName {fill:#EBE7D9;fill-opacity:1;}.icon2 {fill:#BA3521;fill-opacity:1;}.icon3 {fill:#F55139;fill-opacity:1;}.icon3-str {stroke:#F55139;stroke-opacity:1;}.shape {fill:#35247B;fill-opacity:1;}</style><g opacity="1" transform="rotate(0 141.7644 126.5245)">
<svg width="233.3221" height="226.634" x="141.7644" y="126.5245" version="1.1" preserveAspectRatio="none" viewBox="7.699998378753662 9.399999618530272 84.60001373291016 82.17499542236328">
  <g transform="matrix(1 0 0 1 0 0)" class="shape"><path d="M7.8,54.6c0.7,0,1.5,0,2.2,0c1.3,0,2.6,0,4,0c1.9,0,3.9-0.1,5.8-0.1c1.6,0,3.2-0.1,4.8-0.1c1.7,0,3.5-0.1,5.2-0.1  c1.7,0,3.4-0.1,5.1-0.1c1.9,0,3.9-0.1,5.8-0.1c2,0,4.1-0.1,6.1-0.1c0.5,0,0.9,0,1.4,0c-0.9,0-1.9,0-2.8,0c-2.6,0-5.2-0.1-7.7-0.1  c-1.8,0-3.6-0.1-5.3-0.1c-1.8,0-3.5-0.1-5.3-0.1c-1.5,0-2.9-0.1-4.4-0.1c-1.7,0-3.3-0.1-5-0.1c-2.1,0-4.3-0.1-6.4-0.1  c-1.2,0-2.4-0.1-3.6-0.1c1.3,0,2.7,0,4,0c1.8,0,3.6-0.1,5.4-0.1c0.7,0,1.5,0,2.2,0c2,0,3.9-0.1,5.9-0.1c0.7,0,1.5,0,2.2,0  c1.6,0,3.2-0.1,4.8-0.1c2.1,0,4.3-0.1,6.4-0.1c1.9,0,3.7-0.1,5.6-0.1c0.8,0,1.5,0,2.3-0.1c-0.1,0-0.3,0-0.4,0c-0.9,0-1.7,0-2.6,0  c-1.8,0-3.7-0.1-5.5-0.1c-1.6,0-3.3,0-4.9-0.1c-1.9,0-3.8-0.1-5.7-0.1c-1.7,0-3.4-0.1-5.1-0.1c-1.6,0-3.2-0.1-4.7-0.1  c-1.6,0-3.2,0-4.8-0.1c-1.7,0-3.4-0.1-5.1-0.1c0.7,0,1.4,0,2.1,0c1.4,0,2.7,0,4.1,0c1.9,0,3.8-0.1,5.7-0.1c1.6,0,3.2-0.1,4.8-0.1  c1.7,0,3.4-0.1,5.1-0.1c1.7,0,3.3-0.1,5-0.1c2,0,4.1-0.1,6.1-0.1c1.6,0,3.3,0,4.9-0.1c0.3,0,0.6,0,1,0c-0.7,0-1.3,0-2-0.1  c-1.8,0-3.7-0.1-5.5-0.1c-1.2,0-2.4,0-3.6-0.1c-1.1,0-2.2,0-3.4,0c-1.5,0-3-0.1-4.5-0.1c-1.5,0-3,0-4.5-0.1c-2.1,0-4.1-0.1-6.2-0.1  c-2,0-4-0.1-6-0.1c-1,0-2-0.1-3-0.1c0.6,0,1.1,0,1.7,0c1.5,0,3,0,4.6,0c1.7,0,3.3-0.1,5-0.1c1.6,0,3.2-0.1,4.8-0.1  c1.8,0,3.6-0.1,5.5-0.1c1.5,0,2.9-0.1,4.4-0.1c1.6,0,3.3-0.1,4.9-0.1c2.5,0,5.1-0.1,7.6-0.1c0.1,0,0.1,0,0.2,0c-0.6,0-1.2,0-1.8,0  c-1.9,0-3.7-0.1-5.6-0.1c-1.1,0-2.2,0-3.4-0.1c-1.1,0-2.3,0-3.4,0c-1.8,0-3.7-0.1-5.5-0.1c-1.4,0-2.8,0-4.1-0.1  c-1.6,0-3.3-0.1-4.9-0.1c-1.5,0-2.9-0.1-4.4-0.1c-1.8,0-3.6-0.1-5.4-0.1c0.6,0,1.2,0,1.8,0c1.4,0,2.8,0,4.2,0c1.6,0,3.2-0.1,4.8-0.1  c1.5,0,3.1,0,4.6-0.1c1.4,0,2.7-0.1,4.1-0.1c2.5,0,4.9-0.1,7.4-0.1c1.8,0,3.6-0.1,5.5-0.1c2.2,0,4.5-0.1,6.7-0.1c0.1,0,0.2,0,0.3,0  c-1,0-1.9,0-2.9-0.1c-1.5,0-2.9,0-4.4-0.1c-2.2,0-4.4-0.1-6.6-0.1c-2,0-4-0.1-6-0.1c-1.1,0-2.2,0-3.4-0.1c-1.6,0-3.1-0.1-4.7-0.1  c-0.7,0-1.5,0-2.2,0c-1.7,0-3.5,0-5.2-0.1c-1.4,0-2.7-0.1-4.1-0.1c0.6,0,1.2,0,1.8,0c1.5,0,3,0,4.5,0c1.6,0,3.2-0.1,4.7-0.1  c1.9,0,3.9-0.1,5.8-0.1c1.7,0,3.5-0.1,5.2-0.1c1.7,0,3.3-0.1,5-0.1c2,0,4-0.1,6-0.1c2.2,0,4.4-0.1,6.6-0.1c2.4,0,4.9,0,7.3,0  c2.8,0,5.6,0.1,8.3,0.1c2.1,0,4.2,0.1,6.3,0.1c1.7,0,3.4,0.1,5.1,0.1c1.7,0,3.4,0.1,5.1,0.1c1.9,0,3.7,0.1,5.6,0.1  c2.3,0,4.5,0.1,6.8,0.1c0,0,0.1,0,0.2,0c-1.1,0-2,0.1-3,0.1c-1.7,0-3.5,0-5.2,0.1c-1.8,0-3.7,0.1-5.5,0.1c-1.5,0-3,0.1-4.6,0.1  c-1.4,0-2.9,0.1-4.3,0.1c-1.4,0-2.9,0.1-4.3,0.1c-1.2,0-2.4,0-3.6,0.1c-0.7,0-1.4,0-2.1,0c-2.3,0-4.5,0.1-6.8,0.1c1.5,0,2.9,0,4.4,0  c1.7,0,3.5,0.1,5.2,0.1c2.1,0,4.2,0.1,6.3,0.1c1.8,0,3.6,0.1,5.3,0.1c1.9,0,3.7,0.1,5.6,0.1c1.5,0,3.1,0.1,4.6,0.1  c2.2,0,4.3,0.1,6.5,0.1c0.5,0,1,0,1.5,0c-1,0-2,0.1-3,0.1c-1.7,0-3.4,0-5.2,0.1c-1.7,0-3.5,0.1-5.2,0.1c-1.8,0-3.6,0.1-5.4,0.1  c-1.5,0-3.1,0.1-4.6,0.1c-1.7,0-3.4,0.1-5.1,0.1c-2,0-4,0.1-6,0.1c-1.4,0-2.8,0.1-4.2,0.1c1.2,0,2.5,0,3.7,0c1.3,0,2.6,0,3.8,0.1  c1.2,0,2.3,0,3.5,0.1c1.5,0,3,0.1,4.6,0.1c1.9,0,3.7,0.1,5.6,0.1c1.8,0,3.6,0.1,5.3,0.1c1.7,0,3.5,0.1,5.2,0.1  c2.4,0,4.7,0.1,7.1,0.1c-0.2,0-0.5,0-0.7,0c-2,0-4,0.1-6,0.1c-1.5,0-3,0.1-4.6,0.1c-2,0-4,0.1-6.1,0.1c-1.8,0-3.6,0.1-5.4,0.1  c-1.9,0-3.8,0.1-5.7,0.1c-1.7,0-3.3,0.1-5,0.1c-1.5,0-3,0.1-4.5,0.1c-0.2,0-0.3,0-0.5,0c1,0,2.1,0,3.1,0c1.9,0,3.8,0.1,5.7,0.1  c0.5,0,1,0,1.5,0c1.5,0,3.1,0,4.6,0.1c1.7,0,3.5,0.1,5.2,0.1c1.8,0,3.7,0.1,5.5,0.1c1.5,0,3,0.1,4.6,0.1c2.2,0,4.5,0.1,6.7,0.1  c0.5,0,1,0,1.5,0c-0.7,0-1.4,0-2,0.1c-1.3,0-2.7,0-4,0.1c-1.2,0-2.3,0-3.5,0.1c-1.2,0-2.3,0-3.5,0.1c-1.6,0-3.2,0.1-4.7,0.1  c-1.4,0-2.9,0.1-4.3,0.1c-1.9,0-3.8,0.1-5.7,0.1c-1.7,0-3.4,0-5.1,0.1c-1.6,0-3.3,0.1-4.9,0.1c-0.4,0-0.9,0-1.3,0c1.2,0,2.4,0,3.6,0  c1.3,0,2.7,0,4,0.1c1.3,0,2.5,0,3.8,0.1c1.5,0,3.1,0.1,4.6,0.1c1.5,0,2.9,0.1,4.4,0.1c2.1,0,4.3,0.1,6.4,0.1c1.9,0,3.8,0.1,5.7,0.1  c1.7,0,3.4,0,5.1,0.1c0.5,0,1,0,1.5,0.1c-0.6,0-1.3,0-1.9,0.1c-2,0-4.1,0.1-6.1,0.1c-1.9,0-3.7,0.1-5.6,0.1c-1.7,0-3.3,0.1-5,0.1  c-1.8,0-3.6,0.1-5.5,0.1c-1,0-2,0-3.1,0c-1.3,0-2.5,0.1-3.8,0.1c-1,0-2,0-3.1,0c-2.1,0-4.3,0.1-6.4,0.1c-0.1,0-0.2,0-0.3,0  c1.5,0,3.1,0,4.6,0c1.5,0,3.1,0,4.6,0.1c1,0,2.1,0,3.1,0c1.7,0,3.4,0.1,5.2,0.1c1.8,0,3.7,0.1,5.5,0.1c1.7,0,3.4,0.1,5.2,0.1  c1.8,0,3.6,0.1,5.4,0.1c2.4,0,4.7,0.1,7.1,0.1c-1.6,0-3.2,0.1-4.8,0.1c-1.7,0-3.5,0.1-5.2,0.1c-1.1,0-2.2,0-3.3,0  c-1.5,0-3,0.1-4.5,0.1c-1.9,0-3.9,0.1-5.8,0.1c-1.6,0-3.2,0.1-4.8,0.1c-1.9,0-3.7,0.1-5.6,0.1c-2.3,0-4.6,0.1-6.8,0.1  c-2.1,0-4.3,0-6.4,0c-2,0-4.1-0.1-6.1-0.1c-1.8,0-3.6-0.1-5.3-0.1c-1.7,0-3.3-0.1-5-0.1c-1.9,0-3.8-0.1-5.7-0.1  c-1.8,0-3.7-0.1-5.5-0.1c-1.5,0-3,0-4.5-0.1C11,54.7,9.4,54.7,7.8,54.6C7.8,54.6,7.8,54.6,7.8,54.6z M48.7,54  C48.7,54,48.7,54,48.7,54c0.1,0,0.1,0,0.2,0c0,0,0,0,0,0C48.9,54,48.8,54,48.7,54z M50.4,54L50.4,54L50.4,54L50.4,54z M47.7,48.5  L47.7,48.5L47.7,48.5L47.7,48.5z"></path><path d="M8.1,46.4c0.7,0,1.4,0,2.1,0c2,0,4-0.1,6.1-0.1c1,0,2.1,0,3.1,0c1.6,0,3.1-0.1,4.7-0.1c1.9,0,3.7-0.1,5.6-0.1  c1.5,0,3-0.1,4.5-0.1c1.6,0,3.2-0.1,4.8-0.1c1.5,0,2.9,0,4.4-0.1c2.1,0,4.3,0,6.4,0c2.6,0,5.2,0,7.8,0c2.1,0,4.2,0.1,6.2,0.1  c1.8,0,3.6,0.1,5.3,0.1c1.7,0,3.4,0.1,5.1,0.1c1.7,0,3.3,0.1,5,0.1c1.9,0,3.8,0.1,5.6,0.1c2.3,0,4.6,0.1,6.8,0.1c0,0,0.1,0,0.1,0  c-1.6,0-3.2,0.1-4.8,0.1c-1.8,0-3.6,0.1-5.4,0.1c-1,0-2.1,0-3.1,0c-1.5,0-2.9,0.1-4.4,0.1c-1.9,0-3.8,0.1-5.7,0.1  c-1.6,0-3.2,0.1-4.7,0.1c-1.7,0-3.4,0.1-5.1,0.1c-1.8,0-3.7,0.1-5.5,0.1c-2.3,0-4.7,0-7,0c-2.3,0-4.6-0.1-7-0.1  c-2.2,0-4.4-0.1-6.6-0.1c-3-0.1-5.9-0.1-8.9-0.2c-2.1,0-4.3-0.1-6.4-0.1c-2.1,0-4.3-0.1-6.4-0.1C9.9,46.5,9,46.4,8.1,46.4  C8.1,46.4,8.1,46.4,8.1,46.4z"></path><path d="M8.2,56c1.9,0,3.7,0,5.6-0.1c1.8,0,3.6-0.1,5.3-0.1c1.9,0,3.8-0.1,5.7-0.1c1.8,0,3.5-0.1,5.3-0.1c1.6,0,3.2-0.1,4.8-0.1  c1.8,0,3.6-0.1,5.4-0.1c1.7,0,3.5-0.1,5.2-0.1c2.5,0,5,0,7.6,0c1.6,0,3.1,0,4.7,0c2,0,4,0.1,6.1,0.1c1.8,0,3.6,0.1,5.3,0.1  c1.7,0,3.3,0.1,5,0.1c1.7,0,3.5,0.1,5.2,0.1c1.8,0,3.6,0.1,5.4,0.1c2.4,0,4.7,0.1,7.1,0.1c0,0,0.1,0,0.2,0c-0.7,0-1.4,0-2,0.1  c-1.6,0-3.3,0.1-4.9,0.1c-1.7,0-3.4,0.1-5.1,0.1c-0.6,0-1.3,0-1.9,0c-1.4,0-2.9,0.1-4.3,0.1c-1.4,0-2.8,0.1-4.2,0.1  c-1.1,0-2.2,0-3.3,0.1c-0.9,0-1.9,0-2.8,0c-2.9,0-5.9,0.1-8.8,0.1c-2.4,0-4.9,0-7.3,0c-2.6,0-5.2-0.1-7.8-0.1c-1.7,0-3.5,0-5.2-0.1  c-1.4,0-2.8-0.1-4.2-0.1c-2,0-4.1-0.1-6.1-0.1c-2.3,0-4.6-0.1-6.9-0.1c-1.5,0-2.9,0-4.4-0.1C11.2,56.1,9.7,56,8.2,56  C8.2,56,8.2,56,8.2,56z"></path><path d="M8.4,45c1.2,0,2.5,0,3.7,0c1.9,0,3.7-0.1,5.6-0.1c2.5,0,5-0.1,7.4-0.1c1.8,0,3.5-0.1,5.3-0.1c1.7,0,3.5-0.1,5.2-0.1  c2.2,0,4.5,0,6.7-0.1c4.1-0.1,8.2-0.1,12.3,0c2.5,0,5,0.1,7.4,0.1c2.3,0,4.6,0.1,6.9,0.1c1.7,0,3.4,0.1,5.1,0.1  c1.7,0,3.5,0.1,5.2,0.1c1.9,0,3.7,0.1,5.6,0.1c2.3,0,4.6,0.1,7,0.1c-0.3,0-0.6,0-0.9,0c-2,0.1-3.9,0.1-5.9,0.1c-1,0-2.1,0-3.1,0.1  c-1.1,0-2.2,0-3.2,0.1c-1.6,0-3.2,0.1-4.8,0.1c-1.9,0-3.9,0.1-5.8,0.1c-1.9,0-3.7,0.1-5.6,0.1c-2.5,0-5,0.1-7.5,0.1  c-3,0.1-6,0-8.9,0c-2.5,0-5-0.1-7.6-0.1c-1.8,0-3.7-0.1-5.5-0.1c-1.9,0-3.8-0.1-5.7-0.1c-0.8,0-1.6,0-2.5,0c-1.7,0-3.3-0.1-5-0.1  c-2.3,0-4.6-0.1-7-0.1C11.3,45.1,9.8,45.1,8.4,45C8.4,45,8.4,45,8.4,45z"></path><path d="M91.7,57.3c-0.6,0-1.3,0-1.9,0.1c-2.2,0-4.3,0.1-6.5,0.1c-1.9,0-3.7,0.1-5.6,0.1c-1.9,0-3.7,0.1-5.6,0.1  c-1.6,0-3.2,0.1-4.8,0.1c-2,0-4,0.1-6,0.1c-2.5,0-5.1,0.1-7.6,0.1c-2.5,0-5,0-7.6,0c-2.3,0-4.6,0-6.8-0.1c-1.9,0-3.9-0.1-5.8-0.1  c-1.7,0-3.4-0.1-5.1-0.1c-1.8,0-3.6-0.1-5.3-0.1c-1.9,0-3.7-0.1-5.6-0.1c-2.1,0-4.2-0.1-6.2-0.1c-1,0-2-0.1-3-0.1c0.8,0,1.6,0,2.4,0  c1.4,0,2.7,0,4.1-0.1c1.1,0,2.2,0,3.3-0.1c1.2,0,2.4,0,3.6-0.1c1.1,0,2.3,0,3.4-0.1c1.4,0,2.8-0.1,4.2-0.1c1.6,0,3.2-0.1,4.8-0.1  c1.7,0,3.4-0.1,5.1-0.1c1,0,1.9,0,2.9,0c2.1,0,4.2-0.1,6.2-0.1c2.4,0,4.8,0,7.2,0c2.6,0,5.1,0.1,7.7,0.1c1.9,0,3.7,0.1,5.6,0.1  c1.6,0,3.3,0.1,4.9,0.1c1.7,0,3.5,0.1,5.2,0.1c1.9,0,3.8,0.1,5.7,0.1C87.1,57.3,89.4,57.3,91.7,57.3C91.7,57.3,91.7,57.3,91.7,57.3z  "></path><path d="M8.4,43.6c1.6,0,3.3,0,4.9,0c2.3,0,4.6-0.1,6.9-0.1c1.8,0,3.6-0.1,5.5-0.1c1.7,0,3.4-0.1,5.1-0.1c1.9,0,3.8-0.1,5.7-0.1  c1.7,0,3.5-0.1,5.2-0.1c2.2,0,4.3-0.1,6.5-0.1c2.2,0,4.5,0,6.7,0c2.6,0,5.2,0.1,7.8,0.1c1.9,0,3.8,0.1,5.7,0.1  c1.9,0,3.7,0.1,5.6,0.1c1.5,0,3.1,0.1,4.6,0.1c1.7,0,3.3,0.1,5,0.1c1.9,0,3.7,0.1,5.6,0.1c0.9,0,1.8,0,2.7,0c-0.7,0-1.4,0-2.1,0.1  c-1.3,0-2.6,0.1-4,0.1c-2.2,0-4.4,0.1-6.7,0.1c-2.3,0-4.6,0.1-6.8,0.1c-1.5,0-3,0-4.5,0.1c-1.7,0-3.3,0.1-5,0.1  c-2,0-4.1,0.1-6.1,0.1c-2.6,0-5.3,0.1-7.9,0.1c-2.8,0-5.6,0-8.3-0.1c-1.9,0-3.9-0.1-5.8-0.1c-1.9,0-3.9-0.1-5.8-0.1  c-1.9,0-3.7-0.1-5.6-0.1c-1.8,0-3.6-0.1-5.4-0.1c-2.1,0-4.1-0.1-6.2-0.1C10.4,43.7,9.4,43.7,8.4,43.6C8.4,43.7,8.4,43.7,8.4,43.6z"></path><path d="M8.5,58.7c1.4,0,2.7,0,4.1,0c1.3,0,2.6,0,4-0.1c1.1,0,2.2,0,3.3-0.1c1.7,0,3.4-0.1,5.1-0.1c1.9,0,3.8-0.1,5.7-0.1  c1.9,0,3.8-0.1,5.7-0.1c1.7,0,3.5-0.1,5.2-0.1c3.2,0,6.3-0.1,9.5-0.1c1.3,0,2.6,0,4,0c2.6,0,5.2,0.1,7.8,0.1c1.7,0,3.5,0.1,5.2,0.1  c2,0,4.1,0.1,6.1,0.1c1.4,0,2.7,0,4.1,0.1c1.7,0,3.5,0.1,5.2,0.1c1.8,0,3.5,0.1,5.3,0.1c0.8,0,1.7,0,2.5,0.1c-0.2,0-0.4,0-0.5,0  c-1.7,0.1-3.5,0.1-5.2,0.1c-2.3,0-4.6,0.1-6.9,0.1c-2.3,0-4.5,0.1-6.8,0.1c-1.8,0-3.7,0.1-5.5,0.1c-1.1,0-2.2,0-3.3,0.1  c-1.8,0-3.6,0.1-5.4,0.1c-2.6,0-5.2,0-7.8,0c-2.4,0-4.7,0-7.1,0c-1.5,0-3.1,0-4.6-0.1c-1.2,0-2.4,0-3.6,0c-1.9,0-3.8-0.1-5.7-0.1  c-1.7,0-3.3-0.1-5-0.1c-1.6,0-3.3-0.1-4.9-0.1c-1.7,0-3.3-0.1-5-0.1c-0.9,0-1.8,0-2.6,0C10.3,58.8,9.4,58.7,8.5,58.7  C8.5,58.7,8.5,58.7,8.5,58.7z"></path><path d="M91.3,42.3c-1.7,0-3.3,0.1-5,0.1c-1.8,0-3.6,0.1-5.4,0.1c-1.1,0-2.1,0-3.2,0c-1.6,0-3.2,0.1-4.8,0.1c-2,0-3.9,0.1-5.9,0.1  c-1.7,0-3.4,0.1-5.2,0.1c-2.1,0-4.1,0.1-6.2,0.1c-2.5,0-5,0-7.6,0c-2.7,0-5.4,0-8.1-0.1c-2,0-4.1-0.1-6.1-0.1  c-1.8,0-3.6-0.1-5.5-0.1c-1.6,0-3.3-0.1-4.9-0.1c-2,0-3.9-0.1-5.9-0.1c-1.8,0-3.5,0-5.3-0.1c-1.3,0-2.5-0.1-3.8-0.1  c0.6,0,1.2,0,1.8,0c1.5,0,3,0,4.5,0c1.7,0,3.4-0.1,5.1-0.1c2,0,4-0.1,6-0.1c1.9,0,3.7-0.1,5.6-0.1c1.9,0,3.9-0.1,5.8-0.1  c3.1,0,6.1-0.1,9.2-0.1c2,0,4,0,6,0c2.6,0,5.1,0,7.7,0.1c2.3,0,4.6,0.1,6.8,0.1c2,0,4,0.1,6.1,0.1c2,0,4.1,0.1,6.1,0.1  c0.9,0,1.8,0,2.7,0c1.5,0,2.9,0,4.4,0.1c1.6,0,3.2,0,4.8,0.1C91.1,42.3,91.2,42.3,91.3,42.3C91.3,42.3,91.3,42.3,91.3,42.3z"></path><path d="M91.1,60.1c-2.2,0-4.3,0.1-6.5,0.1c-1.4,0-2.8,0-4.1,0.1c-1,0-2.1,0-3.1,0c-1.5,0-3.1,0.1-4.6,0.1c-2.2,0-4.5,0.1-6.7,0.1  c-1.9,0-3.9,0.1-5.8,0.1c-2.2,0-4.3,0-6.5,0.1c-3.1,0-6.1,0-9.2,0c-2.3,0-4.5-0.1-6.8-0.1c-0.8,0-1.6,0-2.4,0  c-1.9,0-3.8-0.1-5.7-0.1c-1.2,0-2.4,0-3.6-0.1c-1.7,0-3.4-0.1-5.1-0.1c-0.8,0-1.6,0-2.4,0c-1.7,0-3.4,0-5.1-0.1  c-1.5,0-3.1-0.1-4.6-0.1c1.7,0,3.5,0,5.2-0.1c2.4,0,4.7-0.1,7.1-0.1c1.8,0,3.5-0.1,5.3-0.1c1.8,0,3.5-0.1,5.3-0.1  c1.9,0,3.8-0.1,5.7-0.1c2.9,0,5.9-0.1,8.8-0.1c2,0,4,0,6,0c2.7,0,5.5,0,8.2,0.1c2.4,0,4.8,0.1,7.2,0.1c1.8,0,3.6,0.1,5.4,0.1  c1.8,0,3.5,0.1,5.3,0.1c1.9,0,3.8,0.1,5.7,0.1C86.3,60,88.7,60,91.1,60.1C91.1,60.1,91.1,60.1,91.1,60.1z"></path><path d="M91,40.9c-0.4,0-0.8,0-1.2,0c-1.9,0-3.9,0.1-5.8,0.1c-1.5,0-3.1,0.1-4.6,0.1c-2.6,0-5.1,0.1-7.7,0.1c-1.6,0-3.2,0.1-4.7,0.1  c-1.9,0-3.9,0-5.8,0.1c-5,0.1-10.1,0.1-15.1,0.1c-1.6,0-3.2,0-4.8,0c-2.2,0-4.4-0.1-6.6-0.1c-1.5,0-2.9,0-4.4-0.1  c-2.2,0-4.3-0.1-6.5-0.1c-1.8,0-3.6-0.1-5.5-0.1c-2.1,0-4.3-0.1-6.4-0.1c-1,0-1.9-0.1-2.9-0.1c0.6,0,1.3,0,1.9,0c1.4,0,2.9,0,4.3,0  c1.7,0,3.4-0.1,5.1-0.1c2.1,0,4.1-0.1,6.2-0.1c0.6,0,1.2,0,1.9,0c1.2,0,2.4,0,3.6,0c1.2,0,2.4,0,3.6-0.1c2.8,0,5.7-0.1,8.5-0.1  c2.9,0,5.8,0,8.7,0c2.6,0,5.2,0,7.8,0c2.1,0,4.2,0.1,6.3,0.1c1.9,0,3.8,0.1,5.7,0.1c1.7,0,3.5,0.1,5.2,0.1c2.1,0,4.1,0.1,6.2,0.1  c1.4,0,2.9,0,4.3,0.1C89.2,40.9,90.1,40.9,91,40.9C91,40.9,91,40.9,91,40.9z"></path><path d="M90.6,61.5c-1.7,0-3.3,0.1-5,0.1c-1.8,0-3.6,0.1-5.3,0.1c-1.2,0-2.4,0-3.6,0.1c-1.7,0-3.4,0.1-5.1,0.1c-1.7,0-3.3,0.1-5,0.1  c-1.3,0-2.5,0-3.8,0.1c-1.9,0-3.8,0-5.7,0.1c-3.4,0-6.9,0-10.3,0c-3.1,0-6.2,0-9.3-0.1c-2.4,0-4.9-0.1-7.3-0.1c-1.8,0-3.7,0-5.5-0.1  c-2.1,0-4.1-0.1-6.2-0.1c-1.4,0-2.8,0-4.2-0.1c-1.6,0-3.3-0.1-4.9-0.1c0.6,0,1.1,0,1.7,0c1.5,0,2.9,0,4.4,0c1.7,0,3.4-0.1,5.1-0.1  c2,0,4-0.1,6.1-0.1c1.4,0,2.9,0,4.3-0.1c2.1,0,4.1-0.1,6.2-0.1c2.9,0,5.7-0.1,8.6-0.1c1.6,0,3.2,0,4.8,0c2.8,0,5.7,0,8.5,0  c2.4,0,4.8,0.1,7.2,0.1c2.1,0,4.1,0.1,6.2,0.1c1.9,0,3.7,0.1,5.6,0.1c1.8,0,3.6,0.1,5.5,0.1C85.8,61.4,88.2,61.4,90.6,61.5  C90.6,61.4,90.6,61.5,90.6,61.5z"></path><path d="M9.2,39.5c1.7,0,3.4,0,5.1-0.1c2.4,0,4.8-0.1,7.2-0.1c1.9,0,3.8-0.1,5.7-0.1c1.9,0,3.9-0.1,5.8-0.1c2.2,0,4.4-0.1,6.7-0.1  C44.3,39,49,39,53.6,39c1.8,0,3.6,0,5.4,0c2.4,0,4.8,0.1,7.2,0.1c1.9,0,3.7,0.1,5.6,0.1c2,0,4,0.1,6,0.1c1.9,0,3.7,0.1,5.6,0.1  c2.4,0,4.8,0.1,7.2,0.1c-1.6,0-3.2,0.1-4.8,0.1c-1.3,0-2.6,0-3.9,0c-1.9,0-3.7,0.1-5.6,0.1c-1.9,0-3.9,0.1-5.8,0.1  c-1.9,0-3.7,0.1-5.6,0.1c-1.7,0-3.4,0.1-5.1,0.1c-3.2,0-6.4,0.1-9.7,0.1c-2.5,0-5,0-7.6,0c-1.6,0-3.3,0-4.9-0.1c-1.3,0-2.7,0-4-0.1  c-1.3,0-2.5,0-3.8-0.1c-1.9,0-3.8-0.1-5.7-0.1c-1.7,0-3.5-0.1-5.2-0.1c-2.3,0-4.6-0.1-6.9-0.1C11.2,39.6,10.2,39.6,9.2,39.5  C9.2,39.6,9.2,39.5,9.2,39.5z"></path><path d="M90.4,62.8c-2.5,0-5,0.1-7.4,0.1c-2.4,0-4.7,0.1-7.1,0.1c-1.9,0-3.9,0.1-5.8,0.1c-2.1,0-4.1,0.1-6.2,0.1  c-3.2,0-6.3,0.1-9.5,0.1c-2.4,0-4.7,0-7.1,0c-2.9,0-5.7,0-8.6-0.1c-2.5,0-4.9-0.1-7.4-0.1c-2.1,0-4.1-0.1-6.2-0.1  c-2,0-3.9-0.1-5.9-0.1c-2.2,0-4.4-0.1-6.6-0.1c-1,0-1.9-0.1-2.9-0.1c0.7,0,1.3,0,2,0c1.5,0,3,0,4.5,0c1.9,0,3.8-0.1,5.7-0.1  c1.9,0,3.8-0.1,5.7-0.1c1.8,0,3.6-0.1,5.4-0.1c2.2,0,4.4,0,6.6-0.1c4.5-0.1,9.1-0.1,13.6-0.1c2,0,4,0,6.1,0c2.3,0,4.6,0.1,6.9,0.1  c1.8,0,3.6,0.1,5.4,0.1c1.9,0,3.8,0.1,5.7,0.1c1.9,0,3.7,0.1,5.6,0.1C85.3,62.7,87.9,62.8,90.4,62.8C90.4,62.8,90.4,62.8,90.4,62.8z  "></path><path d="M9.7,38.2c0.8,0,1.5,0,2.3,0c1.4,0,2.7,0,4.1,0c2.1,0,4.1-0.1,6.2-0.1c1.9,0,3.8-0.1,5.7-0.1c2,0,4-0.1,6.1-0.1  c2.6,0,5.2,0,7.7-0.1c4.1-0.1,8.1-0.1,12.2,0c3.1,0,6.3,0.1,9.4,0.1c2.5,0,5.1,0.1,7.6,0.1c1.9,0,3.8,0.1,5.7,0.1  c1.9,0,3.8,0.1,5.7,0.1c2.6,0,5.1,0.1,7.7,0.1c0.1,0,0.1,0,0.2,0c-0.6,0-1.2,0-1.9,0c-2.3,0-4.6,0.1-7,0.1c-1.9,0-3.8,0.1-5.7,0.1  c-2.1,0-4.3,0.1-6.4,0.1c-1.7,0-3.4,0-5.1,0.1c-2.1,0-4.1,0.1-6.2,0.1c-1,0-2,0-3,0c-3,0-6,0-8.9,0c-2.4,0-4.7,0-7.1-0.1  c-2.6,0-5.2-0.1-7.8-0.1c-1.6,0-3.2,0-4.8-0.1c-1.6,0-3.1-0.1-4.7-0.1c-2.5,0-5.1-0.1-7.6-0.1C12.7,38.3,11.2,38.2,9.7,38.2  C9.7,38.2,9.7,38.2,9.7,38.2z"></path><path d="M9.7,64.2c1.5,0,2.9,0,4.4,0c1.5,0,3,0,4.5-0.1c1.2,0,2.4,0,3.6,0c1.7,0,3.3-0.1,5-0.1c1.7,0,3.4-0.1,5.1-0.1  c1.1,0,2.2,0,3.2-0.1c2,0,4,0,6.1-0.1c4,0,8.1-0.1,12.1,0c3.2,0,6.4,0.1,9.6,0.1c2.5,0,5,0.1,7.4,0.1c1.9,0,3.8,0.1,5.7,0.1  c2,0,4.1,0.1,6.1,0.1c2.4,0,4.7,0.1,7.1,0.1c0,0,0.1,0,0.1,0c-0.3,0-0.5,0-0.8,0c-2.1,0.1-4.3,0.1-6.4,0.1c-1.2,0-2.3,0-3.5,0.1  c-1.3,0-2.5,0-3.8,0.1c-1.8,0-3.6,0.1-5.4,0.1c-1.9,0-3.8,0.1-5.7,0.1c-1.6,0-3.3,0.1-4.9,0.1c-0.9,0-1.8,0-2.7,0  c-3.2,0-6.4,0-9.6,0c-2.9,0-5.7,0-8.6-0.1c-2.5,0-4.9-0.1-7.4-0.1c-1.8,0-3.6,0-5.4-0.1c-2,0-4-0.1-6.1-0.1c-2.2,0-4.4-0.1-6.6-0.1  C12.1,64.3,10.9,64.2,9.7,64.2C9.7,64.2,9.7,64.2,9.7,64.2z"></path><path d="M89.7,36.9c-2.2,0-4.4,0.1-6.6,0.1c-1.3,0-2.5,0-3.8,0.1c-1.2,0-2.4,0-3.6,0.1c-1.7,0-3.4,0-5.1,0.1c-2.1,0-4.1,0.1-6.2,0.1  c-4.4,0.1-8.8,0.1-13.1,0.1c-3.2,0-6.5,0-9.7,0c-1,0-2.1,0-3.1,0c-2.3,0-4.6-0.1-6.9-0.1c-1.2,0-2.5,0-3.7-0.1c-1.2,0-2.5,0-3.7-0.1  c-1.2,0-2.5,0-3.7-0.1c-1.9,0-3.9-0.1-5.8-0.1c-1.5,0-3-0.1-4.6-0.1c0.8,0,1.7,0,2.5,0c1.5,0,2.9,0,4.4,0c2,0,4-0.1,6-0.1  c2.1,0,4.1-0.1,6.2-0.1c2.1,0,4.1-0.1,6.2-0.1c3.1,0,6.2-0.1,9.3-0.1c3.1,0,6.2,0,9.3,0c2.8,0,5.6,0,8.3,0.1c2.7,0,5.4,0.1,8.1,0.1  c2,0,4.1,0.1,6.1,0.1c1.9,0,3.9,0.1,5.8,0.1C84.7,36.7,87.2,36.8,89.7,36.9C89.7,36.8,89.7,36.8,89.7,36.9z"></path><path d="M10.5,65.5c0.9,0,1.7,0,2.6,0c1.4,0,2.8,0,4.2,0c1.2,0,2.3,0,3.5-0.1c2.1,0,4.1-0.1,6.2-0.1c1.3,0,2.6,0,3.9-0.1  c1.4,0,2.7,0,4.1,0c2.6,0,5.1-0.1,7.7-0.1c3.9,0,7.9,0,11.8,0c2.6,0,5.2,0,7.7,0.1c2.6,0,5.2,0.1,7.8,0.1c2,0,4,0.1,6,0.1  c2,0,4,0.1,6.1,0.1c2.3,0,4.6,0.1,6.9,0.1c0.1,0,0.2,0,0.2,0c-0.3,0-0.7,0-1,0c-2,0-4,0.1-6,0.1c-1.2,0-2.5,0-3.7,0.1  c-1.5,0-3,0-4.5,0.1c-2.1,0-4.1,0.1-6.2,0.1c-2.5,0-5,0.1-7.5,0.1c-4.9,0.1-9.8,0.1-14.8,0c-1.8,0-3.6,0-5.4,0c-1.9,0-3.9,0-5.8-0.1  c-2.3,0-4.6-0.1-7-0.1c-2.3,0-4.6-0.1-6.9-0.1c-2.4,0-4.9-0.1-7.3-0.1C12.2,65.6,11.3,65.6,10.5,65.5C10.5,65.5,10.5,65.5,10.5,65.5  z"></path><path d="M89.3,35.5c-0.4,0-0.7,0-1.1,0c-2,0-4.1,0.1-6.1,0.1c-1.7,0-3.4,0.1-5.1,0.1c-2.4,0-4.8,0.1-7.2,0.1c-2.5,0-4.9,0.1-7.4,0.1  c-4.5,0-9.1,0.1-13.6,0.1c-2.9,0-5.9,0-8.8,0c-2.3,0-4.7-0.1-7-0.1c-2,0-4-0.1-6-0.1c-1.8,0-3.6-0.1-5.5-0.1c-1.9,0-3.7,0-5.6-0.1  c-1.8,0-3.6-0.1-5.4-0.1c0.8,0,1.6,0,2.4,0c1.5,0,3.1,0,4.6,0c2.1,0,4.2-0.1,6.2-0.1c2,0,4.1-0.1,6.1-0.1c2.3,0,4.6-0.1,6.9-0.1  c3,0,6-0.1,8.9-0.1c2.9,0,5.9,0,8.8,0c1.7,0,3.5,0,5.2,0c2.9,0,5.7,0.1,8.6,0.1c2,0,3.9,0.1,5.9,0.1c2.4,0,4.8,0.1,7.2,0.1  c2.6,0,5.1,0.1,7.7,0.1C89.1,35.4,89.2,35.4,89.3,35.5z"></path><path d="M89,66.9c-0.5,0-1.1,0-1.6,0.1c-1.9,0-3.8,0.1-5.7,0.1c-1.4,0-2.8,0-4.2,0.1c-1.2,0-2.4,0-3.6,0c-2,0-4,0.1-6,0.1  c-1.9,0-3.8,0.1-5.7,0.1c-2.3,0-4.6,0-7,0.1c-2.8,0-5.6,0-8.3,0c-3.2,0-6.4,0-9.6-0.1c-2.7,0-5.4-0.1-8.2-0.1  c-2.3,0-4.6-0.1-6.9-0.1c-2.6,0-5.2-0.1-7.8-0.1c-1.1,0-2.1-0.1-3.2-0.1c0.6,0,1.2,0,1.8,0c1.5,0,3.1,0,4.6,0c1.8,0,3.6-0.1,5.5-0.1  c1.8,0,3.7-0.1,5.5-0.1c1.5,0,2.9-0.1,4.4-0.1c1,0,2.1,0,3.1,0c2.8,0,5.5-0.1,8.3-0.1c3.4,0,6.9,0,10.3,0c2.4,0,4.9,0,7.3,0  c2,0,4,0.1,6.1,0.1c1.8,0,3.6,0,5.4,0.1c1.8,0,3.6,0.1,5.4,0.1c2.8,0,5.7,0.1,8.5,0.1C87.9,66.9,88.4,66.9,89,66.9  C89,66.9,89,66.9,89,66.9z"></path><path d="M11.3,34.1c1.1,0,2.3,0,3.4,0c1.2,0,2.3,0,3.5,0c2.1,0,4.3-0.1,6.4-0.1c2.1,0,4.2-0.1,6.3-0.1c2.5,0,5.1-0.1,7.6-0.1  c5-0.1,9.9-0.1,14.9-0.1c2.4,0,4.7,0,7.1,0c1.8,0,3.6,0,5.4,0.1c1.5,0,3,0.1,4.6,0.1c1.3,0,2.6,0,3.9,0c2.3,0,4.6,0.1,6.9,0.1  c1.6,0,3.2,0,4.7,0.1c0.8,0,1.7,0,2.5,0.1c-0.4,0-0.7,0-1.1,0c-2.6,0-5.3,0.1-7.9,0.1c-2.1,0-4.2,0.1-6.2,0.1c-2.3,0-4.6,0.1-7,0.1  c-2.4,0-4.8,0-7.2,0.1c-4.6,0.1-9.2,0.1-13.8,0c-2.9,0-5.9-0.1-8.8-0.1c-2.2,0-4.4-0.1-6.6-0.1c-0.7,0-1.5,0-2.2,0  c-2.2,0-4.3-0.1-6.5-0.1c-2.2,0-4.3-0.1-6.5-0.1C13.5,34.2,12.4,34.1,11.3,34.1C11.3,34.1,11.3,34.1,11.3,34.1z"></path><path d="M88.3,68.3c-2.5,0-4.9,0.1-7.4,0.1c-1.4,0-2.8,0-4.2,0.1c-0.6,0-1.2,0-1.9,0c-2.8,0-5.7,0.1-8.5,0.1c-2.8,0-5.6,0.1-8.4,0.1  c-3.3,0-6.5,0.1-9.8,0c-3.1,0-6.1,0-9.2-0.1c-1.2,0-2.3,0-3.5,0c-2.3,0-4.6,0-6.8-0.1c-2.3,0-4.6-0.1-7-0.1c-1.5,0-2.9,0-4.4-0.1  c-2,0-4-0.1-6-0.1c0.8,0,1.6,0,2.4,0c1.5,0,2.9,0,4.4,0c1.9,0,3.8-0.1,5.7-0.1c2.4,0,4.9-0.1,7.3-0.1c0.9,0,1.9,0,2.8-0.1  c1.3,0,2.7,0,4,0c5-0.1,10.1-0.1,15.1-0.1c2.4,0,4.7,0,7.1,0c2.5,0,5.1,0.1,7.6,0.1c2.2,0,4.3,0.1,6.5,0.1c2.1,0,4.2,0.1,6.3,0.1  C83.1,68.2,85.7,68.2,88.3,68.3C88.3,68.3,88.3,68.3,88.3,68.3z"></path><path d="M11.8,32.7c0.9,0,1.7,0,2.6,0c1.5,0,3,0,4.5,0c2.1,0,4.3-0.1,6.4-0.1c2.4,0,4.8-0.1,7.2-0.1c1.6,0,3.2,0,4.8-0.1  c2.7,0,5.5-0.1,8.2-0.1c2.9,0,5.7,0,8.6,0c1.2,0,2.5,0,3.7,0c2.9,0,5.7,0.1,8.6,0.1c2.3,0,4.6,0.1,6.9,0.1c2.2,0,4.3,0.1,6.5,0.1  c2.6,0,5.2,0.1,7.7,0.1c0,0,0.1,0,0.1,0c-0.4,0-0.8,0-1.2,0c-1.9,0-3.7,0.1-5.6,0.1c-1.4,0-2.7,0-4.1,0.1c-0.8,0-1.6,0-2.4,0  c-2.1,0-4.1,0.1-6.2,0.1c-1,0-2.1,0-3.1,0c-2.3,0-4.6,0.1-7,0.1c-2.3,0-4.6,0-7,0c-2,0-4,0-6.1,0c-2.7,0-5.4,0-8.1-0.1  c-2.9,0-5.8-0.1-8.7-0.1c-2.1,0-4.2-0.1-6.3-0.1c-2.3,0-4.6-0.1-6.9-0.1C14.1,32.8,12.9,32.8,11.8,32.7  C11.8,32.7,11.8,32.7,11.8,32.7z"></path><path d="M87.7,69.7c-0.5,0-1.1,0-1.6,0c-1.9,0-3.7,0.1-5.6,0.1c-1.6,0-3.3,0-4.9,0.1c-1.2,0-2.5,0-3.7,0c-2.4,0-4.9,0.1-7.3,0.1  c-4,0-7.9,0.1-11.9,0.1c-3.6,0-7.2,0-10.8,0c-1.3,0-2.6,0-3.9,0c-2.2,0-4.5,0-6.7-0.1c-2.7,0-5.5-0.1-8.2-0.1  c-2.6,0-5.2-0.1-7.8-0.1c-1,0-2-0.1-3-0.1c0.7,0,1.3,0,2,0c1.6,0,3.2,0,4.8,0c2,0,4-0.1,6.1-0.1c2.4,0,4.9-0.1,7.3-0.1  c2.4,0,4.8-0.1,7.2-0.1c3.7,0,7.3,0,11-0.1c2.4,0,4.7,0,7.1,0c2.2,0,4.3,0,6.5,0.1c2.7,0,5.4,0.1,8.1,0.1c2.4,0,4.8,0.1,7.2,0.1  C82.2,69.6,84.9,69.6,87.7,69.7C87.6,69.6,87.6,69.6,87.7,69.7z"></path><path d="M87.6,31.4c-2.8,0-5.6,0.1-8.3,0.1c-2.4,0-4.9,0.1-7.3,0.1c-2,0-4,0.1-6,0.1c-3.7,0-7.4,0.1-11.1,0.1c-2.9,0-5.7,0-8.6,0  c-1.9,0-3.8,0-5.7,0c-2,0-4,0-6-0.1c-1.6,0-3.2,0-4.8,0c-1.9,0-3.9-0.1-5.8-0.1c-2.7,0-5.3-0.1-8-0.1c-1.2,0-2.3-0.1-3.5-0.1  c1.2,0,2.3,0,3.5,0c2,0,4-0.1,6-0.1c1.4,0,2.7,0,4.1,0c2.2,0,4.3-0.1,6.5-0.1c2.3,0,4.5-0.1,6.8-0.1c2,0,3.9,0,5.9,0  c2.9,0,5.8,0,8.7,0c3.6,0,7.3,0,10.9,0.1c2.5,0,5,0.1,7.5,0.1c2.3,0,4.5,0.1,6.8,0.1c2.7,0,5.4,0.1,8.1,0.1  C87.4,31.3,87.5,31.3,87.6,31.4C87.6,31.3,87.6,31.4,87.6,31.4z"></path><path d="M87,71.1c-2.7,0-5.4,0.1-8.1,0.1c-1.3,0-2.6,0-3.8,0.1c-1.5,0-3,0-4.5,0.1c-1.6,0-3.1,0-4.7,0.1c-1.8,0-3.6,0-5.4,0  c-4.4,0-8.7,0-13.1,0.1c-2.2,0-4.4,0-6.6,0c-3.3,0-6.5-0.1-9.8-0.1c-2.3,0-4.6-0.1-6.9-0.1c-2.6,0-5.2-0.1-7.8-0.1c-1,0-2-0.1-3-0.1  c0.8,0,1.6,0,2.4,0c1.5,0,3.1,0,4.6,0c2.2,0,4.5-0.1,6.7-0.1c2.5,0,5.1-0.1,7.6-0.1c3.5,0,7-0.1,10.6-0.1c2.1,0,4.3,0,6.4,0  c3.4,0,6.7,0,10.1,0.1c1,0,2,0,3,0c2.6,0,5.3,0.1,7.9,0.1c2,0,4.1,0.1,6.1,0.1C81.3,70.9,84.1,71,87,71.1C87,71,87,71,87,71.1z"></path><path d="M13.2,30c1.7,0,3.3,0,5,0c1.6,0,3.2,0,4.8-0.1c0.7,0,1.3,0,2,0c1,0,1.9,0,2.9,0c2,0,4-0.1,6.1-0.1c3.1,0,6.2-0.1,9.3-0.1  c5.3,0,10.5,0,15.8,0c1.4,0,2.8,0,4.1,0c2,0,4,0,6,0.1c2.7,0,5.5,0.1,8.2,0.1c2.3,0,4.6,0,6.8,0.1c0.7,0,1.5,0,2.2,0.1  c-0.3,0-0.6,0-0.9,0c-2.1,0.1-4.3,0.1-6.4,0.1c-1.5,0-3.1,0-4.6,0.1c-1.3,0-2.6,0-3.9,0c-2.4,0-4.8,0.1-7.2,0.1  c-3,0-5.9,0.1-8.9,0.1c-3,0-5.9,0-8.9,0c-2.1,0-4.2,0-6.3,0c-2.8,0-5.5,0-8.3-0.1c-2.3,0-4.7-0.1-7-0.1c-2.5,0-5-0.1-7.5-0.1  C15.4,30.1,14.3,30,13.2,30C13.2,30,13.2,30,13.2,30z"></path><path d="M13.8,72.4c1.1,0,2.2,0,3.3,0c2.2,0,4.5-0.1,6.7-0.1c1.4,0,2.9,0,4.3,0c2.7,0,5.4-0.1,8.1-0.1c3.4,0,6.7-0.1,10.1-0.1  c3.7,0,7.5,0,11.2,0c1.8,0,3.6,0,5.4,0c2.1,0,4.2,0,6.2,0.1c2.3,0,4.6,0.1,6.8,0.1c2.7,0,5.5,0.1,8.2,0.1c0.7,0,1.3,0,2,0  c-0.4,0-0.8,0-1.1,0c-1.9,0-3.8,0.1-5.7,0.1c-1.1,0-2.3,0-3.4,0c-2.2,0-4.4,0.1-6.6,0.1c-2.9,0-5.8,0.1-8.7,0.1c-1.2,0-2.4,0-3.6,0  c-3.5,0-7,0-10.5,0c-1.1,0-2.1,0-3.2,0c-3,0-6,0-8.9-0.1c-3.2,0-6.3-0.1-9.5-0.1c-2.6,0-5.2-0.1-7.8-0.1  C16.1,72.5,15,72.4,13.8,72.4C13.8,72.4,13.8,72.4,13.8,72.4z"></path><path d="M85.6,28.6c-0.9,0-1.7,0-2.6,0.1c-1.5,0-2.9,0-4.4,0.1c-1.6,0-3.2,0-4.7,0.1c-1.6,0-3.2,0-4.7,0.1c-2.1,0-4.1,0-6.2,0.1  c-1.7,0-3.5,0-5.2,0c-3.9,0-7.9,0-11.8,0c-3.3,0-6.7-0.1-10-0.1c-1,0-1.9,0-2.9,0c-1.5,0-3,0-4.5-0.1c-0.8,0-1.6,0-2.5,0  c-2.8,0-5.6-0.1-8.3-0.1c-1.3,0-2.6-0.1-3.8-0.1c0.9,0,1.8,0,2.7,0c1.7,0,3.3,0,5,0c2,0,3.9,0,5.9-0.1c2.9,0,5.9-0.1,8.8-0.1  c2.6,0,5.2-0.1,7.8-0.1c3.5,0,7.1,0,10.6,0c2.9,0,5.8,0,8.8,0.1c2,0,4,0,6,0.1c2.6,0,5.2,0.1,7.8,0.1c2.1,0,4.3,0,6.4,0.1  C84.3,28.6,85,28.6,85.6,28.6C85.6,28.6,85.6,28.6,85.6,28.6z"></path><path d="M85.2,73.8c-0.8,0-1.6,0-2.4,0c-2.7,0-5.3,0.1-8,0.1c-2.2,0-4.4,0.1-6.6,0.1c-3.4,0-6.8,0.1-10.2,0.1c-2.4,0-4.8,0-7.2,0  c-3.8,0-7.7,0-11.5,0c-1.5,0-3.1,0-4.6,0c-2.8,0-5.6-0.1-8.3-0.1c-2.7,0-5.5-0.1-8.2-0.1c-1.2,0-2.3-0.1-3.5-0.1c0.8,0,1.5,0,2.3,0  c1.7,0,3.4,0,5.2,0c2.6,0,5.2-0.1,7.7-0.1c2.9,0,5.8-0.1,8.7-0.1c2.3,0,4.5,0,6.8-0.1c2.2,0,4.4,0,6.7,0c2.6,0,5.2,0,7.8,0  c2.7,0,5.4,0.1,8.2,0.1c2.3,0,4.6,0,6.9,0.1c2.3,0,4.6,0.1,6.9,0.1C82.8,73.7,84,73.7,85.2,73.8C85.2,73.7,85.2,73.8,85.2,73.8z"></path><path d="M85.1,27.3c-0.7,0-1.4,0-2.1,0c-2.8,0-5.6,0.1-8.3,0.1c-2.7,0-5.4,0.1-8.1,0.1c-4.4,0-8.7,0.1-13.1,0.1c-1.5,0-3,0-4.5,0  c-4.4,0-8.8,0-13.2-0.1c-2.5,0-5,0-7.5-0.1c-3.4,0-6.7-0.1-10.1-0.1c-1,0-2-0.1-2.9-0.1c1.2,0,2.5,0,3.7,0c1.3,0,2.7,0,4,0  c2,0,3.9,0,5.9-0.1c3.2,0,6.4-0.1,9.6-0.1c4,0,7.9,0,11.9-0.1c2.2,0,4.5,0,6.7,0c3.3,0,6.6,0.1,9.9,0.1c2.5,0,5,0.1,7.4,0.1  c3,0,6,0.1,9,0.1C83.9,27.2,84.5,27.2,85.1,27.3C85.1,27.2,85.1,27.2,85.1,27.3z"></path><path d="M15.4,75.1c1.4,0,2.7,0,4.1,0c1.3,0,2.6,0,3.9,0c2.7,0,5.4-0.1,8.2-0.1c3.6,0,7.1-0.1,10.7-0.1c4.2,0,8.4,0,12.6,0  c2.9,0,5.8,0,8.7,0.1c1.2,0,2.5,0,3.7,0c1.8,0,3.6,0,5.4,0.1c1.9,0,3.7,0.1,5.6,0.1c1.3,0,2.7,0,4,0c0.7,0,1.4,0,2.1,0  c-0.9,0-1.8,0-2.7,0.1c-2.2,0-4.3,0.1-6.5,0.1c-2.3,0-4.6,0.1-6.9,0.1c-1,0-2,0-3.1,0c-2.7,0-5.4,0-8.1,0.1c-2.6,0-5.3,0-7.9,0  c-1.8,0-3.6,0-5.4,0c-2.4,0-4.8,0-7.2,0c-3,0-6-0.1-8.9-0.1c-2.8,0-5.7-0.1-8.5-0.1C18,75.2,16.7,75.2,15.4,75.1  C15.4,75.1,15.4,75.1,15.4,75.1z"></path><path d="M84.2,25.9c-0.8,0-1.6,0-2.4,0c-2.2,0-4.5,0.1-6.7,0.1c-3,0-6.1,0.1-9.1,0.1c-5,0-10,0.1-14.9,0.1c-3.8,0-7.6,0-11.4,0  c-2.8,0-5.6-0.1-8.4-0.1c-0.8,0-1.6,0-2.5,0c-2.8,0-5.6-0.1-8.4-0.1c-1.5,0-2.9-0.1-4.4-0.1c0.7,0,1.5,0,2.2,0c1.8,0,3.6,0,5.5,0  c2.6,0,5.2-0.1,7.8-0.1c2.2,0,4.3,0,6.5-0.1c3.3,0,6.6,0,9.9,0c3.2,0,6.4,0,9.6,0c2.1,0,4.2,0,6.3,0c3.1,0,6.1,0.1,9.2,0.1  c3.6,0,7.3,0.1,10.9,0.1C83.9,25.9,84,25.9,84.2,25.9C84.2,25.9,84.2,25.9,84.2,25.9z"></path><path d="M83.6,76.5c-0.8,0-1.6,0-2.4,0.1c-2.7,0-5.4,0.1-8.1,0.1c-2.9,0-5.9,0-8.8,0.1c-6.5,0.1-13,0.1-19.6,0.1c-2,0-4.1,0-6.1,0  c-1.9,0-3.9,0-5.8,0c-2.2,0-4.4,0-6.6-0.1c-2,0-4,0-6-0.1c-1.2,0-2.5-0.1-3.7-0.1c0.8,0,1.7,0,2.5,0c1.1,0,2.2,0,3.3,0  c1.8,0,3.6-0.1,5.4-0.1c1.8,0,3.7,0,5.5,0c3.4,0,6.7-0.1,10.1-0.1c3.8,0,7.6,0,11.4,0c3.5,0,7.1,0,10.6,0.1c2.9,0,5.7,0.1,8.6,0.1  c3.1,0,6.3,0.1,9.4,0.1C83.5,76.5,83.5,76.5,83.6,76.5z"></path><path d="M16.7,24.5c0.9,0,1.9,0,2.8,0c2.1,0,4.1,0,6.2,0c2.4,0,4.7,0,7.1-0.1c3.1,0,6.2-0.1,9.3-0.1c4.8,0,9.6,0,14.4,0  c2.4,0,4.7,0,7.1,0c3.2,0,6.3,0.1,9.5,0.1c3.2,0,6.3,0.1,9.5,0.1c0.1,0,0.1,0,0.2,0c-0.6,0-1.3,0-1.9,0c-3.1,0-6.2,0.1-9.3,0.1  c-2.5,0-5,0.1-7.6,0.1c-4.1,0-8.3,0.1-12.4,0.1c-4,0-8.1,0-12.1,0c-2.8,0-5.6-0.1-8.4-0.1c-2.9,0-5.8-0.1-8.7-0.1  C20.5,24.6,18.6,24.6,16.7,24.5C16.7,24.5,16.7,24.5,16.7,24.5z"></path><path d="M17.7,77.8c0.9,0,1.8,0,2.6,0c1.9,0,3.7,0,5.6,0c3.4,0,6.9,0,10.3-0.1c6.4-0.1,12.7-0.1,19.1-0.1c2.5,0,5,0,7.6,0  c2.6,0,5.2,0,7.8,0.1c3,0,6,0.1,9.1,0.1c0.9,0,1.7,0,2.6,0c-1.1,0-2.2,0.1-3.4,0.1c-1.9,0-3.8,0-5.7,0.1c-2.2,0-4.4,0.1-6.7,0.1  c-1.5,0-3.1,0-4.6,0c-2,0-4.1,0-6.1,0c-2.9,0-5.7,0-8.6,0c-1.5,0-3.1,0-4.6,0c-2.6,0-5.1,0-7.7-0.1c-2.5,0-4.9,0-7.4-0.1  c-1.7,0-3.3,0-5,0C21,77.9,19.4,77.9,17.7,77.8C17.8,77.9,17.7,77.9,17.7,77.8z"></path><path d="M17.9,23.1c0.8,0,1.6,0,2.5,0c1.2,0,2.3,0,3.5,0c2.3,0,4.5-0.1,6.8-0.1c2.3,0,4.5,0,6.8,0c3.5,0,7,0,10.5-0.1  c3,0,6.1,0,9.1,0c1.4,0,2.9,0,4.3,0c3.4,0,6.9,0.1,10.3,0.1c2.6,0,5.3,0.1,7.9,0.1c0.8,0,1.6,0,2.5,0c-1.8,0-3.6,0.1-5.4,0.1  c-2.3,0-4.6,0-7,0.1c-4.1,0-8.2,0.1-12.4,0.1c-4.5,0-9,0-13.4,0c-3.4,0-6.8,0-10.2-0.1c-2.7,0-5.3-0.1-8-0.1c-1.4,0-2.7,0-4.1,0  C20.4,23.2,19.2,23.2,17.9,23.1C17.9,23.1,17.9,23.1,17.9,23.1z"></path><path d="M18.7,79.2c0.9,0,1.7,0,2.6,0c2.1,0,4.3,0,6.4,0c3.8,0,7.5-0.1,11.3-0.1c5.3,0,10.6,0,15.9,0c1.7,0,3.5,0,5.2,0  c2.4,0,4.7,0,7.1,0.1c2.4,0,4.8,0.1,7.2,0.1c2.1,0,4.3,0,6.4,0c0.1,0,0.2,0,0.3,0c-0.9,0-1.7,0-2.6,0c-3.5,0-7,0.1-10.5,0.1  c-3.6,0-7.1,0.1-10.7,0.1c-4.5,0-9,0-13.4,0c-2.7,0-5.4,0-8.1,0c-3.7,0-7.4-0.1-11.1-0.1C22.6,79.3,20.7,79.3,18.7,79.2  C18.7,79.2,18.7,79.2,18.7,79.2z"></path><path d="M80.8,21.8c-1.1,0-2.2,0-3.2,0.1c-3.2,0-6.4,0.1-9.7,0.1c-3.6,0-7.2,0.1-10.8,0.1c-4.5,0-8.9,0-13.4,0c-2.7,0-5.5,0-8.2,0  c-3.1,0-6.2,0-9.3-0.1c-2.3,0-4.6-0.1-6.9-0.1c0.8,0,1.7,0,2.5,0c2.2,0,4.4,0,6.6,0c3.1,0,6.2-0.1,9.3-0.1c1.3,0,2.6,0,4,0  c2.7,0,5.4,0,8.2,0c2.5,0,5,0,7.4,0c3.5,0,6.9,0,10.4,0.1c4.3,0,8.6,0.1,12.9,0.1C80.6,21.8,80.7,21.8,80.8,21.8  C80.8,21.8,80.8,21.8,80.8,21.8z"></path><path d="M20,80.6c1.7,0,3.4,0,5.1,0c1.6,0,3.2,0,4.8,0c3.3,0,6.7-0.1,10-0.1c4.5,0,9,0,13.4,0c4.5,0,8.9,0,13.4,0.1  c3.4,0,6.9,0.1,10.3,0.1c0.9,0,1.8,0,2.7,0.1c-0.9,0-1.8,0-2.8,0c-2.9,0-5.8,0-8.8,0.1c-7.9,0.1-15.8,0.1-23.7,0.1  c-2.8,0-5.7,0-8.5,0c-3.3,0-6.6-0.1-9.9-0.1c-2,0-4-0.1-6-0.1C20.1,80.6,20,80.6,20,80.6z"></path><path d="M79.4,20.4c-0.8,0-1.6,0-2.4,0c-2.4,0-4.8,0.1-7.2,0.1c-1.6,0-3.2,0-4.8,0c-6.9,0.1-13.9,0.1-20.8,0.1c-2.8,0-5.5,0-8.3,0  c-3.1,0-6.2-0.1-9.3-0.1c-2,0-4-0.1-6-0.1c0.1,0,0.3,0,0.4,0c2.4,0,4.9,0,7.3,0c1,0,1.9,0,2.9,0c6.9,0,13.8-0.1,20.6-0.1  c4.5,0,9,0,13.4,0c3.9,0,7.8,0.1,11.7,0.1C77.8,20.4,78.6,20.4,79.4,20.4C79.4,20.4,79.4,20.4,79.4,20.4z"></path><path d="M21.4,82c1.1,0,2.1,0,3.2,0c2.4,0,4.7,0,7.1,0c2.7,0,5.5-0.1,8.2-0.1c1.6,0,3.2,0,4.8,0c2.8,0,5.6,0,8.3,0  c4.6,0,9.1,0,13.7,0.1c2.8,0,5.7,0,8.5,0.1c1,0,2,0,3,0.1c-1.1,0-2.2,0-3.4,0.1c-3.1,0-6.3,0.1-9.4,0.1c-2.6,0-5.3,0-7.9,0.1  c-0.9,0-1.9,0-2.8,0c-4.1,0-8.1,0-12.2,0c-4.6,0-9.1,0-13.7-0.1c-1.9,0-3.9-0.1-5.8-0.1C22.6,82,22,82,21.4,82  C21.4,82,21.4,82,21.4,82z"></path><path d="M22.1,19c18.5-0.2,37-0.2,55.6,0c-0.7,0-1.4,0-2.1,0c-2.6,0-5.1,0.1-7.7,0.1c-1.6,0-3.3,0-4.9,0c-2.2,0-4.5,0-6.7,0  c-3.6,0-7.2,0-10.8,0c-1.9,0-3.8,0-5.7,0c-2.8,0-5.7,0-8.5-0.1c-1.6,0-3.2,0-4.7,0C25,19.1,23.5,19.1,22.1,19z"></path><path d="M23.2,83.3c17.9-0.2,35.8-0.2,53.6,0c-1,0-1.9,0-2.9,0c-2.7,0-5.4,0.1-8.1,0.1c-2.6,0-5.1,0-7.7,0c-4.5,0-9,0-13.5,0  c-1.9,0-3.8,0-5.7,0c-3.7,0-7.5,0-11.2-0.1C26.2,83.4,24.7,83.4,23.2,83.3z"></path><path d="M23.6,17.7c17.5-0.2,35.1-0.2,52.6,0c-0.8,0-1.6,0-2.5,0c-1.4,0-2.9,0-4.3,0.1c-2.4,0-4.8,0-7.2,0c-2.1,0-4.1,0-6.2,0  c-3.8,0-7.6,0-11.3,0c-4.3,0-8.5,0-12.8-0.1C29.2,17.8,26.4,17.7,23.6,17.7z"></path><path d="M24.8,84.7c16.7-0.2,33.4-0.2,50.1,0c-1.1,0-2.2,0-3.4,0c-4.4,0-8.8,0.1-13.1,0.1c-4.9,0-9.7,0-14.6,0c-3.3,0-6.5,0-9.8,0  C30.9,84.8,27.9,84.8,24.8,84.7z"></path><path d="M25.4,16.3c3.8-0.1,44.5-0.1,48.8,0c-0.9,0-1.9,0-2.8,0c-4.6,0.1-9.2,0.1-13.8,0.1c-4.2,0-8.5,0-12.7,0c-3.3,0-6.6,0-9.8,0  c-1.6,0-3.2,0-4.7,0c-1.5,0-3.1-0.1-4.6-0.1C25.6,16.3,25.6,16.3,25.4,16.3z"></path><path d="M26.9,86.1c4-0.1,41.1-0.1,46,0c-1.1,0-2.2,0-3.3,0c-4,0-8.1,0.1-12.1,0.1c-6.1,0-12.1,0-18.2,0c-2.2,0-4.5,0-6.7,0  C30.6,86.1,28.8,86.1,26.9,86.1z"></path><path d="M72.1,14.9c-0.7,0-1.5,0-2.2,0c-2.1,0-4.1,0.1-6.2,0.1c-2.3,0-4.6,0-7,0c-6.2,0-12.4,0-18.6,0c-1.7,0-3.4,0-5.1,0  c-1.8,0-3.7-0.1-5.5-0.1C29.3,14.8,69.5,14.8,72.1,14.9z"></path><path d="M70.5,87.4c-5.3,0.2-33.2,0.2-41.7,0C42.8,87.3,56.7,87.3,70.5,87.4z"></path><path d="M70,13.6c-13.3,0.2-26.6,0.2-39.9,0C31.2,13.5,68,13.5,70,13.6z"></path><path d="M31.6,88.8c2.7-0.1,33.6-0.1,36.4,0c-0.9,0-1.7,0-2.6,0c-1.7,0-3.4,0-5.1,0.1c-1.9,0-3.8,0-5.7,0c-4.4,0-8.8,0-13.2,0  c-2.1,0-4.2,0-6.3-0.1C34.1,88.8,32.8,88.8,31.6,88.8z"></path><path d="M32.6,12.2c11.5-0.1,23.1-0.1,34.6,0c-3.8,0-7.7,0.1-11.5,0.1c-3.8,0-7.7,0-11.5,0C40.3,12.3,36.5,12.2,32.6,12.2z"></path><path d="M34.4,90.2c10.1-0.1,20.2-0.1,30.3,0C54.6,90.3,44.5,90.3,34.4,90.2z"></path><path d="M36.4,10.8c9.2,0,18.3,0,27.5,0C54.8,10.9,45.6,10.9,36.4,10.8z"></path><path d="M39.2,91.5c7.1,0,14.2,0,21.4,0C53.4,91.6,46.3,91.6,39.2,91.5z"></path><path d="M41.2,9.4c5.8,0,11.5,0,17.3,0c0,0,0,0,0,0C52.7,9.5,46.9,9.5,41.2,9.4C41.2,9.5,41.2,9.5,41.2,9.4z"></path><path d="M86.3,28.6C86.3,28.6,86.3,28.6,86.3,28.6C86.3,28.6,86.3,28.6,86.3,28.6C86.3,28.6,86.3,28.6,86.3,28.6z"></path><polygon points="83.6,24.5 83.5,24.5 83.5,24.5 "></polygon><path d="M65.2,90.2C65.1,90.2,65.1,90.2,65.2,90.2C65.1,90.2,65.1,90.2,65.2,90.2C65.1,90.2,65.1,90.2,65.2,90.2  C65.1,90.2,65.1,90.2,65.2,90.2z"></path><polygon points="60.3,9.5 60.3,9.5 60.3,9.5 "></polygon><polygon points="26.2,86.1 26.2,86.1 26.2,86.1 "></polygon><polygon points="74.7,16.3 74.7,16.3 74.7,16.3 "></polygon><polygon points="85.6,73.7 85.6,73.7 85.6,73.8 "></polygon><polygon points="39.9,9.5 39.9,9.5 39.9,9.5 "></polygon></g>
</svg>
</g><g opacity="1" transform="rotate(0 63.9903 209.8415)">
<svg width="388.8703" height="60" x="63.9903" y="209.8415" version="1.1" preserveAspectRatio="none" viewBox="2.6 -28.56 233.84 36.08">
  <g transform="matrix(1 0 0 1 0 0)" class="companyName"><path id="id-D6z1nYkh12" d="M18.72-25.20Q17.28-25.88 15.52-26.36Q13.76-26.84 12.08-26.84L12.08-26.84Q9.28-26.84 7.60-25.46Q5.92-24.08 5.92-21.92L5.92-21.92Q5.92-20.40 6.82-19.34Q7.72-18.28 9.12-17.58Q10.52-16.88 12.72-16.04L12.72-16.04Q15.12-15.16 16.70-14.24Q18.28-13.32 19.36-11.74Q20.44-10.16 20.44-7.68L20.44-7.68Q20.44-5.32 19.32-3.50Q18.20-1.68 16.18-0.68Q14.16 0.32 11.56 0.32L11.56 0.32Q7.04 0.32 2.60-2.60L2.60-2.60L3.52-4.20Q5-3.08 7.16-2.24Q9.32-1.40 11.36-1.40L11.36-1.40Q13.16-1.40 14.78-2.10Q16.40-2.80 17.42-4.22Q18.44-5.64 18.44-7.64L18.44-7.64Q18.44-9.52 17.50-10.80Q16.56-12.08 15.14-12.86Q13.72-13.64 11.56-14.44L11.56-14.44Q9.16-15.32 7.60-16.14Q6.04-16.96 4.98-18.32Q3.92-19.68 3.92-21.72L3.92-21.72Q3.92-23.72 4.94-25.26Q5.96-26.80 7.78-27.66Q9.60-28.52 11.84-28.56L11.84-28.56Q13.76-28.56 15.82-28.04Q17.88-27.52 19.48-26.72L19.48-26.72L18.72-25.20Z M46.24-16.08Q48.44-16.08 49.76-14.80Q51.08-13.52 51.16-11.40L51.16-11.40L51.16 0L49.28 0L49.28-11Q49.20-12.44 48.34-13.40Q47.48-14.36 45.84-14.44L45.84-14.44Q44.28-14.44 42.96-13.64Q41.64-12.84 40.82-11.50Q40-10.16 39.92-8.56L39.92-8.56L39.92 0L38.04 0L38.04-11Q37.96-12.44 37.08-13.40Q36.20-14.36 34.56-14.44L34.56-14.44Q33-14.44 31.64-13.64Q30.28-12.84 29.48-11.44Q28.68-10.04 28.68-8.40L28.68-8.40L28.68 0L26.80 0L26.80-15.64L28.44-15.64L28.60-12.20Q29.48-14 31.24-15.04Q33-16.08 35.08-16.08L35.08-16.08Q36.96-16.08 38.32-15.06Q39.68-14.04 39.92-12.44L39.92-12.44Q40.84-14.16 42.54-15.12Q44.24-16.08 46.24-16.08L46.24-16.08Z M71.84-15.64L73.52-15.64L73.52 0L71.64 0L71.64-3.32Q70.72-1.80 68.84-0.74Q66.96 0.32 64.76 0.32L64.76 0.32Q62.52 0.32 60.70-0.70Q58.88-1.72 57.82-3.58Q56.76-5.44 56.76-7.84L56.76-7.84Q56.76-10.40 57.86-12.26Q58.96-14.12 60.90-15.12Q62.84-16.12 65.28-16.12L65.28-16.12Q67.20-16.12 68.96-15.04Q70.72-13.96 71.64-12.24L71.64-12.24L71.84-15.64ZM65.16-1.28Q67.80-1.28 69.64-2.92Q71.48-4.56 71.64-7.12L71.64-7.12L71.64-9.36Q71.16-11.56 69.32-13.04Q67.48-14.52 65.12-14.52L65.12-14.52Q63.32-14.52 61.84-13.70Q60.36-12.88 59.50-11.38Q58.64-9.88 58.64-7.92L58.64-7.92Q58.64-6.12 59.52-4.60Q60.40-3.08 61.90-2.18Q63.40-1.28 65.16-1.28L65.16-1.28Z M82.44-11.92Q83.28-13.80 85.20-14.92Q87.12-16.04 89.04-16.08L89.04-16.08L88.96-14.24Q87.20-14.24 85.72-13.46Q84.24-12.68 83.38-11.30Q82.52-9.92 82.52-8.28L82.52-8.28L82.52 0L80.64 0L80.64-15.64L82.28-15.64L82.44-11.92Z M95.88-22.52L97.80-22.52L97.80-15.44L102.64-15.44L102.64-13.92L97.80-13.92L97.80 0L95.88 0L95.88-13.92L92.56-13.92L92.56-15.44L95.88-15.44L95.88-22.52Z M122.48-25.20Q121.04-25.88 119.28-26.36Q117.52-26.84 115.84-26.84L115.84-26.84Q113.04-26.84 111.36-25.46Q109.68-24.08 109.68-21.92L109.68-21.92Q109.68-20.40 110.58-19.34Q111.48-18.28 112.88-17.58Q114.28-16.88 116.48-16.04L116.48-16.04Q118.88-15.16 120.46-14.24Q122.04-13.32 123.12-11.74Q124.20-10.16 124.20-7.68L124.20-7.68Q124.20-5.32 123.08-3.50Q121.96-1.68 119.94-0.68Q117.92 0.32 115.32 0.32L115.32 0.32Q110.80 0.32 106.36-2.60L106.36-2.60L107.28-4.20Q108.76-3.08 110.92-2.24Q113.08-1.40 115.12-1.40L115.12-1.40Q116.92-1.40 118.54-2.10Q120.16-2.80 121.18-4.22Q122.20-5.64 122.20-7.64L122.20-7.64Q122.20-9.52 121.26-10.80Q120.32-12.08 118.90-12.86Q117.48-13.64 115.32-14.44L115.32-14.44Q112.92-15.32 111.36-16.14Q109.80-16.96 108.74-18.32Q107.68-19.68 107.68-21.72L107.68-21.72Q107.68-23.72 108.70-25.26Q109.72-26.80 111.54-27.66Q113.36-28.52 115.60-28.56L115.60-28.56Q117.52-28.56 119.58-28.04Q121.64-27.52 123.24-26.72L123.24-26.72L122.48-25.20Z M142.20-15.64L144.04-15.64L133.96 7.52L132 7.52L135.36-0.16L128.12-15.64L130.24-15.64L136.32-2.32L142.20-15.64Z M152.40 0.32Q150.88 0.32 149.46-0.20Q148.04-0.72 147.16-1.80L147.16-1.80L148.04-3.04Q148.84-2.20 149.96-1.70Q151.08-1.20 152.28-1.20L152.28-1.20Q153.80-1.20 154.84-1.90Q155.88-2.60 155.88-4.08L155.88-4.08Q155.88-5.12 155.32-5.74Q154.76-6.36 154.04-6.66Q153.32-6.96 151.72-7.48L151.72-7.48Q149.84-8.12 148.82-9.10Q147.80-10.08 147.80-11.72L147.80-11.72Q147.80-13.64 149.14-14.82Q150.48-16 152.56-16L152.56-16Q155.44-16 157.24-14.24L157.24-14.24L156.40-12.92Q155.80-13.72 154.82-14.08Q153.84-14.44 152.84-14.48L152.84-14.48Q151.64-14.48 150.66-13.82Q149.68-13.16 149.68-11.96L149.68-11.96Q149.68-10.72 150.56-10.10Q151.44-9.48 153.24-8.84L153.24-8.84Q155.44-8.12 156.60-7.22Q157.76-6.32 157.76-4.48L157.76-4.48Q157.76-2.32 156.38-1Q155 0.32 152.40 0.32L152.40 0.32Z M165-22.52L166.92-22.52L166.92-15.44L171.76-15.44L171.76-13.92L166.92-13.92L166.92 0L165 0L165-13.92L161.68-13.92L161.68-15.44L165-15.44L165-22.52Z M183.28-1.32Q185.80-1.32 187.84-3.04L187.84-3.04L188.80-1.68Q187.64-0.76 186.18-0.22Q184.72 0.32 183.24 0.32L183.24 0.32Q180.84 0.32 178.94-0.76Q177.04-1.84 175.98-3.70Q174.92-5.56 174.92-7.88L174.92-7.88Q174.92-10.12 176.04-12.02Q177.16-13.92 179.08-15.04Q181-16.16 183.28-16.16L183.28-16.16Q186-16.16 187.92-14.56Q189.84-12.96 190.72-10.24L190.72-10.24L177.36-5.08Q178.12-3.40 179.70-2.36Q181.28-1.32 183.28-1.32L183.28-1.32ZM183.16-14.56Q181.40-14.56 179.92-13.68Q178.44-12.80 177.60-11.30Q176.76-9.80 176.76-7.96L176.76-7.96Q176.76-7.12 176.92-6.48L176.92-6.48L188.44-11Q187.68-12.60 186.32-13.58Q184.96-14.56 183.16-14.56L183.16-14.56Z M215.36-16.08Q217.56-16.08 218.88-14.80Q220.20-13.52 220.28-11.40L220.28-11.40L220.28 0L218.40 0L218.40-11Q218.32-12.44 217.46-13.40Q216.60-14.36 214.96-14.44L214.96-14.44Q213.40-14.44 212.08-13.64Q210.76-12.84 209.94-11.50Q209.12-10.16 209.04-8.56L209.04-8.56L209.04 0L207.16 0L207.16-11Q207.08-12.44 206.20-13.40Q205.32-14.36 203.68-14.44L203.68-14.44Q202.12-14.44 200.76-13.64Q199.40-12.84 198.60-11.44Q197.80-10.04 197.80-8.40L197.80-8.40L197.80 0L195.92 0L195.92-15.64L197.56-15.64L197.72-12.20Q198.60-14 200.36-15.04Q202.12-16.08 204.20-16.08L204.20-16.08Q206.08-16.08 207.44-15.06Q208.80-14.04 209.04-12.44L209.04-12.44Q209.96-14.16 211.66-15.12Q213.36-16.08 215.36-16.08L215.36-16.08Z M231.08 0.32Q229.56 0.32 228.14-0.20Q226.72-0.72 225.84-1.80L225.84-1.80L226.72-3.04Q227.52-2.20 228.64-1.70Q229.76-1.20 230.96-1.20L230.96-1.20Q232.48-1.20 233.52-1.90Q234.56-2.60 234.56-4.08L234.56-4.08Q234.56-5.12 234.00-5.74Q233.44-6.36 232.72-6.66Q232.00-6.96 230.40-7.48L230.40-7.48Q228.52-8.12 227.50-9.10Q226.48-10.08 226.48-11.72L226.48-11.72Q226.48-13.64 227.82-14.82Q229.16-16 231.24-16L231.24-16Q234.12-16 235.92-14.24L235.92-14.24L235.08-12.92Q234.48-13.72 233.50-14.08Q232.52-14.44 231.52-14.48L231.52-14.48Q230.32-14.48 229.34-13.82Q228.36-13.16 228.36-11.96L228.36-11.96Q228.36-10.72 229.24-10.10Q230.12-9.48 231.92-8.84L231.92-8.84Q234.12-8.12 235.28-7.22Q236.44-6.32 236.44-4.48L236.44-4.48Q236.44-2.32 235.06-1Q233.68 0.32 231.08 0.32L231.08 0.32Z"/></g>
</svg>
</g></svg></svg>