<svg version="1.1" preserveAspectRatio="none" xmlns="http://www.w3.org/2000/svg" width="500" height="500" viewBox="0 0 500 500"><rect width="100%" height="100%" fill="#121212" fill-opacity="1"/><svg viewBox="360.6869 307.7429 358.631 44" width="333" height="40.85536386982721" x="83.5px" y="229.5723px" xmlns="http://www.w3.org/2000/svg" xmlns:xlink="http://www.w3.org/1999/xlink" preserveAspectRatio="none"><defs></defs><style>.companyName {fill:#F5F5F5;fill-opacity:1;}.icon3 {fill:#00DCFB;fill-opacity:1;}.icon3-str {stroke:#00DCFB;stroke-opacity:1;}.shapeStroke-str {stroke:#F5F5F5;stroke-opacity:1;}</style><g opacity="1" transform="rotate(0 360.6869 345.7429)">
<svg width="358.631" height="6" x="360.6869" y="345.7429" version="1.1" preserveAspectRatio="none" viewBox="0 0 358.631 6">
  <defs><rect x="0" y="0" width="358.631" height="6" rx="4%" ry="4%" id="id-UPl23ini1743508027138"></rect></defs><use class="companyName shapeStroke-str" style="stroke-width:0;" xlink:href="#id-UPl23ini1743508027138"></use>
</svg>
</g><g opacity="1" transform="rotate(0 360.6869 307.7429)">
<svg width="358.631" height="28" x="360.6869" y="307.7429" version="1.1" preserveAspectRatio="none" viewBox="1.2 -28.8 371.44 29">
  <g transform="matrix(1 0 0 1 0 0)" class="companyName"><path id="id-D6z1nYkh13" d="M25.56 0.20L1.88 0.20L1.88-5L24.88-4.96Q26.64-4.96 27.58-5.78Q28.52-6.60 28.52-8.44L28.52-8.44Q28.52-10.28 27.58-11.10Q26.64-11.92 24.88-11.92L24.88-11.92L10.56-11.92Q6.12-11.92 3.66-14.06Q1.20-16.20 1.20-20.36L1.20-20.36Q1.20-24.52 3.66-26.66Q6.12-28.80 10.56-28.80L10.56-28.80L33.04-28.80L33.04-23.60L11.24-23.64Q9.52-23.64 8.56-22.86Q7.60-22.08 7.60-20.36L7.60-20.36Q7.60-18.64 8.56-17.86Q9.52-17.08 11.24-17.08L11.24-17.08L25.56-17.08Q30-17.08 32.46-14.90Q34.92-12.72 34.92-8.44L34.92-8.44Q34.92-4.20 32.46-2Q30 0.20 25.56 0.20L25.56 0.20Z M56.28 0.20L48.88 0.20Q43.52 0.20 40.52-2.46Q37.52-5.12 37.52-10.28L37.52-10.28Q37.52-15.48 40.52-18.14Q43.52-20.80 48.88-20.80L48.88-20.80L56.28-20.80Q61.64-20.80 64.64-18.14Q67.64-15.48 67.64-10.28L67.64-10.28Q67.64-5.12 64.64-2.46Q61.64 0.20 56.28 0.20L56.28 0.20ZM48.88-4.40L48.88-4.40L56.28-4.40Q58.88-4.40 60.26-5.84Q61.64-7.28 61.64-10.28L61.64-10.28Q61.64-13.32 60.26-14.76Q58.88-16.20 56.28-16.20L56.28-16.20L48.88-16.20Q46.28-16.20 44.90-14.76Q43.52-13.32 43.52-10.28L43.52-10.28Q43.52-7.28 44.90-5.84Q46.28-4.40 48.88-4.40Z M81.60 0L75.80 0L75.80-16L69.84-16L69.84-20.60L75.80-20.60L75.80-22.20Q75.80-25.04 77.44-26.78Q79.08-28.52 82.56-28.52L82.56-28.52L91.28-28.52L91.28-23.92L84-23.92Q81.60-23.92 81.60-21.48L81.60-21.48L81.60-20.60L90.16-20.60L90.16-16L81.60-16L81.60 0Z M113.32 0L104.60 0Q101.12 0 99.48-1.74Q97.84-3.48 97.84-6.32L97.84-6.32L97.84-16L91.88-16L91.88-20.60L97.84-20.60L97.84-26.92L103.64-26.92L103.64-20.60L112.20-20.60L112.20-16L103.64-16L103.64-7.04Q103.64-4.60 106.04-4.60L106.04-4.60L113.32-4.60L113.32 0Z M122.76 0L117.28 0L115.32-20.60L121.16-20.60L122.52-4.96L128.72-7.76L128.72-20.60L134.52-20.60L134.52-7.72L140.72-4.96L142.08-20.60L147.92-20.60L145.96 0L140.48 0L131.60-3.92L122.76 0Z M177.96 0L156.80 0Q153.56 0 151.84-1.64Q150.12-3.28 150.12-6.32L150.12-6.32Q150.12-9.32 151.84-10.96Q153.56-12.60 156.80-12.60L156.80-12.60L172.16-12.60L172.16-13.56Q172.16-16 169.76-16L169.76-16L152.80-16L152.80-20.60L171.28-20.60Q174.92-20.60 176.44-18.94Q177.96-17.28 177.96-14.28L177.96-14.28L177.96 0ZM157.84-4.60L157.84-4.60L172.16-4.60L172.16-8L157.84-8Q157.08-8 156.66-7.54Q156.24-7.08 156.24-6.32L156.24-6.32Q156.24-5.56 156.66-5.08Q157.08-4.60 157.84-4.60Z M188.24 0L182.36 0L182.36-20.60L198.12-20.60Q201.60-20.60 203.24-18.86Q204.88-17.12 204.88-14.28L204.88-14.28L204.88-10L199-10L199-13.56Q199-15.96 196.60-15.96L196.60-15.96L188.24-15.96L188.24 0Z M235.64 0.20L219.44 0.20Q214.08 0.20 211.08-2.46Q208.08-5.12 208.08-10.28L208.08-10.28Q208.08-15.48 211.08-18.14Q214.08-20.80 219.44-20.80L219.44-20.80L229.44-20.80Q232.96-20.80 234.82-19.14Q236.68-17.48 236.68-14.40L236.68-14.40Q236.68-8.12 229.44-8.12L229.44-8.12L214.32-8.12Q215.16-4.40 219.44-4.40L219.44-4.40L235.64-4.40L235.64 0.20ZM229.16-16.20L219.44-16.20Q215.32-16.20 214.36-12.72L214.36-12.72L229.16-12.72Q229.96-12.72 230.42-13.20Q230.88-13.68 230.88-14.52L230.88-14.52Q230.88-16.20 229.16-16.20L229.16-16.20Z M270.40 0.20L255.60 0.20Q247.68 0.20 243.48-3.46Q239.28-7.12 239.28-14.32L239.28-14.32Q239.28-21.48 243.48-25.16Q247.68-28.84 255.60-28.80L255.60-28.80L270-28.72L270-23.60L256.04-23.60Q250.84-23.60 248.32-21.40Q245.80-19.20 245.80-14.32L245.80-14.32Q245.80-9.44 248.32-7.22Q250.84-5 256.04-5L256.04-5L270.40-5L270.40 0.20Z M279.68 0L273.80 0L273.80-20.60L289.56-20.60Q293.04-20.60 294.68-18.86Q296.32-17.12 296.32-14.28L296.32-14.28L296.32-10L290.44-10L290.44-13.56Q290.44-15.96 288.04-15.96L288.04-15.96L279.68-15.96L279.68 0Z M326.16 0L305.00 0Q301.76 0 300.04-1.64Q298.32-3.28 298.32-6.32L298.32-6.32Q298.32-9.32 300.04-10.96Q301.76-12.60 305.00-12.60L305.00-12.60L320.36-12.60L320.36-13.56Q320.36-16 317.96-16L317.96-16L301.00-16L301.00-20.60L319.48-20.60Q323.12-20.60 324.64-18.94Q326.16-17.28 326.16-14.28L326.16-14.28L326.16 0ZM306.04-4.60L306.04-4.60L320.36-4.60L320.36-8L306.04-8Q305.28-8 304.86-7.54Q304.44-7.08 304.44-6.32L304.44-6.32Q304.44-5.56 304.86-5.08Q305.28-4.60 306.04-4.60Z M340.92 0L335.12 0L335.12-16L329.16-16L329.16-20.60L335.12-20.60L335.12-22.20Q335.12-25.04 336.76-26.78Q338.40-28.52 341.88-28.52L341.88-28.52L350.60-28.52L350.60-23.92L343.32-23.92Q340.92-23.92 340.92-21.48L340.92-21.48L340.92-20.60L349.48-20.60L349.48-16L340.92-16L340.92 0Z M372.64 0L363.92 0Q360.44 0 358.80-1.74Q357.16-3.48 357.16-6.32L357.16-6.32L357.16-16L351.20-16L351.20-20.60L357.16-20.60L357.16-26.92L362.96-26.92L362.96-20.60L371.52-20.60L371.52-16L362.96-16L362.96-7.04Q362.96-4.60 365.36-4.60L365.36-4.60L372.64-4.60L372.64 0Z"/></g>
</svg>
</g><g opacity="1" transform="rotate(0 360.6869 345.7429)">
<svg width="78.8989" height="6" x="360.6869" y="345.7429" version="1.1" preserveAspectRatio="none" viewBox="0 0 78.8989 6">
  <defs><rect x="0" y="0" width="78.8989" height="6" rx="0px" ry="0px" id="id-o0jQam8yd1743508027138"></rect></defs><use class="icon3 shapeStroke-str" style="stroke-width:0;" xlink:href="#id-o0jQam8yd1743508027138"></use>
</svg>
</g></svg></svg>